<?xml version="1.0" encoding="UTF-8"?>
<svg xmlns="http://www.w3.org/2000/svg" viewBox="0 0 93.76 31.3">
  <g id="root">
    <path d="M7.37,24.53l-1.25,1.28L0,19.82l3.43-3.51,1.06,1.04-2.18,2.23,1.58,1.54,2.03-2.08,1.06,1.04-2.03,2.08,2.42,2.37Z" style="fill: #fff;"/>
    <path d="M13.27,8.88l3.11,4.59c.33,.49,.52,1,.57,1.54,.05,.54-.06,1.07-.34,1.59-.28,.52-.75,1.01-1.41,1.46-.94,.64-1.81,.88-2.63,.74-.82-.15-1.49-.61-2.03-1.4l-3.1-4.57,1.5-1.02,2.94,4.34c.4,.59,.8,.91,1.19,.99,.4,.07,.83-.05,1.3-.37,.33-.22,.56-.46,.68-.71,.13-.25,.16-.53,.1-.83-.06-.3-.22-.64-.47-1l-2.94-4.33,1.5-1.02Z" style="fill: #fff;"/>
    <path d="M28.87,11.05l-2.15,.84-5.84-4.67-.05,.02c.11,.25,.22,.49,.34,.74l.33,.75c.11,.25,.22,.5,.33,.75l1.47,3.75-1.51,.59-3.13-7.97,2.13-.84,5.81,4.61h.04c-.1-.26-.21-.5-.32-.74l-.32-.72-.31-.72-1.48-3.77,1.52-.6,3.13,7.97Z" style="fill: #fff;"/>
    <path d="M40.62,4.21c.15,.95,.09,1.78-.18,2.48-.26,.69-.72,1.26-1.36,1.69-.64,.43-1.45,.72-2.42,.87l-2.4,.37-1.31-8.47,2.66-.41c.89-.14,1.68-.1,2.38,.12,.7,.21,1.28,.6,1.73,1.16,.45,.56,.75,1.29,.89,2.2Zm-1.86,.34c-.1-.63-.27-1.12-.52-1.5-.24-.38-.56-.63-.95-.77-.39-.14-.84-.17-1.37-.08l-.96,.15,.86,5.51,.77-.12c.88-.14,1.49-.47,1.84-1,.36-.53,.46-1.26,.32-2.18Z" style="fill: #fff;"/>
    <path d="M50.85,8.77l-.51-2.07-3.12-.17-.73,2-1.95-.11L48.02,0l2.22,.12,2.57,8.75-1.95-.11Zm-.86-3.61l-.51-2.02c-.03-.13-.08-.31-.13-.52-.05-.21-.1-.43-.16-.65-.05-.22-.09-.41-.12-.58-.05,.16-.11,.35-.2,.59-.08,.23-.16,.45-.23,.66-.07,.21-.13,.36-.16,.44l-.72,1.96,2.23,.12Z" style="fill: #fff;"/>
    <path d="M64.18,7.2c-.25,.93-.64,1.66-1.16,2.19-.52,.53-1.16,.86-1.92,1-.76,.13-1.61,.07-2.57-.18l-2.34-.63,2.21-8.28,2.6,.69c.87,.23,1.58,.59,2.13,1.07,.56,.48,.93,1.06,1.12,1.76,.19,.69,.17,1.48-.07,2.37Zm-1.84-.44c.16-.61,.21-1.14,.13-1.58-.07-.44-.26-.81-.56-1.09-.3-.28-.7-.49-1.22-.63l-.93-.25-1.44,5.39,.75,.2c.86,.23,1.55,.17,2.09-.18,.54-.34,.93-.97,1.17-1.87Z" style="fill: #fff;"/>
    <path d="M74.78,12.28c-.3,.59-.65,1.08-1.05,1.49-.39,.4-.83,.7-1.31,.89-.47,.19-.99,.27-1.54,.22-.55-.05-1.13-.24-1.76-.56-.62-.32-1.11-.69-1.47-1.11-.36-.42-.6-.88-.71-1.39-.12-.5-.12-1.03-.02-1.59,.1-.56,.31-1.13,.61-1.72,.41-.79,.89-1.41,1.45-1.86,.56-.45,1.2-.7,1.9-.74,.7-.04,1.47,.15,2.3,.58,.83,.43,1.42,.94,1.78,1.54,.37,.6,.53,1.26,.48,1.98-.04,.72-.27,1.48-.68,2.27Zm-5.55-2.88c-.28,.53-.45,1.02-.51,1.48-.06,.45,0,.86,.17,1.21,.18,.35,.49,.64,.94,.88,.46,.24,.88,.33,1.27,.27,.39-.06,.75-.25,1.08-.56,.33-.32,.63-.74,.91-1.27,.41-.8,.59-1.5,.53-2.12-.06-.61-.43-1.1-1.12-1.45-.45-.24-.88-.32-1.28-.26-.39,.06-.75,.24-1.09,.56-.33,.31-.63,.74-.91,1.27Z" style="fill: #fff;"/>
    <path d="M83.41,13.18c.6,.49,1.04,.97,1.31,1.43,.28,.47,.39,.92,.34,1.37s-.26,.9-.62,1.35c-.25,.3-.52,.52-.82,.65-.3,.13-.61,.2-.92,.21-.32,0-.62-.03-.92-.11l-.4,4.49-1.56-1.27,.49-3.84-.75-.61-2.08,2.55-1.41-1.15,5.41-6.64,1.94,1.58Zm-1.04,1.07l-.43-.35-1.46,1.79,.45,.37c.47,.38,.86,.57,1.19,.58,.33,0,.62-.14,.87-.44,.26-.31,.33-.63,.22-.94-.11-.31-.39-.65-.84-1.02Z" style="fill: #fff;"/>
    <path d="M87.82,29.79l1.18-1.78-1.99-2.41-1.97,.82-1.25-1.51,8.56-3.15,1.42,1.71-4.7,7.82-1.25-1.51Zm2.07-3.08l1.14-1.75c.08-.11,.17-.26,.29-.45,.12-.18,.25-.37,.37-.56,.13-.19,.24-.35,.34-.48-.15,.07-.34,.16-.57,.25-.22,.1-.44,.19-.64,.28-.2,.09-.35,.15-.43,.18l-1.93,.8,1.42,1.72Z" style="fill: #fff;"/>
  </g>
</svg>