<?xml version="1.0" encoding="UTF-8"?>
<svg xmlns="http://www.w3.org/2000/svg" viewBox="0 0 93.76 31.3">
  <g id="root">
    <path d="M11.33,20.57l-1.38,1.14-5.46-6.6,3.78-3.13,.95,1.15-2.41,1.99,1.41,1.7,2.24-1.85,.94,1.14-2.24,1.85,2.16,2.61Z" style="fill: #fff;"/>
    <path d="M18.56,5.79l2.62,4.88c.28,.52,.42,1.05,.41,1.59,0,.54-.17,1.05-.5,1.55-.33,.49-.85,.93-1.55,1.3-1,.54-1.9,.69-2.69,.46-.8-.23-1.42-.76-1.87-1.6l-2.61-4.86,1.59-.86,2.48,4.62c.33,.62,.7,.99,1.09,1.11,.39,.11,.83,.04,1.33-.23,.35-.19,.6-.4,.75-.64,.16-.24,.22-.51,.19-.82-.03-.31-.15-.65-.36-1.04l-2.48-4.61,1.59-.86Z" style="fill: #fff;"/>
    <path d="M34.04,9.51l-2.23,.61-5.31-5.26h-.05c.09,.27,.17,.53,.26,.79s.17,.52,.25,.78l.25,.78,1.07,3.89-1.56,.43-2.27-8.26,2.21-.61,5.29,5.2h.04c-.08-.26-.16-.52-.24-.77l-.24-.75c-.08-.25-.15-.5-.23-.75l-1.08-3.91,1.58-.43,2.27,8.26Z" style="fill: #fff;"/>
    <path d="M45.95,3.97c.05,.96-.09,1.78-.43,2.45-.33,.66-.84,1.18-1.52,1.54-.68,.36-1.51,.57-2.5,.62l-2.42,.13-.46-8.55L41.31,.01c.9-.05,1.68,.07,2.36,.35,.68,.28,1.21,.72,1.61,1.33,.4,.6,.62,1.36,.67,2.28Zm-1.88,.15c-.03-.63-.16-1.15-.37-1.54-.21-.4-.49-.69-.87-.86-.37-.18-.82-.25-1.35-.22l-.97,.05,.3,5.57,.78-.04c.89-.05,1.53-.32,1.93-.81,.41-.5,.59-1.21,.54-2.14Z" style="fill: #fff;"/>
    <path d="M56.09,9.55l-.29-2.11-3.08-.49-.93,1.92-1.93-.31L54.19,.54l2.19,.35,1.65,8.97-1.93-.31Zm-.48-3.68l-.3-2.07c-.02-.14-.04-.31-.08-.53-.03-.22-.06-.44-.09-.66-.03-.23-.05-.42-.06-.59-.06,.15-.15,.34-.26,.56-.1,.22-.2,.43-.3,.63-.09,.2-.16,.34-.2,.42l-.92,1.87,2.2,.35Z" style="fill: #fff;"/>
    <path d="M69.19,9.26c-.34,.9-.8,1.59-1.38,2.06-.57,.47-1.24,.74-2.01,.8-.77,.05-1.61-.09-2.53-.44l-2.27-.86,3.04-8.01,2.51,.95c.84,.32,1.51,.75,2.02,1.28,.5,.53,.82,1.15,.93,1.86,.12,.71,.02,1.49-.31,2.35Zm-1.78-.63c.22-.59,.32-1.11,.29-1.56-.03-.45-.17-.83-.44-1.14-.27-.31-.65-.56-1.15-.75l-.9-.34-1.98,5.22,.73,.28c.83,.31,1.53,.33,2.1,.04,.57-.29,1.03-.87,1.36-1.74Z" style="fill: #fff;"/>
    <path d="M79.42,15.49c-.36,.55-.76,1.01-1.2,1.37-.43,.36-.9,.61-1.39,.75-.49,.14-1.01,.16-1.55,.06-.54-.11-1.1-.35-1.69-.74-.58-.38-1.03-.8-1.35-1.26-.31-.46-.5-.94-.57-1.45-.06-.51-.01-1.04,.15-1.58,.16-.54,.42-1.09,.79-1.65,.49-.74,1.03-1.31,1.63-1.7,.61-.39,1.26-.57,1.97-.54s1.45,.3,2.23,.81c.78,.51,1.32,1.08,1.62,1.71,.3,.63,.39,1.31,.27,2.02-.12,.71-.42,1.44-.91,2.19Zm-5.22-3.43c-.33,.5-.55,.97-.66,1.41-.11,.44-.09,.85,.05,1.22,.14,.37,.42,.69,.85,.97,.43,.28,.84,.42,1.24,.4,.4-.02,.77-.17,1.13-.45,.36-.28,.71-.67,1.04-1.17,.49-.75,.74-1.43,.74-2.05,0-.62-.32-1.13-.96-1.56-.43-.28-.84-.41-1.24-.39-.39,.02-.77,.16-1.14,.44-.36,.28-.71,.67-1.04,1.17Z" style="fill: #fff;"/>
    <path d="M87.87,17.22c.55,.55,.94,1.07,1.16,1.56,.23,.49,.29,.96,.2,1.4-.09,.44-.35,.87-.75,1.28-.28,.28-.57,.47-.88,.57-.31,.1-.63,.14-.94,.11-.31-.03-.62-.1-.91-.2l-.86,4.42-1.43-1.43,.88-3.77-.68-.68-2.32,2.32-1.28-1.28,6.06-6.06,1.76,1.77Zm-1.14,.96l-.39-.39-1.64,1.64,.41,.41c.43,.43,.8,.66,1.12,.7,.33,.04,.63-.08,.91-.35,.29-.29,.39-.59,.31-.91-.07-.32-.32-.68-.73-1.1Z" style="fill: #fff;"/>
  </g>
</svg>