<?xml version="1.0" encoding="UTF-8"?>
<svg id="Layer_1" data-name="Layer 1" xmlns="http://www.w3.org/2000/svg" viewBox="0 0 305.61 616.55">
  <g id="root">
    <path d="M168.32,459.52l2.38,65.82s.66,16.77,8.4,21.29c4.72,2.76,10.39-1.59,9.18-6.92-.85-3.75-3.91-8.55-12.36-13.4-4.27-2.45-9.12-3.71-14.04-3.74-6.85-.04-13.59,1.9-19.3,5.68-4.48,2.97-8.88,7.05-10.25,12.17-1.48,5.49,5.21,9.51,9.34,5.59,3.56-3.38,7.3-10.89,9.48-26.78,0,0,3.52-35.88,.65-55.99-.67-4.66,1.72-9.27,5.99-11.27,2.95-1.38,7.21-2.39,13.35-2.39,9.65,0,15.22,3.42,18.37,6.83,2.19,2.37,3.61,5.34,4.17,8.51,1.18,6.66,6.16,30.84,18.73,47.46,0,0,12.32,17.05,12.32,39.28s-11.24,61.51-65.91,63.88c0,0-59.86,1.08-65.26-62.15,0,0,0-27.84,16.64-42.95,0,0,15.34-14.67,20.31-50.07,0,0,1.95-15.75,19.23-16.4,17.29-.65,25.71,1.94,25.71,1.94,0,0,14.72,3.25,15.89-2.05,1.18-5.29-6.17-7.45-6.17-7.45,0,0-11.12-3.02-21.23,0-10.1,3.02-14.86,3.45-14.86,3.45,0,0-10.8,2.37-12.53-3.02-1.73-5.4,10.8-5.83,10.8-5.83h11.68c3.24,0,6.48,.19,9.7,.58,6.72,.82,19.59,1.7,20.54-3.38,1.3-6.91-10.59-7.12-10.59-7.12h-16.01s-11.65,.22-17.91,5.18c0,0-6.27,3.67-8.21-2.16-1.95-5.83,14.59-10.7,14.59-10.7,0,0,9.05-2.36,18.95-1.07,4.01,.52,7.8,2.06,11.17,4.3,1.54,1.03,3.61,1.82,5.43,.57,1.58-1.09,.49-2.72-1.16-4.17-2.12-1.87-4.76-3.05-7.55-3.51-4.79-.79-13.87-3.3-13.55-11.1l1.3-75.54s1.3-26.11,11.89-50.5c10.59-24.39,12.32-66.04,12.32-66.04,0,0-2.81-56.54-16.42-82.44,0,0-14.69-49.42-54.24-51.15-39.55-1.73-51.22,45.54-51.22,85.03,0,0,.22,75.1,24.42,116.54,0,0,21.39,44.22,58.67,41.54,37.28-2.69,54.35-36.57,54.35-36.57,0,0,16.86-24.39,15.34-49.64-1.51-25.25-13.61-47.7-45.16-33.45,0,0-22.26,11.65-42.14,33.02-19.88,21.37-32.63,31.51-51.86,31.51S8.41,220.61,1.5,162.34C-5.42,104.07,61.57,59.83,101.55,50.33c0,0,61.59-23.74,144.14-3.02,0,0,56.19,15.54,58.78,78.99,2.59,63.45-111.07,7.12-111.07,7.12l-63.97-28.92s-32.63-22.44-53.81-10.14c0,0-41.06,30.86,12.75,139.42,0,0,14.91,30.21,29.82,25.47,14.91-4.75,19.45-15.83,32.96-52.8,0,0,25.61-73.23,65.15-72.37,39.55,.86,28.31,70.79,28.31,70.79,0,0-17.07,80.28-64.83-.86l-34.14-58.92s-6.91-21.8-40.63-21.8-67.64,32.59-66.77,69.49c.86,36.9,29.39,36.04,29.39,36.04,0,0,19.23-.22,39.55-13.81,20.31-13.6,84.28-48.56,112.16-49.64,0,0,48.62,.22,62.89,81.15,0,0,6.05,67.33-36.09,70.35,0,0-31.12,2.81-25.28-128.62,0,0,16.64-172.22-105.24-187.11,0,0-55.97-5.4-54.03,54.6,1.32,40.89,37.58,56.52,60.53,62.32,8.55,2.16,17.37,3.11,26.19,2.82,26.92-.89,115.41,2.86,107.34,91.54,0,0-3.89,59.78-63.53,63.02-59.64,3.24-112.59-39.93-119.94-101.87,0,0-7.56-96.9,100.92-118.7,0,0,66.99-16.62,83.2,64.96,0,0,23.77,132.94-43.65,157.11-67.42,24.17-46.25-193.59-46.25-193.59l3.08-42.76" style="fill: none; stroke: #34509f; stroke-miterlimit: 10; stroke-width: 2px;"/>
    <path d="M166.15,39.06S21.81,11.7,12.3,171.4c0,0-1.3,150.21,124.47,157.76,0,0,149.14,1.62,153.66-145.94,0,0,3.23-196.34-178.51-125.33,0,0-74.34,26.98-76.28,96.9,0,0-.43,112.44,152.78,127.12,0,0,103.82,10.62,116.09-83.07,0,0,8.82-100.81-138.36-159.78h0Z" style="fill: none; stroke: #34509f; stroke-miterlimit: 10; stroke-width: 2px;"/>
  </g>
</svg>