<?xml version="1.0" encoding="UTF-8"?>
<svg id="Layer_1" data-name="Layer 1" xmlns="http://www.w3.org/2000/svg" viewBox="0 0 21 21">
  <g id="root">
    <path d="M10.5,6.29c-2.33,0-4.21,1.88-4.21,4.21s1.88,4.21,4.21,4.21,4.21-1.88,4.21-4.21-1.88-4.21-4.21-4.21Zm0,6.94c-1.51,0-2.73-1.23-2.73-2.73s1.23-2.73,2.73-2.73,2.73,1.23,2.73,2.73-1.23,2.73-2.73,2.73ZM14.88,5.14c-.54,0-.98,.44-.98,.98s.44,.98,.98,.98,.98-.44,.98-.98c0-.13-.03-.26-.07-.38-.05-.12-.12-.23-.21-.32-.09-.09-.2-.16-.32-.21-.12-.05-.25-.07-.38-.07Zm3.82,5.36c0-1.13,.01-2.25-.05-3.38-.06-1.31-.36-2.48-1.32-3.44-.96-.96-2.12-1.26-3.44-1.32-1.13-.06-2.25-.05-3.38-.05s-2.25-.01-3.38,.05c-1.31,.06-2.48,.36-3.44,1.32-.96,.96-1.26,2.12-1.32,3.44-.06,1.13-.05,2.25-.05,3.38s-.01,2.25,.05,3.38c.06,1.31,.36,2.48,1.32,3.44,.96,.96,2.12,1.26,3.44,1.32,1.13,.06,2.25,.05,3.38,.05s2.25,.01,3.38-.05c1.31-.06,2.48-.36,3.44-1.32,.96-.96,1.26-2.12,1.32-3.44,.07-1.13,.05-2.25,.05-3.38Zm-1.8,4.84c-.15,.37-.33,.65-.62,.94-.29,.29-.57,.47-.94,.62-1.08,.43-3.64,.33-4.84,.33s-3.76,.1-4.84-.33c-.37-.15-.65-.33-.94-.62-.29-.29-.47-.57-.62-.94-.43-1.08-.33-3.64-.33-4.84s-.1-3.76,.33-4.84c.15-.37,.33-.65,.62-.94,.29-.29,.57-.47,.94-.62,1.08-.43,3.64-.33,4.84-.33s3.76-.1,4.84,.33c.37,.15,.65,.33,.94,.62,.29,.29,.47,.57,.62,.94,.43,1.08,.33,3.64,.33,4.84s.1,3.76-.33,4.84Z" style="fill: #34509f;"/>
  </g>
</svg>