<svg width="110" height="64" viewBox="0 0 110 64" fill="none" xmlns="http://www.w3.org/2000/svg">
  <g id="root">
    <path d="M0.533586 21.8682H13.4909L13.5117 24.9683C13.5117 25.0478 13.4713 25.0876 13.3905 25.0876H4.24731C4.20964 25.0876 4.17352 25.1026 4.14688 25.1292C4.12024 25.1558 4.10528 25.192 4.10528 25.2296V30.2955C4.10528 30.3587 4.13684 30.3902 4.19997 30.3902H12.8811C12.9017 30.3902 12.9215 30.3982 12.936 30.4124C12.9506 30.4266 12.9588 30.4459 12.9588 30.466V33.4904C12.9588 33.5699 12.9196 33.6097 12.8413 33.6097H4.20565C4.17903 33.6097 4.1535 33.6203 4.13468 33.6391C4.11585 33.6579 4.10528 33.6834 4.10528 33.71L4.10717 41.8003C4.10717 41.838 4.09221 41.8741 4.06557 41.9008C4.03893 41.9274 4.00281 41.9424 3.96514 41.9424H0.611232C0.546843 41.9424 0.514648 41.9102 0.514648 41.8458L0.533586 21.8682Z" fill="black"/>
    <path d="M17.6705 21.8682H21.0187L21.0434 35.566C21.0434 35.6506 21.0011 35.6928 20.9165 35.6928H17.7501C17.6857 35.6928 17.6535 35.6607 17.6535 35.5963L17.6705 21.8682Z" fill="black"/>
    <path d="M32.5917 21.8682H34.512L42.9242 41.8098C42.9621 41.8982 42.9331 41.9424 42.8371 41.9424H40.949C40.8947 41.9424 40.8568 41.9171 40.8354 41.8666L38.7011 36.7003C38.6939 36.6824 38.6814 36.6671 38.6652 36.6563C38.649 36.6455 38.6298 36.6397 38.6102 36.6397H28.1186C28.0655 36.6397 28.0289 36.6644 28.0087 36.7136L25.8006 41.8685C25.7791 41.9177 25.7412 41.9424 25.6869 41.9424L23.9162 41.9405C23.9034 41.9405 23.8907 41.9374 23.8793 41.9314C23.868 41.9254 23.8583 41.9166 23.8512 41.9059C23.844 41.8952 23.8397 41.8829 23.8385 41.8701C23.8373 41.8573 23.8393 41.8444 23.8443 41.8325L32.5917 21.8682ZM28.8212 34.8236C28.8171 34.8333 28.8156 34.8439 28.8166 34.8543C28.8176 34.8648 28.8211 34.8749 28.8269 34.8837C28.8327 34.8925 28.8406 34.8997 28.8498 34.9047C28.859 34.9098 28.8693 34.9125 28.8799 34.9126L37.9038 34.9599C37.9145 34.9601 37.925 34.9577 37.9345 34.9527C37.944 34.9478 37.9521 34.9406 37.9581 34.9318C37.9641 34.923 37.9679 34.9128 37.9689 34.9022C37.97 34.8915 37.9685 34.8808 37.9644 34.8709L33.5083 24.0706C33.5032 24.0593 33.495 24.0497 33.4845 24.043C33.4741 24.0363 33.462 24.0327 33.4496 24.0327C33.4372 24.0327 33.4251 24.0363 33.4146 24.043C33.4042 24.0497 33.396 24.0593 33.3909 24.0706L28.8212 34.8236Z" fill="black"/>
    <path d="M46.5035 21.8682H48.3367L48.3651 40.1357C48.3651 40.2039 48.3992 40.2379 48.4674 40.2379H57.6522C57.7154 40.2379 57.7469 40.2695 57.7469 40.3326V41.8003C57.7469 41.895 57.6996 41.9424 57.6049 41.9424H46.5395C46.5249 41.9424 46.5109 41.9364 46.5006 41.9257C46.4903 41.9151 46.4846 41.9006 46.4846 41.8855L46.5035 21.8682Z" fill="black"/>
    <path d="M61.2618 21.8682H73.5241L73.5506 23.4855C73.5519 23.5435 73.5229 23.5726 73.4635 23.5726H63.2389C63.2138 23.5726 63.1897 23.5826 63.172 23.6003C63.1542 23.6181 63.1442 23.6422 63.1442 23.6673V30.6743C63.1442 30.7374 63.1758 30.769 63.2389 30.769H72.8026C72.8657 30.769 72.8973 30.8006 72.8973 30.8637V32.3314C72.8973 32.4261 72.8499 32.4734 72.7552 32.4734H63.2617C63.2305 32.4734 63.2007 32.4858 63.1786 32.5078C63.1566 32.5298 63.1442 32.5597 63.1442 32.5908V40.1433C63.1442 40.2064 63.1758 40.2379 63.2389 40.2379H73.9559C73.976 40.2379 73.9953 40.2459 74.0095 40.2601C74.0237 40.2743 74.0317 40.2936 74.0317 40.3137L74.0336 41.842C74.0336 41.8686 74.023 41.8941 74.0042 41.913C73.9853 41.9318 73.9598 41.9424 73.9332 41.9424H61.3451C61.321 41.9424 61.2979 41.9328 61.2809 41.9157C61.2638 41.8987 61.2542 41.8756 61.2542 41.8515L61.2618 21.8682Z" fill="black"/>
    <path d="M78.6847 21.8682H84.8869C88.6442 22.05 91.6761 23.8396 91.0569 28.095C90.6686 30.7709 88.5514 31.8522 86.1046 32.267C86.0301 32.2796 86.0124 32.3187 86.0516 32.3844L91.7879 41.8515C91.7931 41.8606 91.7959 41.8709 91.796 41.8814C91.796 41.892 91.7934 41.9023 91.7882 41.9115C91.783 41.9207 91.7756 41.9283 91.7666 41.9337C91.7575 41.9392 91.7472 41.9421 91.7367 41.9424H89.8372C89.795 41.9424 89.7535 41.9314 89.7166 41.9105C89.6798 41.8896 89.6489 41.8595 89.627 41.8231L84.0915 32.5605C84.0574 32.5024 84.0063 32.4734 83.9381 32.4734H80.7092C80.6145 32.4734 80.5671 32.5207 80.5671 32.6154V41.8647C80.5671 41.8848 80.5592 41.9041 80.5449 41.9183C80.5307 41.9325 80.5115 41.9405 80.4914 41.9405L78.7699 41.9424C78.7453 41.9424 78.7217 41.9328 78.7043 41.9157C78.6869 41.8987 78.6771 41.8756 78.6771 41.8515L78.6847 21.8682ZM80.5652 23.6597V30.6857C80.5652 30.7063 80.5734 30.726 80.588 30.7406C80.6025 30.7551 80.6223 30.7633 80.6429 30.7633H85.0497C86.1587 30.7633 87.2223 30.4026 88.0065 29.7604C88.7907 29.1183 89.2312 28.2474 89.2312 27.3393V27.006C89.2312 26.0979 88.7907 25.227 88.0065 24.5849C87.2223 23.9428 86.1587 23.582 85.0497 23.582H80.6429C80.6223 23.582 80.6025 23.5902 80.588 23.6048C80.5734 23.6193 80.5652 23.6391 80.5652 23.6597Z" fill="black"/>
    <path d="M93.9297 21.8682H109.459L109.485 23.4855C109.487 23.5435 109.458 23.5726 109.398 23.5726H102.725C102.699 23.5726 102.675 23.5826 102.658 23.6003C102.64 23.6181 102.63 23.6422 102.63 23.6673V41.8647C102.63 41.8848 102.622 41.9041 102.608 41.9183C102.593 41.9325 102.574 41.9405 102.554 41.9405L100.855 41.9424C100.776 41.9424 100.736 41.9032 100.736 41.8249V23.6862C100.736 23.6561 100.724 23.6272 100.703 23.6059C100.681 23.5845 100.653 23.5726 100.622 23.5726H94.0112C93.9367 23.5726 93.8963 23.536 93.89 23.4627C93.8369 22.911 93.8502 22.3795 93.9297 21.8682Z" fill="black"/>
    <path d="M19.6704 42.1317H19.0549C17.988 41.9184 17.3505 41.3534 17.1421 40.4368C16.468 37.4768 21.138 36.7306 21.602 39.6376C21.7952 40.8477 20.8521 41.9007 19.6704 42.1317Z" fill="black"/>
  </g>
</svg>
