<svg xmlns="http://www.w3.org/2000/svg" viewBox="0 0 203 32">
  <g id="root">
    <path d="M9,22.81a5,5,0,0,0,1.56-1.88,5.77,5.77,0,0,0,.62-2.54V15.23a5.77,5.77,0,0,0-.62-2.54A4.89,4.89,0,0,0,9,10.82a3.61,3.61,0,0,0-2.17-.71Q3,10.13,3,15.42v2.75q0,5.34,3.81,5.34A3.67,3.67,0,0,0,9,22.81Zm-5.86.46a6.14,6.14,0,0,1-2.3-2.59,9.64,9.64,0,0,1,0-7.78,6,6,0,0,1,2.3-2.57,6.34,6.34,0,0,1,3.42-.91,4.63,4.63,0,0,1,2.76.84,5.76,5.76,0,0,1,1.86,2.29V2.74L9.24,2.46V1.91h4.65V23.1l1.92.28v.55H11.16V21.07a5.59,5.59,0,0,1-1.85,2.29,4.63,4.63,0,0,1-2.76.84,6.24,6.24,0,0,1-3.42-.92" style="fill: currentColor"/>
    <path d="M18.73,6a2,2,0,0,1-.41-.59,1.75,1.75,0,0,1-.13-.71,1.75,1.75,0,0,1,.13-.71,1.81,1.81,0,0,1,.4-.59,1.9,1.9,0,0,1,.61-.4,1.76,1.76,0,0,1,.72-.12,1.61,1.61,0,0,1,.68.13,1.77,1.77,0,0,1,1,1,1.67,1.67,0,0,1,.12.7,1.68,1.68,0,0,1-.13.7,1.8,1.8,0,0,1-.38.6,1.67,1.67,0,0,1-.58.4,1.59,1.59,0,0,1-.68.13,1.69,1.69,0,0,1-.71-.13A1.9,1.9,0,0,1,18.73,6Zm-1.58,18v-.55l1.91-.28V10.53l-1.91-.28V9.7H21.8V23.1l1.91.28v.55Z" style="fill: currentColor"/>
    <path d="M32.56,22.54a3.94,3.94,0,0,0,1.33-1.27,4.42,4.42,0,0,0,.65-2V16.38H32.71a4.84,4.84,0,0,0-3.35,1,3.52,3.52,0,0,0-.86,1.29,3.63,3.63,0,0,0-.25,1.53A2.85,2.85,0,0,0,29,22.37,3,3,0,0,0,31,23a3.14,3.14,0,0,0,1.52-.43Zm-5.91.73A3.17,3.17,0,0,1,25.77,22a3.23,3.23,0,0,1-.24-1.5,3.78,3.78,0,0,1,2.15-3.68,11,11,0,0,1,5-1.08h1.83V13.66a6.13,6.13,0,0,0-.31-2.21,2,2,0,0,0-1-1.1A4,4,0,0,0,31.45,10a3,3,0,0,0-1.92.51,1.72,1.72,0,0,0-.47.6,1.67,1.67,0,0,0-.15.76,1,1,0,0,0,.19.66,1,1,0,0,0,.57.39,1.71,1.71,0,0,1-.52,1.21,1.82,1.82,0,0,1-.56.39,1.7,1.7,0,0,1-.67.13,1.74,1.74,0,0,1-1.23-.43,1.77,1.77,0,0,1-.37-.6,1.65,1.65,0,0,1-.09-.7,2.88,2.88,0,0,1,1.58-2.55,7.44,7.44,0,0,1,4-1c3.65,0,5.48,1.6,5.48,4.78v7.87a1.38,1.38,0,0,0,.26.92,1,1,0,0,0,.34.24,1.1,1.1,0,0,0,.4.08,1.15,1.15,0,0,0,.41-.08A1.31,1.31,0,0,0,39,23a1.27,1.27,0,0,0,.27-.86h.57a1.78,1.78,0,0,1-.14.82,1.81,1.81,0,0,1-.47.69,2.5,2.5,0,0,1-1.72.55,3.2,3.2,0,0,1-2.12-.73,2.87,2.87,0,0,1-.89-2.27,4.92,4.92,0,0,1-2,2.2,5.78,5.78,0,0,1-3,.8A4.4,4.4,0,0,1,26.65,23.27Z" style="fill: currentColor"/>
    <path d="M40.09,23.92v-.55l2-.28V2.74l-2-.27V1.92h4.79V23.09l1.91.28v.55Z" style="fill: currentColor"/>
    <path d="M58.68,22.11a6.83,6.83,0,0,0,1-3.94V15.42a6.79,6.79,0,0,0-1-3.92,3.94,3.94,0,0,0-3-1.47,3.94,3.94,0,0,0-3.05,1.47,6.69,6.69,0,0,0-1,3.92v2.75a6.83,6.83,0,0,0,1,3.94,3.9,3.9,0,0,0,1.35,1.1,3.88,3.88,0,0,0,3.39,0A4,4,0,0,0,58.68,22.11ZM52,23.27a6.75,6.75,0,0,1-2.55-2.59,7.79,7.79,0,0,1-1-3.87,7.74,7.74,0,0,1,1-3.85A6.75,6.75,0,0,1,52,10.37a7.44,7.44,0,0,1,7.17,0A6.78,6.78,0,0,1,61.77,13a7.73,7.73,0,0,1,.94,3.85,7.8,7.8,0,0,1-.94,3.87,6.78,6.78,0,0,1-2.56,2.59,7.44,7.44,0,0,1-7.17,0Z" style="fill: currentColor"/>
    <path d="M73.49,13.39a4.21,4.21,0,0,0-.7-2.6,2.55,2.55,0,0,0-.94-.71,2.52,2.52,0,0,0-1.15-.19Q68,9.89,68,13.38v1.34a4.27,4.27,0,0,0,.67,2.56,2.21,2.21,0,0,0,.9.73,2.37,2.37,0,0,0,1.14.21,2.45,2.45,0,0,0,2.09-.94,4.21,4.21,0,0,0,.7-2.56Zm4.37-3.17a4.23,4.23,0,0,1-2.51,1,5.14,5.14,0,0,1,.71,2.87A4.3,4.3,0,0,1,75.7,16a4.17,4.17,0,0,1-1.16,1.51,5.87,5.87,0,0,1-3.84,1.23A8.51,8.51,0,0,1,69,18.53c-1.17.07-1.75.53-1.75,1.37a1,1,0,0,0,.14.61,1.06,1.06,0,0,0,.45.44,4,4,0,0,0,1.87.33h3.06a5,5,0,0,1,3.3.91,3.85,3.85,0,0,1,1.08,3.1,5.38,5.38,0,0,1-.78,2.84,5.59,5.59,0,0,1-2.26,2.05,7.82,7.82,0,0,1-3.53.75A8.72,8.72,0,0,1,66,30a2.88,2.88,0,0,1-1.07-1,2.81,2.81,0,0,1-.39-1.44,2.33,2.33,0,0,1,.18-.9,2.18,2.18,0,0,1,.53-.75,2.85,2.85,0,0,1,.89-.56,2.71,2.71,0,0,1,1-.16,8.44,8.44,0,0,1,1,.12,2.81,2.81,0,0,0-.64,1,3.12,3.12,0,0,0-.22,1.17,2.92,2.92,0,0,0,.82,2.06,3.51,3.51,0,0,0,2.68.87,6.54,6.54,0,0,0,2.89-.62,4.92,4.92,0,0,0,2-1.61,3.53,3.53,0,0,0,.68-2,1.85,1.85,0,0,0-.15-.93,1.92,1.92,0,0,0-.58-.74A4.91,4.91,0,0,0,73,23.92H69.66a4.66,4.66,0,0,1-2.89-.75,2.67,2.67,0,0,1-.76-1,2.61,2.61,0,0,1-.22-1.23,2.83,2.83,0,0,1,.55-1.73,2.54,2.54,0,0,1,1.44-1c-1.58-.67-2.38-2.05-2.38-4.12a4.19,4.19,0,0,1,1.5-3.41,5.77,5.77,0,0,1,3.78-1.24,6,6,0,0,1,4.16,1.21A2.18,2.18,0,0,0,76,10.16a1.08,1.08,0,0,0,.28-.38,1.19,1.19,0,0,0,.1-.46A.9.9,0,0,0,76.32,9a.79.79,0,0,0-.2-.31.77.77,0,0,0-.57-.23,1.43,1.43,0,0,1,.12-.58A1.33,1.33,0,0,1,76,7.36,1.29,1.29,0,0,1,76.5,7a1.43,1.43,0,0,1,.58-.11,1.46,1.46,0,0,1,1.46.92,1.49,1.49,0,0,1,.09.59,2.34,2.34,0,0,1-.2,1,2.46,2.46,0,0,1-.59.83" style="fill: currentColor"/>
    <path d="M89.56,22.11a6.83,6.83,0,0,0,1-3.94V15.42a6.79,6.79,0,0,0-1-3.92,3.92,3.92,0,0,0-6.11,0,6.76,6.76,0,0,0-1,3.92v2.75a6.83,6.83,0,0,0,1,3.94,4,4,0,0,0,1.36,1.09,3.88,3.88,0,0,0,3.39,0A4,4,0,0,0,89.56,22.11Zm-6.64,1.16a6.68,6.68,0,0,1-2.55-2.59,7.81,7.81,0,0,1-1-3.87,7.74,7.74,0,0,1,1-3.85,6.68,6.68,0,0,1,2.55-2.59,7.44,7.44,0,0,1,7.17,0A6.68,6.68,0,0,1,92.64,13a7.74,7.74,0,0,1,1,3.85,7.81,7.81,0,0,1-1,3.87,6.68,6.68,0,0,1-2.55,2.59,7.44,7.44,0,0,1-7.17,0Z" style="fill: currentColor"/>
    <path d="M114.67,18.2V15.45q0-5.34-3.79-5.34a3.65,3.65,0,0,0-2.19.71,4.85,4.85,0,0,0-1.57,1.88,6.12,6.12,0,0,0-.6,2.56V18.2a6.32,6.32,0,0,0,.57,2.63,4.91,4.91,0,0,0,1.55,2,3.75,3.75,0,0,0,2.24.73C113.41,23.51,114.68,21.74,114.67,18.2Zm-12.8,13,1.92-.28V10.53l-1.92-.28V9.7h4.65v2.88a5.76,5.76,0,0,1,1.85-2.32,4.61,4.61,0,0,1,2.78-.84,6.08,6.08,0,0,1,5.71,3.51,9.66,9.66,0,0,1,0,7.79,6.12,6.12,0,0,1-2.29,2.57,6.45,6.45,0,0,1-3.42.91,4.67,4.67,0,0,1-2.78-.84,5.78,5.78,0,0,1-1.85-2.3v9.82l2.58.28v.55h-7.23Z" style="fill: currentColor"/>
    <path d="M130.17,22.11a6.76,6.76,0,0,0,1-3.94V15.42a6.79,6.79,0,0,0-1-3.92,3.86,3.86,0,0,0-1.36-1.08,3.86,3.86,0,0,0-3.38,0,3.86,3.86,0,0,0-1.36,1.08,6.84,6.84,0,0,0-1,3.92v2.75a6.84,6.84,0,0,0,1,3.94,4,4,0,0,0,1.35,1.1,3.9,3.9,0,0,0,3.4,0A3.9,3.9,0,0,0,130.17,22.11Zm-6.63,1.16A6.64,6.64,0,0,1,121,20.68a7.8,7.8,0,0,1-.94-3.87A7.73,7.73,0,0,1,121,13a6.71,6.71,0,0,1,2.56-2.59,7.43,7.43,0,0,1,7.16,0A6.71,6.71,0,0,1,133.26,13a7.73,7.73,0,0,1,.94,3.85,7.78,7.78,0,0,1-.94,3.87,6.71,6.71,0,0,1-2.56,2.59,7.43,7.43,0,0,1-7.16,0Z" style="fill: currentColor"/>
    <path d="M138.2,23.23a2.82,2.82,0,0,1-1.1-1,3,3,0,0,1-.41-1.46,1.72,1.72,0,0,1,.43-1.25,1.41,1.41,0,0,1,.52-.35,1.45,1.45,0,0,1,.62-.11,1.52,1.52,0,0,1,.92.28,1.47,1.47,0,0,1,.55.77,2,2,0,0,0-.6,1.4,1.82,1.82,0,0,0,.21.83,1.86,1.86,0,0,0,.55.66,3.17,3.17,0,0,0,2.06.63,4.75,4.75,0,0,0,2.81-.78,2.47,2.47,0,0,0,.82-.91,2.49,2.49,0,0,0,.28-1.2,1.4,1.4,0,0,0-.47-1.15,6.66,6.66,0,0,0-1.8-.87l-4.13-1.51A3.26,3.26,0,0,1,137,13.89a4.31,4.31,0,0,1,.33-1.74,4.25,4.25,0,0,1,1-1.46,5.24,5.24,0,0,1,3.7-1.25,6,6,0,0,1,3.32.9,2.81,2.81,0,0,1,1,1.08,2.75,2.75,0,0,1,.35,1.46,1.54,1.54,0,0,1-.36,1.06,1.12,1.12,0,0,1-.41.3,1.32,1.32,0,0,1-.51.1,1.42,1.42,0,0,1-.95-.32,1.08,1.08,0,0,1-.28-.39,1,1,0,0,1-.09-.48,1.53,1.53,0,0,0,.49-.58,1.8,1.8,0,0,0,.14-.76,1.62,1.62,0,0,0-.17-.72,1.55,1.55,0,0,0-.5-.55,3.54,3.54,0,0,0-2.06-.49,5.24,5.24,0,0,0-2.07.37,3.09,3.09,0,0,0-1.29,1,2.14,2.14,0,0,0-.43,1.24,1.17,1.17,0,0,0,.12.58,1.26,1.26,0,0,0,.36.47,6.84,6.84,0,0,0,1.76.86l3.84,1.38a4.59,4.59,0,0,1,2,1.37,3.6,3.6,0,0,1,.68,2.29,4.59,4.59,0,0,1-.3,1.79,4.45,4.45,0,0,1-1,1.53A5.05,5.05,0,0,1,142,24.22a6.75,6.75,0,0,1-3.74-1" style="fill: currentColor"/>
    <path d="M150.75,6a1.7,1.7,0,0,1-.41-.59,1.76,1.76,0,0,1-.14-.71,1.94,1.94,0,0,1,.13-.71,1.84,1.84,0,0,1,.41-.59,1.8,1.8,0,0,1,.61-.4,1.71,1.71,0,0,1,.71-.12,1.59,1.59,0,0,1,.68.13,1.65,1.65,0,0,1,.58.39,1.73,1.73,0,0,1,.39.6,1.68,1.68,0,0,1,.13.7,1.68,1.68,0,0,1-.13.7,1.83,1.83,0,0,1-.39.6,1.73,1.73,0,0,1-.57.4,1.63,1.63,0,0,1-.69.13A1.79,1.79,0,0,1,150.75,6Zm-1.59,18v-.55l1.92-.28V10.53l-1.92-.28V9.7h4.65V23.1l1.92.28v.55Z" style="fill: currentColor"/>
    <path d="M159.82,23.29a3.55,3.55,0,0,1-1.08-2.89V10.5l-2-.28V9.7h2V7.41l2.73-.69v3H165v.54l-3.55.28v9.85c0,1.94.69,2.91,2.08,2.91a2.37,2.37,0,0,0,.83-.14,3.52,3.52,0,0,0,.63-.27,2.9,2.9,0,0,0,.29-.19l.36.43a4.75,4.75,0,0,1-5.84.19" style="fill: currentColor"/>
    <path d="M168.15,6a1.7,1.7,0,0,1-.41-.59,1.76,1.76,0,0,1-.14-.71,1.75,1.75,0,0,1,.13-.71,1.81,1.81,0,0,1,.4-.59,1.9,1.9,0,0,1,.61-.4,1.76,1.76,0,0,1,.72-.12,1.59,1.59,0,0,1,.68.13,1.77,1.77,0,0,1,1,1,1.95,1.95,0,0,1,0,1.4,1.83,1.83,0,0,1-.39.6,1.67,1.67,0,0,1-.58.4,1.59,1.59,0,0,1-.68.13,1.69,1.69,0,0,1-.71-.13A1.75,1.75,0,0,1,168.15,6Zm-1.59,18v-.55l1.91-.28V10.53l-1.91-.28V9.7h4.65V23.1l1.92.28v.55Z" style="fill: currentColor"/>
    <path d="M180.94,24.47l-5.85-14-1.78-.28V9.67h6.81v.55l-2,.36,4.13,10.34,3.69-10-2.4-.69V9.7h4.89v.55l-1.72.66-5,13.56Z" style="fill: currentColor"/>
    <path d="M199,22.11a6.76,6.76,0,0,0,1-3.94V15.42a6.79,6.79,0,0,0-1-3.92,3.91,3.91,0,0,0-6.1,0,6.76,6.76,0,0,0-1,3.92v2.75a6.83,6.83,0,0,0,1,3.94,4,4,0,0,0,1.36,1.1,3.88,3.88,0,0,0,3.39,0A3.9,3.9,0,0,0,199,22.11Zm-6.63,1.16a6.62,6.62,0,0,1-2.58-2.59,7.8,7.8,0,0,1-.94-3.87,7.73,7.73,0,0,1,.94-3.85,6.69,6.69,0,0,1,2.58-2.59,7.44,7.44,0,0,1,7.17,0A6.75,6.75,0,0,1,202,13a7.85,7.85,0,0,1,1,3.85,7.92,7.92,0,0,1-1,3.87,6.75,6.75,0,0,1-2.55,2.59,7.44,7.44,0,0,1-7.17,0Z" style="fill: currentColor"/>
    <path d="M32.77,7a5.44,5.44,0,0,0,1.49-1.38,3,3,0,0,0,.66-1.8.57.57,0,0,0-.13-.4.41.41,0,0,0-.2-.12.45.45,0,0,0-.23,0,1.51,1.51,0,0,1-.63-.13,1.58,1.58,0,0,1-.53-.35,1.73,1.73,0,0,1-.35-.54,1.51,1.51,0,0,1-.12-.63A1.48,1.48,0,0,1,32.84,1,1.57,1.57,0,0,1,33.2.45,1.66,1.66,0,0,1,34.36,0a1.86,1.86,0,0,1,.84.17,1.77,1.77,0,0,1,.68.53,2.86,2.86,0,0,1,.56,1.83,4.84,4.84,0,0,1-.84,2.78,6.27,6.27,0,0,1-2.55,2.1Z" style="fill: currentColor"/>
  </g>
</svg>
