<?xml version="1.0" encoding="UTF-8"?>
<svg id="Layer_1" data-name="Layer 1" xmlns="http://www.w3.org/2000/svg" viewBox="0 0 320 69">
  <g id="root">
    <path d="M78.39,64.51h3.67l-1.4-3.69c-.12-.29-.26-.68-.42-1.2-.12,.41-.25,.82-.41,1.22l-1.44,3.68Zm3.92,.68h-4.18l-1.44,3.62h-.81l4.14-10.3h.45l4.07,10.3h-.81l-1.43-3.62Z" style="fill: currentColor"/>
    <path d="M88.68,68.78h-.73v-9.58h-3.34v-.68h7.4v.68h-3.34v9.58Z" style="fill: currentColor"/>
    <path d="M94.26,58.53h-.72v10.26h.72v-10.26Z" style="fill: currentColor"/>
    <path d="M99.85,68.78h-.73v-9.58h-3.34v-.68h7.4v.68h-3.34v9.58Z" style="fill: currentColor"/>
    <path d="M112.26,58.56v6.64c.03,.51-.04,1.01-.22,1.49-.18,.47-.45,.91-.8,1.27-.39,.35-.84,.61-1.33,.78-.49,.17-1.01,.24-1.53,.21-.51,.05-1.02-.01-1.51-.19s-.92-.45-1.28-.81c-.36-.36-.64-.8-.81-1.28-.17-.48-.24-.99-.19-1.5v-6.61h.72v6.64c-.04,.42,0,.85,.15,1.25,.14,.4,.37,.76,.67,1.06,.3,.3,.67,.53,1.07,.67,.4,.14,.83,.19,1.25,.15,.42,.03,.83-.03,1.22-.17,.39-.14,.75-.36,1.06-.64,.28-.3,.5-.65,.64-1.04,.14-.39,.2-.8,.17-1.21v-6.7h.72Z" style="fill: currentColor"/>
    <path d="M122.08,63.58c.08-.6,.02-1.21-.17-1.78-.19-.57-.51-1.09-.94-1.52-.43-.43-.95-.75-1.52-.95-.57-.19-1.18-.26-1.78-.18h-1.89v8.99h1.7c3.07,0,4.61-1.52,4.6-4.57Zm.78,0c0,1.72-.45,3.02-1.36,3.9-.91,.88-2.23,1.35-3.98,1.35h-2.46v-10.28h2.77c.68-.08,1.37-.01,2.02,.21,.65,.22,1.24,.59,1.72,1.08,.49,.48,.85,1.07,1.07,1.72s.29,1.34,.21,2.02" style="fill: currentColor"/>
    <path d="M130.84,68.78h-5.61v-10.26h5.61v.66h-4.89v3.88h4.62v.66h-4.62v4.4h4.89v.66Z" style="fill: currentColor"/>
    <path d="M138.84,66.14c.01,.39-.06,.78-.23,1.13-.17,.35-.41,.66-.72,.9-.73,.53-1.61,.8-2.51,.75-.98,.04-1.96-.1-2.89-.41v-.71c.9,.34,1.87,.5,2.83,.47,.71,.04,1.42-.17,2-.58,.24-.17,.43-.4,.56-.67,.13-.26,.19-.56,.19-.85,.01-.34-.07-.67-.24-.97-.21-.28-.49-.52-.81-.68-.52-.27-1.07-.5-1.63-.68-.8-.22-1.55-.62-2.18-1.17-.2-.23-.36-.49-.47-.78-.1-.29-.15-.59-.14-.9,0-.36,.07-.72,.23-1.05,.16-.33,.39-.61,.68-.83,.66-.51,1.48-.77,2.32-.73,.93,0,1.85,.18,2.71,.55l-.26,.62c-.77-.33-1.6-.51-2.45-.53-.65-.04-1.28,.15-1.81,.52-.22,.17-.4,.38-.52,.63-.12,.25-.17,.52-.16,.8-.01,.32,.06,.65,.21,.93,.16,.28,.4,.51,.68,.68,.52,.27,1.06,.5,1.61,.68,.63,.2,1.24,.47,1.81,.8,.36,.22,.66,.52,.88,.89,.19,.37,.29,.78,.28,1.2" style="fill: currentColor"/>
    <path d="M147.43,68.78h-.73v-9.58h-3.33v-.68h7.4v.68h-3.33v9.58Z" style="fill: currentColor"/>
    <path d="M153.01,63.7h1.96c.72,.05,1.44-.15,2.03-.58,.24-.21,.43-.48,.56-.77,.12-.3,.18-.62,.15-.94,.03-.32-.02-.64-.14-.93-.12-.3-.3-.56-.54-.77-.69-.41-1.49-.6-2.29-.53h-1.7l-.03,4.53Zm0,.62v4.47h-.72v-10.22h2.45c.99-.08,1.98,.15,2.83,.68,.31,.26,.55,.58,.71,.95,.16,.37,.23,.77,.2,1.17,.02,.62-.17,1.24-.54,1.74-.42,.51-1.01,.87-1.65,1.01l2.79,4.67h-.85l-2.65-4.47h-2.55Z" style="fill: currentColor"/>
    <path d="M161.88,64.51h3.68l-1.4-3.69c-.11-.29-.26-.68-.42-1.2-.12,.41-.26,.82-.41,1.22l-1.44,3.68Zm3.92,.68h-4.18l-1.44,3.62h-.79l4.13-10.3h.46l4.07,10.3h-.81l-1.44-3.62Z" style="fill: currentColor"/>
    <path d="M176.96,68.78h-.73l-6.1-9.11h-.05c.05,1.08,.09,1.9,.09,2.46v6.65h-.68v-10.22h.72l6.1,9.09h.05c-.05-.85-.07-1.64-.07-2.4v-6.69h.68v10.22Z" style="fill: currentColor"/>
    <path d="M185.54,66.14c.01,.39-.06,.78-.23,1.13-.16,.35-.41,.66-.72,.9-.73,.53-1.61,.8-2.51,.75-.98,.04-1.96-.1-2.89-.41v-.71c.9,.34,1.86,.5,2.83,.47,.73,.04,1.44-.16,2.03-.58,.24-.17,.43-.4,.56-.67s.19-.56,.19-.85c.01-.34-.07-.68-.25-.97-.21-.29-.48-.52-.8-.68-.52-.27-1.07-.5-1.63-.68-.8-.22-1.55-.62-2.18-1.17-.22-.25-.38-.54-.48-.86-.1-.31-.14-.65-.11-.98,.03-.33,.12-.65,.27-.94,.15-.29,.36-.55,.62-.77,.67-.51,1.49-.77,2.33-.73,.93,0,1.85,.18,2.71,.55l-.26,.62c-.77-.33-1.6-.51-2.45-.53-.64-.04-1.28,.15-1.81,.52-.22,.17-.4,.38-.51,.63-.12,.25-.17,.52-.16,.8-.01,.32,.06,.65,.21,.93,.17,.28,.4,.51,.68,.68,.52,.27,1.06,.5,1.61,.68,.63,.2,1.24,.47,1.81,.8,.36,.22,.66,.52,.88,.89,.19,.37,.29,.78,.28,1.2" style="fill: currentColor"/>
    <path d="M188.43,68.78h-.72v-10.26h5.63v.66h-4.91v4.34h4.64v.67h-4.64v4.58Z" style="fill: currentColor"/>
    <path d="M195.17,63.64c-.07,1.21,.27,2.4,.98,3.38,.37,.38,.81,.68,1.29,.89,.49,.21,1.01,.31,1.54,.31s1.05-.11,1.54-.31c.49-.21,.93-.51,1.29-.89,.72-.99,1.06-2.2,.98-3.42,.08-1.21-.27-2.4-.98-3.38-.35-.4-.78-.72-1.27-.92-.49-.21-1.02-.29-1.55-.26-.53-.03-1.06,.06-1.55,.27-.49,.21-.93,.52-1.27,.92-.72,.98-1.07,2.17-1,3.38v.03Zm8.41-.03c.08,1.39-.36,2.76-1.23,3.86-.44,.45-.96,.81-1.54,1.05-.58,.24-1.2,.37-1.83,.37s-1.25-.13-1.83-.37c-.58-.24-1.1-.6-1.54-1.05-.8-1.13-1.23-2.48-1.23-3.86s.43-2.73,1.23-3.86c.44-.44,.97-.8,1.54-1.04,.58-.24,1.2-.36,1.83-.36s1.25,.12,1.82,.36c.58,.24,1.1,.59,1.54,1.04,.86,1.1,1.29,2.47,1.21,3.86" style="fill: currentColor"/>
    <path d="M206.65,63.7h1.96c.72,.05,1.44-.15,2.03-.58,.24-.21,.43-.48,.56-.77,.12-.3,.18-.62,.15-.94,.03-.32-.02-.64-.13-.93s-.3-.56-.54-.77c-.69-.41-1.49-.6-2.29-.53h-1.7l-.03,4.53Zm0,.62v4.47h-.72v-10.22h2.45c.99-.08,1.98,.15,2.83,.68,.31,.26,.56,.58,.71,.95,.16,.37,.22,.77,.19,1.17,.02,.62-.17,1.24-.54,1.74-.42,.51-1.01,.87-1.65,1.01l2.79,4.67h-.86l-2.65-4.47h-2.55Z" style="fill: currentColor"/>
    <path d="M219,68.78l-3.83-9.47h-.05c.04,.58,.05,1.18,.05,1.78v7.69h-.68v-10.22h1.11l3.64,9.02h.04l3.63-9.02h1.08v10.26h-.73v-7.81c0-.54,.03-1.1,.08-1.68h-.05l-3.85,9.47h-.46Z" style="fill: currentColor"/>
    <path d="M227.94,64.51h3.68l-1.4-3.69c-.12-.29-.26-.68-.42-1.2-.12,.41-.26,.82-.41,1.22l-1.44,3.68Zm3.92,.68h-4.18l-1.44,3.62h-.79l4.14-10.3h.45l4.07,10.3h-.81l-1.44-3.62Z" style="fill: currentColor"/>
    <path d="M240.06,68.78l-3.83-9.47h-.05c.04,.58,.05,1.18,.05,1.78v7.69h-.68v-10.22h1.11l3.64,9.02h.04l3.63-9.02h1.08v10.26h-.73v-7.81c0-.54,.03-1.1,.08-1.68h-.05l-3.84,9.47h-.46Z" style="fill: currentColor"/>
    <path d="M14.15,35.67c1.04-.76,1.89-1.76,2.45-2.92,.62-1.23,.96-2.58,.98-3.95v-4.95c-.02-1.38-.35-2.74-.97-3.98-.57-1.16-1.41-2.16-2.45-2.92-1-.72-2.2-1.11-3.43-1.1-4,0-5.99,2.77-5.99,8.31v4.3c0,5.56,2,8.34,5.99,8.34,1.23,.01,2.43-.37,3.43-1.1v-.03Zm-9.25,.76c-1.57-.98-2.83-2.39-3.62-4.06-.85-1.92-1.29-3.99-1.29-6.09s.44-4.17,1.29-6.09c.79-1.66,2.05-3.06,3.62-4.02,1.63-.97,3.5-1.46,5.39-1.41,1.55-.04,3.08,.42,4.35,1.31,1.27,.92,2.28,2.16,2.93,3.59V4.3l-3.02-.43v-.87h7.33V36.15l3.02,.43v.86h-7.33v-4.48c-.64,1.43-1.65,2.67-2.93,3.59-1.27,.89-2.8,1.35-4.35,1.31-1.9,.04-3.77-.46-5.39-1.44Z" style="fill: currentColor"/>
    <path d="M29.52,9.3c-.28-.26-.5-.57-.65-.92-.15-.35-.22-.73-.21-1.11,0-.38,.06-.75,.2-1.1,.14-.35,.36-.66,.64-.93,.28-.27,.6-.48,.96-.62,.36-.14,.74-.21,1.13-.2,.37,0,.74,.06,1.08,.2,.34,.14,.65,.35,.91,.61,.27,.27,.48,.58,.62,.93s.21,.72,.2,1.1c0,.38-.06,.75-.2,1.1-.14,.35-.35,.67-.61,.93-.25,.27-.56,.48-.9,.63-.34,.14-.71,.22-1.08,.21-.38,0-.76-.06-1.12-.21-.36-.14-.68-.36-.95-.63Zm-2.5,28.11v-.86l3.02-.43V16.47l-3.02-.43v-.86h7.33v20.97l3.02,.43v.86l-10.35-.02Z" style="fill: currentColor"/>
    <path d="M51.31,35.26c.85-.49,1.57-1.19,2.09-2.03,.6-.95,.95-2.04,1.03-3.16v-4.48h-2.89c-2.36,0-4.12,.53-5.28,1.58-.59,.56-1.06,1.25-1.36,2.01-.3,.76-.43,1.58-.38,2.39,0,1.58,.37,2.71,1.12,3.38,.93,.73,2.1,1.08,3.27,.99,.84-.01,1.67-.25,2.39-.68h0Zm-9.32,1.12c-.61-.53-1.08-1.19-1.39-1.93-.31-.74-.44-1.54-.38-2.34,0-2.71,1.13-4.62,3.39-5.74,2.46-1.18,5.16-1.76,7.89-1.7h2.89v-3.33c.05-1.18-.12-2.35-.49-3.46-.27-.75-.82-1.37-1.53-1.72-.89-.37-1.84-.54-2.8-.5-1.07-.08-2.13,.2-3.02,.8-.32,.25-.58,.58-.75,.95-.17,.37-.25,.78-.24,1.18-.02,.37,.08,.74,.3,1.04,.22,.3,.54,.51,.9,.59,0,.35-.07,.71-.21,1.03-.14,.33-.35,.62-.61,.86-.25,.26-.55,.47-.88,.61-.33,.14-.69,.21-1.05,.21-.71,.03-1.41-.21-1.95-.68-.26-.27-.46-.59-.58-.94-.13-.35-.18-.72-.15-1.09,0-1.66,.83-2.99,2.5-4,1.91-1.06,4.07-1.58,6.25-1.5,5.75,0,8.62,2.49,8.62,7.48v12.3c-.04,.51,.11,1.02,.41,1.44,.14,.17,.33,.3,.53,.39,.2,.09,.43,.12,.65,.11,.22,.01,.44-.03,.64-.11,.2-.09,.38-.22,.53-.38,.31-.38,.46-.86,.43-1.35h.9c.02,.44-.05,.88-.22,1.29-.17,.41-.42,.78-.75,1.08-.76,.62-1.73,.92-2.71,.86-1.22,.04-2.4-.37-3.34-1.14-.9-.76-1.37-1.94-1.4-3.55-.67,1.45-1.78,2.65-3.17,3.44-1.44,.84-3.08,1.27-4.75,1.24-1.63,.07-3.23-.44-4.52-1.44" style="fill: currentColor"/>
    <path d="M63.19,37.42v-.86l3.23-.43V4.29l-3.23-.43v-.87h7.55V36.12l3.02,.43v.86h-10.56Z" style="fill: currentColor"/>
    <path d="M92.48,34.57c1.16-1.84,1.72-3.98,1.62-6.15v-4.3c0-2.55-.54-4.59-1.62-6.13-.58-.72-1.31-1.3-2.14-1.7-.83-.4-1.74-.61-2.67-.61s-1.83,.21-2.67,.61c-.83,.4-1.56,.98-2.14,1.7-1.08,1.54-1.62,3.58-1.61,6.13v4.3c-.11,2.17,.46,4.31,1.61,6.15,.57,.73,1.3,1.32,2.13,1.72,.83,.41,1.75,.62,2.67,.62s1.84-.21,2.67-.62c.83-.41,1.56-.99,2.13-1.72Zm-10.45,1.83c-1.69-.95-3.09-2.36-4.03-4.06-.98-1.86-1.49-3.93-1.49-6.03s.51-4.17,1.49-6.03c.94-1.7,2.34-3.1,4.03-4.06,1.73-.95,3.67-1.44,5.65-1.44s3.92,.5,5.65,1.44c1.69,.96,3.09,2.36,4.03,4.06,.98,1.86,1.48,3.93,1.48,6.03s-.51,4.17-1.48,6.03c-.94,1.7-2.34,3.1-4.03,4.06-1.73,.95-3.67,1.44-5.65,1.44s-3.92-.5-5.65-1.44Z" style="fill: currentColor"/>
    <path d="M115.83,20.94c.09-1.44-.29-2.86-1.1-4.06-.4-.48-.91-.86-1.48-1.1-.57-.25-1.2-.35-1.82-.31-2.85,0-4.27,1.82-4.27,5.46v2.11c-.08,1.41,.29,2.81,1.06,4,.37,.49,.86,.88,1.42,1.14,.56,.26,1.18,.37,1.79,.32,.63,.04,1.26-.07,1.83-.32,.57-.25,1.08-.65,1.47-1.14,.79-1.18,1.18-2.58,1.1-4v-2.1Zm6.89-4.95c-.83,.81-2.15,1.32-3.97,1.55,.81,1.34,1.2,2.9,1.12,4.47,.04,1.01-.15,2.01-.56,2.93-.41,.92-1.04,1.73-1.83,2.36-1.73,1.34-3.88,2.02-6.06,1.94-.93,0-1.85-.08-2.76-.26-1.84,.11-2.76,.83-2.76,2.15-.02,.33,.06,.66,.22,.96,.17,.29,.41,.53,.71,.68,.93,.4,1.94,.58,2.95,.51h4.83c2.32,0,4.05,.47,5.19,1.42,1.14,.95,1.71,2.57,1.7,4.86,.01,1.56-.41,3.1-1.23,4.43-.86,1.38-2.09,2.49-3.56,3.21-1.74,.84-3.65,1.26-5.59,1.21-3.25,0-5.64-.49-7.18-1.46-.7-.38-1.28-.94-1.68-1.62-.41-.68-.62-1.46-.62-2.25,0-.48,.1-.96,.29-1.41,.19-.44,.47-.84,.83-1.18,.41-.38,.89-.68,1.42-.87,.53-.19,1.09-.28,1.65-.24,.53,.03,1.07,.08,1.59,.17-.44,.45-.78,.98-1.02,1.56-.23,.58-.35,1.2-.34,1.83,0,.6,.1,1.19,.32,1.74,.22,.55,.55,1.06,.97,1.48,.86,.92,2.26,1.35,4.22,1.35,1.57,.03,3.13-.3,4.55-.97,1.23-.56,2.29-1.43,3.08-2.52,.68-.92,1.06-2.04,1.08-3.19,.04-.5-.04-1-.24-1.45-.2-.46-.52-.85-.92-1.15-.78-.53-2.16-.79-4.14-.79h-5.21c-2.03,0-3.53-.39-4.55-1.18-.52-.42-.92-.96-1.19-1.57-.27-.61-.38-1.27-.34-1.94-.01-.97,.3-1.92,.88-2.71,.55-.76,1.35-1.31,2.26-1.53-2.5-1.06-3.75-3.22-3.75-6.45-.05-1.01,.14-2.02,.55-2.94,.41-.93,1.03-1.74,1.82-2.39,1.69-1.33,3.8-2.01,5.95-1.93,3.02,0,5.21,.63,6.56,1.89,.67-.08,1.3-.36,1.81-.79,.19-.17,.34-.37,.44-.59,.1-.23,.16-.47,.16-.72,.01-.19-.01-.39-.08-.57-.07-.18-.18-.35-.31-.48-.12-.12-.26-.21-.42-.27-.15-.06-.32-.09-.49-.09,0-.31,.06-.62,.18-.9,.12-.28,.3-.54,.53-.76,.22-.23,.48-.41,.78-.53,.29-.12,.61-.18,.92-.18,.66-.02,1.29,.23,1.77,.68,.23,.22,.41,.49,.53,.79,.12,.3,.17,.61,.15,.93,0,.54-.1,1.08-.32,1.57-.21,.5-.53,.94-.93,1.31" style="fill: currentColor"/>
    <path d="M141.16,34.57c1.16-1.84,1.72-3.98,1.61-6.15v-4.3c0-2.55-.54-4.59-1.61-6.13-.58-.72-1.31-1.3-2.14-1.7-.83-.4-1.74-.61-2.67-.61s-1.83,.21-2.67,.61c-.83,.4-1.57,.98-2.14,1.7-1.08,1.54-1.61,3.58-1.61,6.13v4.3c-.11,2.17,.46,4.31,1.61,6.15,.57,.73,1.3,1.32,2.13,1.73,.83,.41,1.75,.62,2.68,.62s1.84-.21,2.68-.62c.83-.41,1.56-1,2.13-1.73Zm-10.46,1.83c-1.69-.95-3.09-2.36-4.03-4.06-.97-1.86-1.49-3.93-1.49-6.03s.51-4.17,1.49-6.03c.94-1.7,2.34-3.1,4.03-4.06,1.73-.95,3.68-1.44,5.65-1.44s3.92,.5,5.65,1.44c1.69,.96,3.09,2.36,4.03,4.06,.98,1.86,1.49,3.93,1.49,6.03s-.51,4.17-1.49,6.03c-.94,1.7-2.33,3.1-4.03,4.06-1.73,.95-3.68,1.44-5.65,1.44s-3.92-.5-5.65-1.44Z" style="fill: currentColor"/>
    <path d="M180.75,28.47v-4.3c0-5.56-2-8.34-5.99-8.35-1.24-.01-2.45,.38-3.45,1.1-1.06,.76-1.9,1.77-2.46,2.94-.61,1.25-.93,2.62-.95,4v4.6c0,1.42,.29,2.82,.89,4.11,.54,1.22,1.38,2.27,2.45,3.06,1.02,.75,2.25,1.15,3.52,1.14,4,0,5.99-2.77,5.99-8.3Zm-20.18,20.26l3.02-.43V16.47l-3.02-.43v-.86h7.33v4.52c.64-1.45,1.64-2.7,2.92-3.64,1.28-.89,2.81-1.35,4.37-1.31,1.9-.04,3.76,.46,5.39,1.44,1.57,.98,2.82,2.39,3.62,4.06,.85,1.92,1.29,3.99,1.29,6.09s-.44,4.17-1.29,6.09c-.79,1.66-2.05,3.06-3.62,4.02-1.63,.96-3.5,1.45-5.39,1.41-1.56,.04-3.09-.42-4.37-1.31-1.27-.92-2.27-2.16-2.92-3.59v15.36l4.07,.43v.86h-11.4v-.87Z" style="fill: currentColor"/>
    <path d="M205.18,34.57c1.16-1.84,1.72-3.98,1.61-6.15v-4.3c0-2.55-.54-4.59-1.61-6.13-.58-.72-1.31-1.3-2.14-1.7-.83-.4-1.74-.61-2.67-.61s-1.84,.21-2.67,.61c-.83,.4-1.56,.98-2.14,1.7-1.08,1.54-1.62,3.58-1.62,6.13v4.3c-.1,2.17,.46,4.31,1.62,6.15,.57,.73,1.3,1.32,2.13,1.72,.83,.41,1.75,.62,2.67,.62s1.84-.21,2.67-.62c.83-.41,1.56-.99,2.13-1.72Zm-10.45,1.83c-1.7-.95-3.09-2.36-4.03-4.06-.97-1.86-1.48-3.93-1.48-6.03s.51-4.17,1.48-6.03c.94-1.7,2.34-3.1,4.03-4.06,1.73-.95,3.67-1.44,5.65-1.44s3.92,.5,5.65,1.44c1.69,.96,3.08,2.36,4.03,4.06,.98,1.86,1.49,3.93,1.49,6.03s-.51,4.17-1.49,6.03c-.94,1.7-2.33,3.1-4.03,4.06-1.73,.95-3.67,1.44-5.65,1.44s-3.92-.5-5.65-1.44Z" style="fill: currentColor"/>
    <path d="M217.83,36.34c-.71-.38-1.31-.95-1.72-1.63-.42-.69-.64-1.48-.65-2.28-.04-.72,.2-1.42,.68-1.96,.23-.24,.51-.42,.82-.55,.31-.12,.64-.18,.97-.16,.52-.02,1.03,.13,1.46,.43,.41,.3,.71,.72,.86,1.21-.59,.58-.93,1.37-.95,2.19,0,.45,.12,.9,.33,1.3,.21,.4,.51,.75,.88,1.02,.93,.7,2.07,1.05,3.23,.99,1.57,.07,3.13-.36,4.44-1.23,.54-.36,.99-.85,1.29-1.42,.3-.57,.45-1.22,.44-1.87,.02-.34-.03-.68-.15-.99s-.32-.59-.58-.82c-.88-.59-1.84-1.04-2.85-1.35l-6.51-2.37c-2.56-.9-3.84-2.61-3.84-5.11-.03-.94,.15-1.87,.51-2.73,.36-.86,.91-1.64,1.6-2.28,1.41-1.31,3.35-1.96,5.82-1.95,1.84-.06,3.66,.43,5.23,1.39,.69,.41,1.25,.99,1.64,1.69,.38,.7,.57,1.49,.55,2.29,.03,.6-.17,1.2-.56,1.66-.18,.21-.41,.37-.66,.48-.25,.11-.53,.16-.8,.15-.54,.02-1.07-.15-1.49-.49-.19-.17-.35-.37-.45-.61-.1-.23-.15-.49-.14-.74,.34-.24,.6-.56,.78-.93,.15-.38,.23-.78,.22-1.18,0-.39-.09-.78-.28-1.12-.18-.34-.45-.64-.78-.85-.98-.59-2.12-.86-3.25-.78-1.11-.03-2.22,.17-3.26,.58-.8,.32-1.51,.85-2.03,1.53-.43,.56-.67,1.23-.68,1.93,0,.3,.05,.6,.17,.88,.12,.28,.31,.52,.54,.71,.86,.58,1.79,1.04,2.78,1.35l6.04,2.15c1.24,.4,2.35,1.15,3.19,2.15,.76,1.03,1.14,2.29,1.08,3.57,.03,.95-.13,1.91-.47,2.8-.34,.89-.85,1.71-1.51,2.4-1.36,1.35-3.34,2.06-6.04,2.06-2.07,.07-4.12-.45-5.91-1.5" style="fill: currentColor"/>
    <path d="M237.62,9.3c-.28-.26-.5-.57-.65-.92-.15-.35-.22-.73-.21-1.11-.01-.38,.06-.75,.21-1.1,.14-.35,.36-.66,.64-.93,.28-.26,.6-.47,.96-.61,.36-.14,.74-.2,1.12-.19,.37,0,.74,.06,1.08,.2,.34,.14,.65,.35,.91,.61,.27,.26,.48,.58,.62,.93,.14,.35,.21,.72,.2,1.1,0,.38-.07,.75-.21,1.1-.14,.35-.35,.67-.61,.93-.26,.27-.56,.48-.9,.63-.34,.14-.71,.22-1.08,.21-.38,0-.76-.07-1.12-.21-.36-.14-.68-.36-.95-.63v-.02Zm-2.5,28.13v-.86l3.02-.43V16.47l-3.02-.43v-.86h7.33v20.97l3.02,.43v.86h-10.35Z" style="fill: currentColor"/>
    <path d="M251.91,36.43c-1.14-.95-1.7-2.46-1.7-4.52v-15.49l-3.06-.43v-.86h3.06v-3.57l4.31-1.08v4.65h5.6v.86l-5.6,.43v15.4c0,3.04,1.09,4.56,3.27,4.56,.45,0,.89-.07,1.32-.22,.34-.11,.67-.25,.99-.43,.16-.09,.31-.19,.45-.3l.56,.68c-1.27,1.14-2.94,1.76-4.65,1.72-1.64,.08-3.25-.42-4.55-1.41" style="fill: currentColor"/>
    <path d="M265.04,9.3c-.28-.26-.5-.57-.65-.92s-.22-.73-.21-1.11c-.01-.38,.06-.75,.2-1.1,.14-.35,.36-.66,.64-.93,.55-.53,1.29-.81,2.05-.8,.37,0,.74,.06,1.08,.2,.34,.14,.65,.35,.91,.61,.27,.26,.48,.58,.62,.93,.14,.35,.21,.72,.2,1.1,0,.38-.07,.75-.21,1.1-.14,.35-.35,.67-.61,.93-.25,.27-.56,.48-.9,.63-.34,.14-.71,.22-1.08,.21-.38,0-.76-.07-1.12-.21-.36-.14-.68-.36-.95-.63l.03-.02Zm-2.54,28.13v-.86l3.02-.43V16.47l-3.02-.43v-.86h7.33v20.97l3.02,.43v.86h-10.35Z" style="fill: currentColor"/>
    <path d="M285.21,38.27l-9.23-21.86-2.8-.43v-.86h10.73v.86l-3.1,.56,6.51,16.17,5.82-15.62-3.79-1.08v-.86h7.72v.86l-2.72,1.03-7.93,21.21h-1.21Z" style="fill: currentColor"/>
    <path d="M313.61,34.57c1.16-1.84,1.72-3.98,1.61-6.15v-4.3c0-2.55-.54-4.59-1.61-6.13-.58-.72-1.31-1.3-2.14-1.7-.83-.4-1.74-.61-2.67-.61s-1.83,.21-2.67,.61c-.83,.4-1.56,.98-2.14,1.7-1.08,1.54-1.62,3.58-1.62,6.13v4.3c-.1,2.17,.46,4.31,1.62,6.15,.57,.73,1.3,1.32,2.13,1.72,.83,.41,1.75,.62,2.67,.62s1.84-.21,2.67-.62c.83-.41,1.56-.99,2.13-1.72Zm-10.45,1.83c-1.71-.95-3.12-2.35-4.07-4.06-.98-1.86-1.48-3.93-1.48-6.03s.51-4.17,1.48-6.03c.95-1.7,2.36-3.11,4.07-4.06,1.73-.95,3.67-1.44,5.65-1.44s3.92,.5,5.65,1.44c1.69,.96,3.09,2.36,4.03,4.06,.98,1.86,1.49,3.93,1.49,6.03s-.51,4.17-1.49,6.03c-.94,1.7-2.33,3.1-4.03,4.06-1.73,.95-3.67,1.44-5.65,1.44s-3.92-.5-5.65-1.44Z" style="fill: currentColor"/>
    <path d="M51.64,10.9c.92-.57,1.71-1.3,2.35-2.17,.65-.79,1.02-1.78,1.05-2.81,.01-.23-.06-.45-.21-.62-.09-.09-.19-.15-.31-.2-.12-.04-.24-.06-.37-.04-.34,0-.68-.07-.99-.19s-.6-.32-.84-.56c-.24-.24-.43-.52-.56-.84-.13-.31-.19-.65-.19-.99,0-.33,.05-.66,.18-.97,.13-.31,.32-.58,.57-.81,.5-.46,1.15-.7,1.82-.68,.46-.02,.91,.07,1.32,.26,.41,.19,.78,.48,1.06,.83,.62,.82,.93,1.83,.89,2.85,.01,1.55-.44,3.07-1.32,4.36-1.03,1.43-2.41,2.56-4.02,3.28l-.45-.72Z" style="fill: currentColor"/>
  </g>
</svg>