<svg width="138" height="64" viewBox="0 0 138 64" fill="none" xmlns="http://www.w3.org/2000/svg">
  <g id="root">
    <path d="M9.09569 35.0343C9.10209 35.0407 9.11076 35.0443 9.11981 35.0443H14.0966C14.1012 35.0442 14.1058 35.0451 14.11 35.0469C14.1143 35.0487 14.1181 35.0513 14.1214 35.0546L17.0882 38.0214C17.093 38.0261 17.0991 38.0293 17.1057 38.0305C17.1124 38.0317 17.1192 38.031 17.1254 38.0283C17.1316 38.0257 17.1368 38.0212 17.1405 38.0156C17.1442 38.01 17.1461 38.0033 17.1461 37.9966V29.0073C17.1461 29.0028 17.1452 28.9983 17.1435 28.9942C17.1417 28.9901 17.1392 28.9863 17.1361 28.9831C17.1329 28.98 17.1291 28.9775 17.125 28.9758C17.1209 28.974 17.1164 28.9732 17.112 28.9732H9.11981C9.11076 28.9732 9.10209 28.9768 9.09569 28.9831C9.0893 28.9895 9.0857 28.9982 9.0857 29.0073V35.0102C9.0857 35.0192 9.0893 35.0279 9.09569 35.0343Z" fill="black"/>
    <path fill-rule="evenodd" clip-rule="evenodd" d="M5.70863 20.3786C8.14878 18.5026 10.9558 17.4923 14.1296 17.3477H15.1888C18.4571 17.5171 21.3336 18.5967 23.8186 20.5863C31.1442 26.4497 31.0801 37.6721 23.7287 43.4963C18.7437 47.4458 11.7425 47.7093 6.46816 44.168C-1.8154 38.6042 -2.22255 26.4776 5.70863 20.3786ZM20.1945 29.0248C20.1945 28.9904 20.2117 28.9732 20.2462 28.9732H23.1655C23.1792 28.9732 23.1923 28.9677 23.202 28.958C23.2117 28.9483 23.2171 28.9352 23.2171 28.9215V25.9764C23.2171 25.9627 23.2117 25.9495 23.202 25.9398C23.1923 25.9301 23.1792 25.9247 23.1655 25.9247H6.09511C6.08115 25.9248 6.06767 25.9298 6.05707 25.9389C6.04647 25.948 6.03944 25.9605 6.03724 25.9743C6.03448 25.995 6.03793 26.0129 6.04757 26.028C6.05791 26.0446 6.06308 26.0625 6.06308 26.0818V38.0038C6.06308 38.0479 6.08512 38.07 6.12921 38.07L20.1191 38.0814C20.1391 38.0814 20.1583 38.0734 20.1724 38.0593C20.1866 38.0451 20.1945 38.0259 20.1945 38.0059V29.0248Z" fill="black"/>
    <path d="M91.8335 23.1583C91.8335 23.1167 91.7997 23.0829 91.758 23.0829H88.5525C88.5108 23.0829 88.477 23.1167 88.477 23.1583V40.0582C88.477 40.0999 88.5108 40.1336 88.5525 40.1336H91.758C91.7997 40.1336 91.8335 40.0999 91.8335 40.0582V23.1583Z" fill="black"/>
    <path d="M126.71 23.1893L126.709 40.1367C126.709 40.1431 126.71 40.1494 126.713 40.1553C126.715 40.1612 126.719 40.1666 126.723 40.1711C126.728 40.1756 126.734 40.1792 126.74 40.1816C126.746 40.1841 126.752 40.1853 126.759 40.1853H130.009C130.013 40.1853 130.017 40.1846 130.021 40.1833C130.022 40.1829 130.023 40.1824 130.024 40.1818C130.025 40.1817 130.025 40.1816 130.025 40.1816C130.026 40.1811 130.027 40.1806 130.028 40.18L130.029 40.1792C130.03 40.1788 130.03 40.1785 130.031 40.1781C130.031 40.178 130.031 40.1779 130.031 40.1778C130.032 40.1774 130.032 40.177 130.033 40.1765C130.034 40.1757 130.035 40.1748 130.036 40.1738C130.043 40.1664 130.047 40.1565 130.047 40.146C130.036 38.1737 130.038 36.204 130.055 34.2372C130.063 33.2606 130.181 31.8594 130.842 31.1247C131.393 30.5119 132.289 30.3011 133.067 30.4178C134.379 30.6152 134.662 31.9297 134.664 33.055C134.668 35.3794 134.668 37.7297 134.665 40.1057C134.665 40.1268 134.673 40.1471 134.688 40.162C134.703 40.1769 134.723 40.1853 134.744 40.1853H137.95C137.963 40.1853 137.975 40.1802 137.984 40.1711C137.993 40.162 137.999 40.1496 137.999 40.1367C138.001 37.4713 138.001 34.809 137.997 32.1498C137.992 29.0135 136.018 27.4107 132.936 27.7538C131.682 27.8929 130.715 28.4885 130.035 29.5405C130.03 29.5493 130.022 29.5563 130.012 29.5609C130.003 29.5654 129.992 29.5673 129.982 29.5664C129.972 29.5654 129.961 29.5617 129.953 29.5555C129.949 29.5524 129.945 29.5488 129.941 29.5448C129.938 29.5407 129.935 29.5361 129.933 29.5312C129.909 29.4747 129.899 29.4168 129.903 29.3576C130.044 27.3122 130.085 25.2589 130.027 23.1976C130.026 23.1556 130.005 23.1346 129.962 23.1346H126.765C126.75 23.1346 126.736 23.1403 126.726 23.1506C126.716 23.1609 126.71 23.1748 126.71 23.1893Z" fill="black"/>
    <path d="M40.8383 40.1791C37.5511 39.6418 35.8791 36.9953 35.503 33.8848C35.3118 32.3006 35.3769 30.6255 35.8202 29.0765C37.3651 23.6905 43.1179 22.7925 47.5573 25.0122C47.5842 25.0253 47.5921 25.046 47.5811 25.0742L46.5291 27.7228C46.5258 27.7313 46.5207 27.7391 46.5142 27.7455C46.5077 27.752 46.4999 27.757 46.4914 27.7603C46.4828 27.7636 46.4737 27.7651 46.4645 27.7647C46.4554 27.7643 46.4464 27.762 46.4382 27.7579C45.2612 27.1782 43.9736 26.6584 42.6199 26.74C39.5993 26.9229 38.8842 29.8939 38.9038 32.3595C38.9152 33.7484 39.1653 35.4483 40.1852 36.4962C41.851 38.2074 44.9842 37.3942 46.9187 36.6894C46.9284 36.6859 46.9387 36.6848 46.9489 36.6862C46.959 36.6875 46.9687 36.6913 46.9771 36.6972C46.9855 36.703 46.9924 36.7108 46.9971 36.7199C47.0019 36.729 47.0044 36.7391 47.0045 36.7493L47.0076 39.4526C47.0079 39.4745 47.0015 39.4958 46.9893 39.5138C46.9771 39.5317 46.9597 39.5454 46.9394 39.5529C44.9505 40.3107 42.9168 40.5194 40.8383 40.1791Z" fill="black"/>
    <path d="M101.635 27.9549C101.626 27.9452 101.613 27.9398 101.599 27.9398H98.2662C98.2318 27.9398 98.2146 27.9226 98.2146 27.8881V25.3822C98.2146 25.3685 98.2091 25.3553 98.1994 25.3456C98.1897 25.3359 98.1766 25.3305 98.1629 25.3305H96.1282C96.091 25.3305 96.0662 25.3481 96.0538 25.3832L95.1268 27.8757C95.1158 27.9046 95.0972 27.927 95.071 27.9429L93.3277 29.0021C93.3126 29.0112 93.3 29.0241 93.2913 29.0395C93.2827 29.0549 93.2781 29.0723 93.2781 29.0899L93.275 30.3817C93.275 30.4285 93.2984 30.4523 93.3453 30.453L94.7445 30.4654C94.7652 30.4657 94.7857 30.4703 94.8045 30.479C94.8234 30.4877 94.8402 30.5002 94.8539 30.5158C94.8677 30.5313 94.878 30.5496 94.8842 30.5694C94.8905 30.5892 94.8925 30.6101 94.8902 30.6307C94.8503 30.974 94.8632 31.368 94.8738 31.6924C94.878 31.822 94.8819 31.9405 94.8819 32.0402C94.8819 33.5669 94.8816 35.0935 94.8809 36.6202C94.8809 38.8347 95.9143 40.1615 98.1319 40.3693C99.3485 40.4843 100.532 40.3241 101.684 39.8887C101.703 39.8815 101.72 39.8684 101.732 39.8513C101.744 39.8341 101.751 39.8136 101.751 39.7926L101.779 37.3983C101.779 37.3921 101.777 37.386 101.775 37.3804C101.772 37.3749 101.768 37.37 101.763 37.3663C101.758 37.3626 101.752 37.3601 101.746 37.359C101.742 37.3582 101.738 37.3582 101.733 37.3588C101.732 37.3591 101.73 37.3595 101.728 37.3601C100.723 37.6876 98.2197 38.3139 98.2166 36.4393C98.2139 34.4545 98.2135 32.4715 98.2156 30.4902C98.2156 30.4836 98.2181 30.4773 98.2226 30.4726C98.227 30.468 98.2331 30.4654 98.2394 30.4654L101.496 30.4716C101.599 30.4716 101.651 30.4199 101.651 30.3166V27.9914C101.651 27.9777 101.645 27.9646 101.635 27.9549Z" fill="black"/>
    <path fill-rule="evenodd" clip-rule="evenodd" d="M56.1426 32.4567C56.4868 28.9391 52.502 30.1822 50.8641 30.9903C50.8571 30.9939 50.8494 30.996 50.8415 30.9965C50.8337 30.9971 50.8257 30.9961 50.8183 30.9936C50.8108 30.9911 50.8038 30.9872 50.7979 30.982C50.7919 30.9768 50.7871 30.9705 50.7835 30.9634L49.7171 28.7758C49.7019 28.7448 49.7102 28.7214 49.7419 28.7055C51.5565 27.8127 53.4965 27.4803 55.5619 27.7083C58.1743 27.9966 59.4908 29.5281 59.4928 32.1312C59.4942 34.7628 59.4915 37.3976 59.4846 40.0355C59.4846 40.0484 59.482 40.0611 59.4771 40.073C59.4722 40.0849 59.4649 40.0958 59.4558 40.1049C59.4467 40.114 59.4359 40.1212 59.424 40.1262C59.4121 40.1311 59.3993 40.1336 59.3864 40.1336H57.1905C57.1595 40.1336 57.1385 40.1192 57.1275 40.0902L56.5054 38.4844C56.5003 38.4714 56.4918 38.4601 56.4808 38.4516C56.4698 38.4431 56.4567 38.4377 56.4429 38.4361C56.429 38.4345 56.415 38.4367 56.4024 38.4425C56.3897 38.4483 56.3789 38.4574 56.371 38.4689C55.3645 39.9373 53.7442 40.4716 52.0133 40.332C49.6396 40.1398 48.415 38.535 48.5742 36.1624C48.8134 32.591 52.8413 32.5469 55.5572 32.5173C55.7395 32.5153 55.9159 32.5133 56.0848 32.5104C56.1199 32.5097 56.1392 32.4918 56.1426 32.4567ZM56.0827 34.4718L56.0632 34.4714C54.5452 34.4423 51.8034 34.3899 52.0153 36.7297C52.1352 38.0555 53.74 38.0452 54.6866 37.7104C56.0507 37.2278 56.2542 35.8792 56.1323 34.5172C56.1296 34.4869 56.113 34.4718 56.0827 34.4718Z" fill="black"/>
    <path fill-rule="evenodd" clip-rule="evenodd" d="M78.0668 40.2897C79.9124 40.5542 81.7342 40.0592 82.8524 38.4699C82.8593 38.4599 82.8688 38.4519 82.8799 38.4469C82.8862 38.444 82.893 38.4421 82.8999 38.4413C82.905 38.4407 82.9101 38.4407 82.9153 38.4413C82.9274 38.4426 82.9389 38.4473 82.9486 38.4547C82.9582 38.4621 82.9657 38.472 82.9702 38.4833L83.5943 40.082C83.6081 40.1164 83.6336 40.1336 83.6708 40.1336H85.9081C85.9171 40.1336 85.9258 40.1299 85.9322 40.1234C85.9386 40.1168 85.9422 40.1078 85.9422 40.0985C85.9449 37.4165 85.9446 34.7367 85.9411 32.0588C85.938 30.3817 85.4234 28.9256 83.8051 28.1909C81.5296 27.1565 78.5101 27.6308 76.2759 28.658C76.196 28.6952 76.1754 28.753 76.2139 28.8316L77.2587 30.9655C77.2711 30.9917 77.2907 30.9989 77.3176 30.9872C78.6124 30.3899 82.0701 29.1457 82.5702 31.4088C82.6102 31.5926 82.6136 31.8084 82.617 32.0274V32.0279C82.6191 32.1598 82.6211 32.2928 82.6312 32.4205C82.636 32.4818 82.6074 32.5128 82.5454 32.5135C82.4163 32.5149 82.2826 32.5158 82.1451 32.5168L82.1436 32.5168C79.4168 32.5361 75.1691 32.5661 75.0442 36.2574C74.9739 38.3407 75.9029 39.9797 78.0668 40.2897ZM82.6288 34.4777C82.6307 34.4827 82.6315 34.4881 82.6312 34.4935C82.6252 34.6574 82.6248 34.8264 82.6244 34.9951C82.6233 35.409 82.6222 35.8209 82.5392 36.152C82.2995 37.1027 81.5689 37.6876 80.613 37.8581C79.7708 38.009 78.6372 37.8581 78.506 36.7938C78.2315 34.5626 80.4921 34.5073 82.101 34.4679C82.273 34.4637 82.4377 34.4597 82.5909 34.4532C82.5937 34.453 82.5964 34.4532 82.5991 34.4536L82.6005 34.4538C82.6012 34.454 82.6019 34.4541 82.6026 34.4543C82.6028 34.4544 82.603 34.4544 82.6032 34.4545C82.6039 34.4547 82.6047 34.4549 82.6055 34.4552L82.6067 34.4556C82.6117 34.4575 82.6163 34.4605 82.6201 34.4643C82.6239 34.4681 82.6268 34.4727 82.6288 34.4777Z" fill="black"/>
    <path d="M65.2219 29.4144C66.1457 27.9294 68.0926 27.5016 69.7026 27.6918C72.2003 27.9863 73.305 29.6676 73.3081 32.1105C73.3115 34.7656 73.3119 37.4238 73.3091 40.0851C73.3091 40.098 73.304 40.1103 73.2949 40.1194C73.2858 40.1285 73.2734 40.1336 73.2605 40.1336H70.0044C69.9904 40.1336 69.977 40.1282 69.9671 40.1185C69.9572 40.1088 69.9517 40.0957 69.9517 40.082C69.951 37.6094 69.951 35.1379 69.9517 32.6675C69.9517 31.5907 69.5466 30.5088 68.3355 30.3589C65.9039 30.0592 65.3965 32.0785 65.3779 33.9912C65.3573 36.0249 65.3487 38.0607 65.3521 40.0985C65.3521 40.1078 65.3485 40.1168 65.3421 40.1234C65.3357 40.1299 65.327 40.1336 65.318 40.1336H62.1197C62.1056 40.1336 62.0916 40.1309 62.0786 40.1255C62.0655 40.1201 62.0537 40.1121 62.0437 40.1022C62.0337 40.0922 62.0258 40.0803 62.0204 40.0673C62.0183 40.0622 62.0166 40.057 62.0153 40.0516C62.0133 40.0433 62.0122 40.0348 62.0122 40.0262L62.0133 27.9439C62.0133 27.9366 62.0147 27.9293 62.0175 27.9226C62.0203 27.9158 62.0244 27.9096 62.0296 27.9045C62.0348 27.8993 62.0409 27.8952 62.0477 27.8924C62.0545 27.8896 62.0617 27.8881 62.0691 27.8881H64.5078C64.5478 27.8881 64.5733 27.9074 64.5843 27.946L64.9966 29.3834C65.0031 29.4067 65.0163 29.4275 65.0345 29.4434C65.0527 29.4592 65.0752 29.4694 65.0991 29.4727C65.123 29.476 65.1474 29.4723 65.1692 29.4619C65.191 29.4515 65.2093 29.435 65.2219 29.4144Z" fill="black"/>
    <path fill-rule="evenodd" clip-rule="evenodd" d="M109.343 27.7703C106.384 27.4076 103.739 28.6952 102.922 31.7054C102.584 32.9527 102.523 34.5999 102.797 35.9154C103.325 38.4596 105.133 39.9611 107.626 40.3031C109.467 40.5573 111.445 40.3713 113.156 39.5705C113.177 39.5611 113.194 39.5461 113.206 39.5273C113.218 39.5084 113.224 39.4864 113.224 39.464V37.0593C113.224 36.9753 113.186 36.9515 113.111 36.988C110.819 38.0824 106.214 39.0114 106.035 34.9699C106.034 34.932 106.052 34.913 106.089 34.913L113.82 34.9161C113.834 34.9161 113.849 34.9132 113.862 34.9075C113.876 34.9018 113.888 34.8934 113.898 34.8829C113.908 34.8724 113.916 34.86 113.922 34.8463C113.927 34.8327 113.93 34.8181 113.929 34.8035C113.916 34.1173 113.895 33.4163 113.865 32.7006C113.752 29.9518 112.061 28.1031 109.343 27.7703ZM110.74 32.6768L106.16 32.6603C106.153 32.6603 106.145 32.6572 106.14 32.6518C106.134 32.6464 106.131 32.639 106.131 32.6313V32.4877C106.132 32.1735 106.189 31.8626 106.299 31.5727C106.408 31.2828 106.568 31.0196 106.77 30.7981C106.971 30.5767 107.21 30.4012 107.472 30.2819C107.735 30.1626 108.016 30.1017 108.299 30.1026L108.618 30.1047C109.19 30.1067 109.739 30.3606 110.142 30.8106C110.546 31.2606 110.771 31.8698 110.769 32.5042V32.6479C110.769 32.6555 110.766 32.6629 110.761 32.6683C110.755 32.6737 110.748 32.6768 110.74 32.6768Z" fill="black"/>
    <path d="M115.346 35.595C114.945 32.3998 115.784 28.6673 119.472 27.9108C121.395 27.5168 123.249 27.7176 125.035 28.5133C125.073 28.5298 125.084 28.5574 125.07 28.596L124.121 31.0833C124.119 31.0909 124.114 31.0979 124.109 31.1038C124.103 31.1097 124.096 31.1144 124.089 31.1177C124.083 31.1201 124.078 31.1216 124.072 31.1224C124.07 31.1227 124.067 31.1228 124.065 31.1229C124.062 31.1229 124.06 31.1228 124.057 31.1225C124.057 31.1225 124.056 31.1224 124.056 31.1224C124.055 31.1223 124.055 31.1222 124.054 31.1221L124.052 31.1217C124.048 31.121 124.044 31.1199 124.041 31.1185C122.89 30.6503 121.256 30.0479 120.055 30.6875C118.556 31.4863 118.546 34.0026 118.794 35.4245C119.047 36.8775 119.846 37.6876 121.362 37.6856C122.55 37.6842 123.641 37.3435 124.635 36.6636C124.637 36.6621 124.639 36.6609 124.641 36.6599C124.644 36.6589 124.646 36.6581 124.648 36.6575C124.649 36.6571 124.651 36.6568 124.652 36.6566C124.654 36.6563 124.655 36.6562 124.657 36.6561C124.665 36.6557 124.672 36.6574 124.679 36.6611C124.686 36.6648 124.692 36.6703 124.696 36.6771C124.701 36.6839 124.703 36.6917 124.703 36.6997L124.727 39.3782C124.727 39.4083 124.72 39.4381 124.705 39.4646C124.691 39.4912 124.67 39.5137 124.644 39.5301C122.978 40.5883 120.095 40.6875 118.315 39.9487C116.456 39.1778 115.586 37.5099 115.346 35.595Z" fill="black"/>
  </g>
</svg>
