<svg width="49" height="64" viewBox="0 0 49 64" fill="none" xmlns="http://www.w3.org/2000/svg">
  <g id="root">
    <path fill-rule="evenodd" clip-rule="evenodd" d="M40.2549 17.9658C46.6253 22.7593 45.9855 34.0543 38.8422 43.1952C31.6892 52.3478 20.7346 55.8949 14.3642 51.1015C7.99574 46.308 8.62378 35.0228 15.7768 25.8702C22.9299 16.7195 33.8746 13.1841 40.2549 17.9658ZM22.4348 32.0761C22.4348 32.0761 22.4758 31.9509 22.5072 31.8687L22.7341 31.1781C23.0237 30.1176 23.8258 28.4174 24.6104 27.4881C24.6124 27.4861 24.6178 27.48 24.6262 27.4703C24.7412 27.3384 25.4407 26.5361 26.383 26.2007C26.383 26.2007 27.0111 25.9855 27.5882 25.7566V25.7468H27.598C28.9695 25.2831 30.0417 24.3361 30.3919 23.2737C30.5876 22.6653 30.5367 22.0979 30.2374 21.6146C29.7932 20.8927 28.9069 20.4603 27.7839 20.4094C25.753 20.3155 23.6615 21.552 23.1352 23.1603C22.92 23.8 22.9904 24.4066 23.3426 24.9113H23.3524V24.9231C23.5285 25.2107 23.7143 25.469 23.8982 25.6548L23.908 25.6646L23.9198 25.6744C23.9224 25.6792 23.9274 25.6868 23.9342 25.6971C24.0021 25.8003 24.2488 26.1756 24.135 26.7466C23.9706 27.5722 23.1254 28.3548 21.6208 29.065L21.6082 29.0705C21.4677 29.1318 20.3139 29.6349 18.9522 29.9103H18.9306L18.9208 29.922C18.8993 29.922 18.2713 30.0042 17.9308 30.7359L17.653 31.5909L17.4887 32.0644L13.6852 43.6176C13.4269 44.4022 13.4269 45.0107 13.6852 45.4216C14.0041 45.9479 14.7045 46.0926 15.2406 46.1122C16.8587 46.1846 18.0952 45.2787 18.6313 43.6294L22.4348 32.0761ZM34.4106 44.1439L34.4419 44.1342L34.4498 44.1291C34.6249 44.0187 37.5801 42.1544 38.5761 38.8574C38.7815 38.1766 38.7717 37.5798 38.5448 37.2276C38.308 36.8383 37.813 36.7542 37.4315 36.7346L33.5654 36.5585C32.2878 36.4979 31.7517 37.5172 31.5561 38.1355C31.4426 38.4661 31.4426 38.7439 31.5463 38.9083C31.6598 39.0942 31.8867 39.1353 32.01 39.1353L33.4734 39.2076L34.7824 39.2703L34.0604 40.4657C32.9374 42.2989 31.3408 43.1853 29.2884 43.0933C27.8974 43.0326 26.9191 42.5474 26.3732 41.6611C25.6611 40.5068 25.7335 38.8359 26.5787 36.2494C28.4237 30.6322 31.5561 30.1587 32.8239 30.2213C34.6297 30.3026 35.2426 31.4217 35.6553 32.1749L35.6687 32.1994C35.9993 32.8274 36.1226 33.0231 36.5863 33.0446C38.1848 33.117 39.3684 31.7866 39.6678 30.869C39.8321 30.3759 39.8439 29.5816 39.39 28.84C38.8637 27.9733 37.5234 26.9011 34.215 26.7583C32.0198 26.6546 29.578 27.3961 27.5158 28.7872C24.9919 30.4874 23.0843 33.1268 22.0024 36.4039C20.9204 39.6929 20.9204 42.2266 21.9926 43.9483C23.2604 45.9596 25.6826 46.3098 27.0111 46.3392C31.0611 46.4429 34.3598 44.185 34.4008 44.1557H34.3911L34.4106 44.1439Z" fill="black"/>
    <path fill-rule="evenodd" clip-rule="evenodd" d="M41.5952 10.2569C50.6637 17.0891 50.427 32.3539 41.0494 44.3493C31.6796 56.3682 16.7259 60.563 7.65545 53.7387C-1.42476 46.9065 -1.18802 31.6515 8.19154 19.6463C17.5711 7.63716 32.515 3.4326 41.5952 10.2569ZM41.6263 13.2446C49.3663 19.0692 48.6952 32.6826 40.1315 43.6391C31.5678 54.6054 18.3633 58.7787 10.635 52.9678C2.89307 47.1433 3.56415 33.5396 12.1278 22.5733C20.6935 11.607 33.8961 7.43177 41.6263 13.2446Z" fill="black"/>
  </g>
</svg>
