<svg xmlns="http://www.w3.org/2000/svg" fill="none" viewBox="0 0 93 64">
    <g id="root">
        <g fill="#000" fill-rule="evenodd" clip-path="url(#a)" clip-rule="evenodd">
            <path
                d="M59.84 39.78a6.8 6.8 0 1 1 0-13.6 6.8 6.8 0 0 1 0 13.6Zm-34-2.58c.74.48 1.11 1.1 1.09 1.98-.02 1.02-.7 2.14-2.91 2.09-2.05-.05-3.93-2.02-4.73-3.86h-5.34v3.26h-3.77V25.4h2.95c.05 0-.36 1.25-.32 2.51.07 2.05.81 4.07 2.56 5.26 4.77 3.26 7.68 2.23 10.47 4.03Zm34-17.2c-2.56 0-4.97.72-6.98 2v-1.82H27.17v1.49s-.63-.63-3.17-1.4c-3.67-1.11-8.36-.19-10.71 4.77v-4.86H1v5.21h2.84v15.27H1v5.21h17.87v-1.23c2 1.35 4.3 1.84 7.17 1.72 5.07-.21 7.67-3.87 7.59-7.94-.09-4.65-5.18-6.4-7.08-7.05-2.38-.93-4.63-.98-6.31-2.61-.69-.67-.74-1.33-.47-1.98.39-.91 1.62-1.5 2.86-1.4 1.07.09 3.35 1.23 4.33 4h6.33v-4h3.63v15.14h-2.84v5.42H46.3v-5.42h-3.23V25.38h3.77v7.59a12.99 12.99 0 1 0 12.99-12.99l.01.02Z" />
            <path
                d="M92.01 29.73v-9.54H84.4l2-3.07h-4.38l-1.98 3.07h-9.03v5.07h2.79V40.6h-2.79v5.28H92v-9.45h-6.14v4.17h-5.82v-4.63h4v-5.84h-4v-4.86h5.82v4.47H92l.01-.01Z" />
        </g>
        <defs>
            <clipPath id="a">
                <path fill="#fff" d="M0 0h92v64H0z" transform="translate(.5)" />
            </clipPath>
        </defs>
    </g>
</svg>