<svg viewBox="0 0 360 64" fill="none" xmlns="http://www.w3.org/2000/svg">
  <g id="root">
    <path d="M107.41 47.7398C104.75 48.4098 102.11 48.9198 99.71 49.2198C101.76 48.1398 103.85 46.9898 105.88 45.7998C106.36 46.4198 106.84 47.0198 107.41 47.7398Z" fill="#FF6200"/>
    <path d="M105.88 45.8002C103.85 46.9902 101.76 48.1402 99.71 49.2202H99.7C96.04 49.6602 92.92 49.6102 91.09 48.8302C89.37 48.0902 88.12 46.3302 87.02 44.0102C92.61 43.5802 98.27 42.9602 103.13 42.2002C103.19 42.2802 103.24 42.3502 103.3 42.4202L105.88 45.8002Z" fill="#FF8000"/>
    <path d="M103.12 42.1901H103.13C98.2699 42.9601 92.6099 43.5801 87.0199 44.0101C86.7499 43.4401 86.4899 42.8401 86.2299 42.2101C83.2199 34.8401 82.2499 24.3801 84.8799 20.7601C87.0399 17.7901 95.4199 15.6601 103.86 14.8501C90.8199 16.4901 93.2799 24.0701 95.5999 29.6001C96.8899 32.7001 98.3599 35.5401 101.62 40.1201C101.99 40.6401 102.37 41.1801 102.8 41.7401C102.9 41.8901 103.01 42.0401 103.12 42.1901Z" fill="#B3FA1B"/>
    <path d="M125.57 20.7399C123.8 20.6699 122.14 20.6299 120.6 20.6199C120.43 18.9899 120.19 17.2299 119.88 15.3599C120.81 15.5999 121.61 15.8899 122.25 16.2299C123.66 16.9999 124.73 18.7899 125.43 20.4499C125.48 20.5499 125.52 20.6399 125.57 20.7399Z" fill="#BF0474"/>
    <path d="M120.6 20.62C118.78 20.61 117.12 20.63 115.59 20.68C115.49 20.51 115.4 20.34 115.3 20.18C114.15 18.22 112.9 16.33 111.56 14.5C114.79 14.53 117.71 14.8 119.89 15.36C120.2 17.23 120.44 18.99 120.61 20.62H120.6Z" fill="#8529FE"/>
    <path d="M98.0999 29.33C98.0999 33.6 100.6 38.72 103.13 42.19C103.02 42.04 102.91 41.89 102.8 41.74C102.37 41.18 101.99 40.64 101.62 40.12C98.3599 35.54 96.8899 32.7 95.5999 29.6C93.2799 24.07 90.8199 16.49 103.86 14.85C106.42 14.6 108.98 14.5 111.55 14.5C112.89 16.33 114.14 18.22 115.29 20.18C115.39 20.34 115.48 20.51 115.58 20.68C110.38 20.86 106.7 21.38 104.09 22.01C99.6799 23.08 98.0999 25.94 98.0999 29.33Z" fill="#84D600"/>
    <path d="M126.97 38.5901C125.07 41.7701 116.11 45.5701 107.41 47.7401C106.84 47.0201 106.36 46.4201 105.88 45.8001C110.31 43.2001 114.42 40.4201 116.95 37.8501C117.04 37.7701 117.12 37.6801 117.2 37.6001L117.22 37.5801C117.32 37.4801 117.41 37.3801 117.5 37.2701C120.48 33.9701 121.41 28.7101 120.6 20.6201C122.14 20.6301 123.8 20.6701 125.57 20.7401C128.01 26.1601 128.54 35.9801 126.97 38.5901Z" fill="#E22B1A"/>
    <path d="M116.95 37.8501C114.42 40.4201 110.31 43.2001 105.88 45.8001L103.3 42.4201C103.24 42.3501 103.19 42.2801 103.13 42.2001C109.3 41.2301 114.17 40.0301 115.93 38.7201C116.16 38.5401 116.38 38.3601 116.6 38.1701C116.62 38.1501 116.64 38.1401 116.66 38.1201C116.76 38.0301 116.86 37.9401 116.95 37.8501Z" fill="#C20419"/>
    <path d="M117.5 37.2702C117.41 37.3802 117.32 37.4802 117.22 37.5802C120.69 33.9002 118.35 25.7102 115.58 20.6802C117.11 20.6302 118.77 20.6102 120.59 20.6202C121.4 28.7102 120.47 33.9702 117.49 37.2702H117.5Z" fill="#B820FF"/>
    <path d="M28.68 29.3902C27.92 27.9902 26.85 26.8802 25.5 26.0902C24.15 25.3002 22.59 24.9002 20.86 24.9002C19.04 24.9002 17.37 25.3402 15.89 26.1902C14.43 27.0502 13.24 28.2302 12.38 29.7002C11.52 31.1702 11.09 32.8502 11.09 34.6902C11.09 36.5302 11.53 38.2602 12.4 39.7302C13.28 41.2002 14.48 42.3802 15.98 43.2402C17.47 44.0902 19.19 44.5302 21.1 44.5302C22.58 44.5302 23.99 44.2502 25.29 43.6902C26.59 43.1402 27.72 42.3302 28.64 41.2702L28.72 41.1902L26.26 38.7002L26.17 38.8002C25.56 39.5102 24.81 40.0502 23.95 40.4102C23.09 40.7702 22.13 40.9502 21.1 40.9502C19.87 40.9502 18.76 40.6802 17.81 40.1602C16.87 39.6402 16.13 38.8902 15.62 37.9402C15.33 37.4002 15.12 36.8002 14.99 36.1502H29.6L29.62 36.0502C29.7 35.6802 29.76 35.3402 29.78 35.0302C29.81 34.7302 29.82 34.4402 29.82 34.1802C29.82 32.4002 29.44 30.7802 28.68 29.3902ZM15 32.9702C15.12 32.3602 15.32 31.8002 15.58 31.3102C16.07 30.4002 16.76 29.6802 17.66 29.1702C18.55 28.6602 19.61 28.4002 20.79 28.4002C21.97 28.4002 22.89 28.6402 23.68 29.1102C24.47 29.5802 25.09 30.2502 25.52 31.0902C25.79 31.6202 25.98 32.2502 26.08 32.9702H15ZM69.05 25.3002V27.6102C68.42 26.8602 67.67 26.2502 66.81 25.8002C65.68 25.2002 64.38 24.9002 62.95 24.9002C61.2 24.9002 59.6 25.3402 58.21 26.2202C56.82 27.0802 55.71 28.2702 54.9 29.7502C54.09 31.2202 53.68 32.9002 53.68 34.7402C53.68 36.5802 54.09 38.2602 54.9 39.7302C55.7 41.2002 56.82 42.3902 58.21 43.2402C59.6 44.1002 61.2 44.5302 62.95 44.5302C64.38 44.5302 65.68 44.2302 66.83 43.6302C67.69 43.1902 68.43 42.5802 69.05 41.8402V44.1402H72.88V25.3002H69.05ZM67.7 39.2102C66.66 40.3702 65.25 40.9502 63.54 40.9502C62.38 40.9502 61.35 40.6802 60.45 40.1502C59.55 39.6102 58.85 38.8702 58.35 37.9402C57.85 37.0102 57.59 35.9202 57.59 34.7002C57.59 33.4802 57.85 32.4202 58.35 31.4902C58.85 30.5602 59.55 29.8202 60.43 29.2802C61.31 28.7502 62.34 28.4802 63.5 28.4802C64.66 28.4802 65.67 28.7402 66.53 29.2602C67.38 29.7902 68.06 30.5202 68.55 31.4602C69.04 32.4102 69.28 33.5102 69.28 34.7402C69.28 36.5502 68.75 38.0502 67.7 39.2102ZM41.73 24.9802C41.35 24.9302 41.02 24.9002 40.7 24.9002C38.59 24.9002 36.95 25.6302 35.83 27.0702C35.8 27.1002 35.77 27.1502 35.74 27.1902V25.3002H31.94V44.1402H35.74V33.4502C35.74 31.7702 36.15 30.5002 36.96 29.7002C37.78 28.8902 38.83 28.4802 40.11 28.4802C40.69 28.4802 41.22 28.5602 41.67 28.7302L41.83 28.7902V24.9902H41.73V24.9802ZM53.97 24.9802C53.59 24.9302 53.26 24.9002 52.94 24.9002C50.83 24.9002 49.19 25.6302 48.07 27.0702C48.04 27.1002 48.01 27.1502 47.98 27.1902V25.3002H44.18V44.1402H47.98V33.4502C47.98 31.7702 48.39 30.5002 49.2 29.7002C50.02 28.8902 51.08 28.4802 52.35 28.4802C52.93 28.4802 53.46 28.5602 53.91 28.7302L54.08 28.7902V24.9902H53.97V24.9802ZM4.16 33.5102V29.2502H8.32V25.2702H4.16V18.9102H0V33.5102C0 36.8602 0.87 39.6602 2.53 41.6002C4.14 43.4902 6.44 44.5302 9.02 44.5302V40.4002C5.97 40.4002 4.16 37.8202 4.16 33.5102Z" fill="#FF8000"/>
    <line x1="152.36" y1="14" x2="152.36" y2="49" stroke="black"/>
    <path d="M332.907 29.4665C333.545 31.2855 335.323 31.7897 337.145 32.3065C339.331 32.9267 341.582 33.565 342.003 36.5159C342.947 43.1355 333.584 44.2806 330.544 39.8409C330.476 39.742 330.491 39.6583 330.59 39.5898L331.944 38.6616C332.046 38.5931 332.133 38.6083 332.207 38.7072C333.825 40.8985 335.886 41.4514 338.389 40.3659C340.246 39.5594 340.85 36.8317 339.447 35.3632C339.102 35.0031 338.459 34.6442 337.518 34.2866C337.091 34.1247 336.656 33.9741 336.223 33.8242C333.307 32.8151 330.494 31.8414 330.997 27.7241C331.594 22.8165 338.925 22.1317 341.657 25.5556C341.676 25.5798 341.69 25.6077 341.698 25.6376C341.706 25.6675 341.708 25.6987 341.704 25.7295C341.7 25.7604 341.689 25.7901 341.673 25.8171C341.657 25.844 341.636 25.8677 341.611 25.8866L340.478 26.7273C340.376 26.8034 340.282 26.7958 340.196 26.7045C338.507 24.9266 336.635 24.5525 334.581 25.5822C333.067 26.3431 332.352 27.8839 332.907 29.4665Z" fill="black"/>
    <path fill-rule="evenodd" clip-rule="evenodd" d="M207.805 38.2583C205.458 34.5909 205.96 29.0404 209.121 26.0349C212.074 23.2311 216.791 22.7518 220.557 24.3078C225.48 26.3393 226.983 32.2741 225.176 36.9154C222.497 43.8051 211.735 44.4061 207.805 38.2583ZM216.156 38.7642C217.642 38.7564 219.064 38.1373 220.109 37.0431C221.154 35.9489 221.737 34.4692 221.729 32.9295C221.725 32.1672 221.576 31.413 221.291 30.7101C221.005 30.0073 220.589 29.3695 220.066 28.8331C219.543 28.2968 218.923 27.8724 218.242 27.5842C217.56 27.296 216.831 27.1496 216.095 27.1535C214.609 27.1613 213.186 27.7804 212.141 28.8746C211.096 29.9688 210.513 31.4485 210.521 32.9882C210.525 33.7506 210.674 34.5047 210.96 35.2076C211.245 35.9104 211.661 36.5483 212.184 37.0846C212.707 37.621 213.327 38.0454 214.009 38.3335C214.69 38.6217 215.42 38.7681 216.156 38.7642Z" fill="#FD7228"/>
    <path d="M199.614 28.8478C199.628 28.8631 199.636 28.8825 199.637 28.903V41.796C199.637 41.9228 199.7 41.9862 199.827 41.9862L203.609 41.9824C203.64 41.9824 203.67 41.9704 203.692 41.9489C203.714 41.9275 203.727 41.8985 203.727 41.8682V24.1552C203.727 23.9954 203.648 23.9155 203.491 23.9155H197.841C197.709 23.9155 197.621 23.9789 197.575 24.1057L193.71 35.0204C193.57 35.4186 193.43 35.4186 193.288 35.0204L189.438 24.1057C189.394 23.9789 189.304 23.9155 189.167 23.9155H183.514C183.357 23.9155 183.278 23.9954 183.278 24.1552V41.7465C183.278 41.9063 183.357 41.9862 183.514 41.9862H187.178C187.307 41.9862 187.372 41.9215 187.372 41.7922L187.36 29.0742C187.359 29.0487 187.366 29.0235 187.382 29.0033C187.398 28.9832 187.42 28.9697 187.446 28.9654C187.471 28.9611 187.497 28.9664 187.518 28.9802C187.54 28.994 187.555 29.0153 187.562 29.04L191.747 41.7465C191.798 41.9063 191.907 41.9862 192.074 41.9862H194.748C194.908 41.9862 195.015 41.9101 195.068 41.7579L199.462 28.8726C199.47 28.8537 199.484 28.8382 199.502 28.8284C199.52 28.8186 199.541 28.8152 199.562 28.8187C199.582 28.8222 199.6 28.8325 199.614 28.8478Z" fill="#FD7228"/>
    <path d="M232.571 29.5279C232.555 29.5483 232.546 29.5732 232.545 29.5992V41.8644C232.545 41.8967 232.532 41.9277 232.509 41.9505C232.486 41.9734 232.455 41.9862 232.423 41.9862H228.672C228.64 41.9862 228.609 41.9734 228.586 41.9505C228.563 41.9277 228.55 41.8967 228.55 41.8644V24.0373C228.55 24.005 228.563 23.974 228.586 23.9512C228.609 23.9284 228.64 23.9155 228.672 23.9155H233.964C233.984 23.9156 234.005 23.9209 234.023 23.9308C234.041 23.9408 234.056 23.9552 234.067 23.9726L241.451 36.0172C241.465 36.0391 241.485 36.056 241.51 36.0654C241.534 36.0748 241.56 36.0762 241.585 36.0694C241.611 36.0626 241.633 36.048 241.649 36.0276C241.665 36.0073 241.674 35.9823 241.675 35.9563V24.0373C241.675 24.005 241.688 23.974 241.711 23.9512C241.734 23.9284 241.765 23.9155 241.797 23.9155H245.548C245.58 23.9155 245.611 23.9284 245.634 23.9512C245.657 23.974 245.67 24.005 245.67 24.0373V41.8644C245.67 41.8967 245.657 41.9277 245.634 41.9505C245.611 41.9734 245.58 41.9862 245.548 41.9862H240.466C240.445 41.9861 240.425 41.9808 240.407 41.9709C240.389 41.9609 240.374 41.9465 240.363 41.9291L232.769 29.5384C232.755 29.5164 232.735 29.4995 232.711 29.4901C232.686 29.4807 232.66 29.4793 232.635 29.4861C232.61 29.4929 232.587 29.5075 232.571 29.5279Z" fill="#FD7228"/>
    <path d="M253.532 38.2134C253.492 38.1728 253.469 38.1176 253.469 38.0601V34.8797C253.469 34.8221 253.492 34.767 253.532 34.7263C253.573 34.6857 253.628 34.6628 253.686 34.6628H261.146C261.203 34.6628 261.259 34.64 261.299 34.5993C261.34 34.5586 261.363 34.5035 261.363 34.446V31.1704C261.363 31.1129 261.34 31.0578 261.299 31.0171C261.259 30.9764 261.203 30.9536 261.146 30.9536H253.686C253.628 30.9536 253.573 30.9307 253.532 30.8901C253.492 30.8494 253.469 30.7942 253.469 30.7367V27.8416C253.469 27.7841 253.492 27.7289 253.532 27.6883C253.573 27.6476 253.628 27.6248 253.686 27.6248H261.621C261.679 27.6248 261.734 27.6019 261.775 27.5613C261.815 27.5206 261.838 27.4654 261.838 27.4079V24.1324C261.838 24.0749 261.815 24.0197 261.775 23.979C261.734 23.9384 261.679 23.9155 261.621 23.9155H249.691C249.633 23.9155 249.578 23.9384 249.538 23.979C249.497 24.0197 249.474 24.0749 249.474 24.1324V41.7693C249.474 41.8268 249.497 41.882 249.538 41.9227C249.578 41.9633 249.633 41.9862 249.691 41.9862H262.002C262.059 41.9862 262.115 41.9633 262.155 41.9227C262.196 41.882 262.219 41.8268 262.219 41.7693V38.4938C262.219 38.4363 262.196 38.3811 262.155 38.3405C262.115 38.2998 262.059 38.2769 262.002 38.2769H253.686C253.628 38.2769 253.573 38.2541 253.532 38.2134Z" fill="#FD7228"/>
    <path d="M271.954 30.3639L275.773 23.9802C275.785 23.9605 275.802 23.9442 275.822 23.9328C275.842 23.9215 275.865 23.9155 275.888 23.9155H280.434C280.458 23.9158 280.481 23.9224 280.501 23.9348C280.522 23.9471 280.538 23.9647 280.55 23.9857C280.561 24.0067 280.566 24.0303 280.565 24.0541C280.564 24.0779 280.557 24.101 280.544 24.121L273.845 34.3471C273.83 34.3684 273.822 34.3935 273.822 34.4193V41.853C273.822 41.8705 273.818 41.8878 273.812 41.904C273.805 41.9201 273.795 41.9348 273.783 41.9472C273.77 41.9595 273.756 41.9694 273.74 41.976C273.724 41.9827 273.706 41.9862 273.689 41.9862H269.96C269.925 41.9862 269.891 41.9722 269.866 41.9472C269.841 41.9222 269.827 41.8883 269.827 41.853V34.4384C269.827 34.4126 269.819 34.3874 269.804 34.3661L263.094 24.121C263.081 24.101 263.073 24.0779 263.072 24.0541C263.071 24.0303 263.077 24.0067 263.088 23.9857C263.099 23.9647 263.116 23.9471 263.136 23.9348C263.157 23.9224 263.18 23.9158 263.204 23.9155H267.982C268.006 23.9159 268.028 23.9225 268.048 23.9345C268.068 23.9465 268.085 23.9636 268.096 23.984L271.722 30.3639C271.733 30.3845 271.75 30.4016 271.771 30.4135C271.791 30.4255 271.814 30.4317 271.838 30.4317C271.862 30.4317 271.885 30.4255 271.905 30.4135C271.925 30.4016 271.942 30.3845 271.954 30.3639Z" fill="#FD7228"/>
    <path d="M297.433 31.8182C297.419 31.8125 297.405 31.8096 297.39 31.8096H289.153C289.123 31.8096 289.094 31.7975 289.072 31.7761C289.051 31.7547 289.039 31.7257 289.039 31.6954V25.6465C289.039 25.6162 289.051 25.5872 289.072 25.5658C289.094 25.5444 289.123 25.5324 289.153 25.5324H297.96C297.975 25.5324 297.99 25.5294 298.004 25.5237C298.018 25.518 298.03 25.5095 298.041 25.4989C298.051 25.4883 298.06 25.4758 298.066 25.4619C298.071 25.4481 298.074 25.4332 298.074 25.4182V24.0297C298.074 24.0147 298.071 23.9998 298.066 23.986C298.06 23.9721 298.051 23.9596 298.041 23.949C298.03 23.9384 298.018 23.93 298.004 23.9242C297.99 23.9185 297.975 23.9155 297.96 23.9155H287.346C287.316 23.9155 287.287 23.9276 287.265 23.949C287.244 23.9704 287.232 23.9994 287.232 24.0297V41.8721C287.232 41.9023 287.244 41.9314 287.265 41.9528C287.287 41.9742 287.316 41.9862 287.346 41.9862H288.925C288.94 41.9862 288.955 41.9832 288.969 41.9775C288.982 41.9718 288.995 41.9634 289.006 41.9528C289.016 41.9422 289.025 41.9296 289.03 41.9157C289.036 41.9019 289.039 41.887 289.039 41.8721V33.5405C289.039 33.5103 289.051 33.4812 289.072 33.4598C289.094 33.4384 289.123 33.4264 289.153 33.4264H297.39C297.405 33.4264 297.419 33.4234 297.433 33.4177C297.447 33.412 297.46 33.4036 297.47 33.393C297.481 33.3824 297.489 33.3698 297.495 33.3559C297.501 33.3421 297.504 33.3273 297.504 33.3123V31.9237C297.504 31.9087 297.501 31.8939 297.495 31.88C297.489 31.8662 297.481 31.8536 297.47 31.843C297.46 31.8324 297.447 31.824 297.433 31.8182Z" fill="black"/>
    <path d="M303.245 40.3348C303.267 40.3569 303.297 40.3693 303.328 40.3693H311.458C311.489 40.3693 311.52 40.3818 311.542 40.4039C311.564 40.426 311.576 40.456 311.576 40.4873L311.588 41.8682C311.588 41.8995 311.575 41.9295 311.553 41.9516C311.531 41.9738 311.501 41.9862 311.47 41.9862H301.521C301.49 41.9862 301.46 41.9738 301.438 41.9516C301.416 41.9295 301.403 41.8995 301.403 41.8682V24.0335C301.403 24.0022 301.416 23.9722 301.438 23.9501C301.46 23.928 301.49 23.9155 301.521 23.9155H303.092C303.124 23.9155 303.154 23.928 303.176 23.9501C303.198 23.9722 303.21 24.0022 303.21 24.0335V40.2514C303.21 40.2827 303.223 40.3127 303.245 40.3348Z" fill="black"/>
    <path fill-rule="evenodd" clip-rule="evenodd" d="M315.702 37.2549C315.725 37.2394 315.752 37.231 315.78 37.2308H325.051C325.079 37.231 325.106 37.2394 325.129 37.2549C325.152 37.2705 325.17 37.2925 325.181 37.3183L327.056 41.8987C327.067 41.9244 327.084 41.9465 327.107 41.962C327.131 41.9776 327.158 41.986 327.185 41.9862H328.905C328.928 41.986 328.951 41.9803 328.971 41.9693C328.991 41.9584 329.008 41.9427 329.021 41.9235C329.034 41.9044 329.042 41.8824 329.044 41.8595C329.046 41.8366 329.043 41.8135 329.034 41.7922L321.547 24.0031C321.537 23.9767 321.518 23.9543 321.494 23.9387C321.471 23.923 321.443 23.915 321.414 23.9156H319.74C319.713 23.9154 319.686 23.9233 319.663 23.9381C319.64 23.953 319.622 23.9742 319.611 23.9993L311.854 41.7922C311.844 41.8137 311.84 41.8372 311.842 41.8606C311.844 41.884 311.852 41.9066 311.865 41.9263C311.878 41.9459 311.895 41.9621 311.916 41.9732C311.937 41.9843 311.96 41.9901 311.983 41.99L313.577 41.9824C313.605 41.9825 313.631 41.9747 313.654 41.9598C313.677 41.945 313.696 41.9237 313.707 41.8987L315.651 37.3183C315.661 37.2925 315.679 37.2705 315.702 37.2549ZM316.452 35.4899C316.45 35.4712 316.453 35.4523 316.461 35.4351L320.391 26.1753C320.4 26.155 320.414 26.1376 320.433 26.1255C320.452 26.1133 320.473 26.1068 320.495 26.1068C320.518 26.1068 320.539 26.1133 320.558 26.1255C320.577 26.1376 320.591 26.155 320.6 26.1753L324.435 35.477C324.442 35.4943 324.444 35.513 324.442 35.5316C324.44 35.5501 324.433 35.5678 324.423 35.5832C324.412 35.5986 324.398 35.6111 324.382 35.6198C324.365 35.6285 324.347 35.633 324.328 35.6329L316.564 35.5949C316.545 35.5946 316.526 35.5896 316.51 35.5805C316.494 35.5714 316.48 35.5583 316.47 35.5425C316.459 35.5267 316.453 35.5086 316.452 35.4899Z" fill="black"/>
    <path d="M357.481 33.4632C357.457 33.4396 357.425 33.4264 357.392 33.4264H347.657C347.623 33.4264 347.592 33.4396 347.568 33.4632C347.544 33.4867 347.531 33.5186 347.531 33.5519V41.8606C347.531 41.8939 347.518 41.9259 347.494 41.9494C347.471 41.973 347.439 41.9862 347.406 41.9862H345.85C345.816 41.9862 345.784 41.973 345.761 41.9494C345.737 41.9259 345.724 41.8939 345.724 41.8606V24.0411C345.724 24.0078 345.737 23.9758 345.761 23.9523C345.784 23.9288 345.816 23.9155 345.85 23.9155H347.406C347.439 23.9155 347.471 23.9288 347.494 23.9523C347.518 23.9758 347.531 24.0078 347.531 24.0411V31.684C347.531 31.7173 347.544 31.7492 347.568 31.7728C347.592 31.7963 347.623 31.8095 347.657 31.8095H357.392C357.425 31.8095 357.457 31.7963 357.481 31.7728C357.504 31.7492 357.518 31.7173 357.518 31.684V24.0411C357.518 24.0078 357.531 23.9758 357.554 23.9523C357.578 23.9288 357.61 23.9155 357.643 23.9155H359.199C359.232 23.9155 359.264 23.9288 359.288 23.9523C359.311 23.9758 359.325 24.0078 359.325 24.0411V41.8568C359.325 41.8901 359.311 41.9221 359.288 41.9456C359.264 41.9692 359.232 41.9824 359.199 41.9824L357.643 41.9938C357.61 41.9938 357.578 41.9806 357.554 41.957C357.531 41.9335 357.518 41.9015 357.518 41.8682V33.5519C357.518 33.5186 357.504 33.4867 357.481 33.4632Z" fill="black"/>
    <path d="M283.371 39.7914C283.371 41.092 282.317 42.1463 281.016 42.1463C279.715 42.1463 278.661 41.092 278.661 39.7914C278.661 38.4908 279.715 37.4365 281.016 37.4365C282.317 37.4365 283.371 38.4908 283.371 39.7914Z" fill="#FD7228"/>
  </g>
</svg>
