<svg xmlns="http://www.w3.org/2000/svg" fill="none" viewBox="0 0 153 64">
    <g id="root">
        <g clip-path="url(#a)">
            <path fill="#757575"
                d="M25.32 17.73h-.65c-.4 0-.73.33-.73.73v.47c0 .4.33.73.73.73h.65c.4 0 .73-.33.73-.73v-.47c0-.4-.33-.73-.73-.73ZM3.43 23.87v3.38c0 .25-.08.34-.32.37a3.3 3.3 0 0 1-1.44-.03c-.12-.03-.17-.17-.17-.3v-8.54c0-.41.28-.53.65-.53h2.8c1.7 0 3.12.8 3.05 2.71-.04 1.22-.66 1.87-1.73 2.3-.02 0-.02.02 0 .04.48.3.85.75 1.11 1.34.33.72.65 1.45.95 2.19.1.26.16.48.17.66 0 .03 0 .05-.02.07-.28.24-1.4.15-1.7.11a.4.4 0 0 1-.34-.26l-.71-1.77c-.26-.64-.54-1.45-1.2-1.72-.28-.11-.7-.11-1.01-.1a.09.09 0 0 0-.1.08Zm0-4.18v2.62h1.22a1.51 1.51 0 0 0 .96-.34c.13-.12.23-.25.3-.4.06-.14.1-.3.1-.46v-.23c0-.32-.14-.63-.4-.85-.25-.23-.6-.36-.96-.36h-1.2a.02.02 0 0 0-.02.02Zm30.37 2.45H33c-.03 0-.04 0-.06-.02-.19-.24-.26-1.18.01-1.45a.08.08 0 0 1 .06-.03h.8c.02 0 .03-.01.03-.03v-1.32c0-.23.11-.36.34-.38.36-.04.75-.04 1.16 0 .3.02.35.2.35.47v1.23c0 .02.01.03.04.03h1.41a.1.1 0 0 1 .06.02c.28.2.24 1.19.04 1.46a.06.06 0 0 1-.05.02h-1.46c-.03 0-.04.02-.04.04v3.07c0 .95.52 1.22 1.38.88.47-.19.3 1.03.27 1.2-.05.17-.19.26-.37.32-.92.28-2.35.25-2.85-.76a2.63 2.63 0 0 1-.25-1.15c-.02-1.18-.02-2.37-.03-3.55 0-.03-.01-.05-.04-.05Zm-22.71 2.48c-.11 2.22 2.37 1.9 3.65 1.42.25-.1.5-.14.53.2.03.21.02.44 0 .7-.05.4-.38.47-.73.58-1.07.33-2.1.37-3.12.14-1.32-.3-1.96-1.29-2.16-2.56-.28-1.92.3-4.2 2.52-4.59 2.47-.43 4.03 1.08 3.8 3.56-.03.34-.22.5-.56.5l-3.09.02c-.18 0-.54-.04-.81 0-.02 0-.03.01-.03.03Zm.04-1.18 2.67-.03a.03.03 0 0 0 .02-.03v-.12c0-.2-.03-.4-.1-.59a1.6 1.6 0 0 0-.28-.5 1.28 1.28 0 0 0-.42-.32 1.08 1.08 0 0 0-.48-.12h-.19a1.23 1.23 0 0 0-.89.47c-.12.14-.21.31-.27.5-.06.19-.1.39-.1.59v.12a.03.03 0 0 0 .04.03Zm16.43 3.88c-.34-.23-.39-1.8.2-1.42.5.32.98.5 1.43.54.46.04 1.1-.02 1.28-.54.2-.56-.4-.85-.81-1.01-.32-.13-.68-.28-1.07-.46a1.98 1.98 0 0 1-1.16-2.37c.43-1.77 2.78-1.85 4.13-1.3.2.09.31.2.35.44.04.27.16 1.26-.42.94a2.69 2.69 0 0 0-1.84-.36.7.7 0 0 0-.54.66c0 .3.19.48.46.62.6.3 1.27.47 1.9.87.65.41.93 1.24.8 2-.33 1.93-2.7 2.12-4.18 1.64a2.17 2.17 0 0 1-.53-.25Zm14.97-.36c-.57.56-1.23.84-1.98.84-1.36 0-2.38-.71-2.39-2.16 0-2.06 2.34-2.29 3.88-2.21l.2-.01c.03 0 .04-.01.04-.04.14-1.26-.43-1.65-1.64-1.5a4.7 4.7 0 0 0-1.55.57c-.58.32-.59-.59-.56-.89.04-.4.39-.6.75-.73a5.66 5.66 0 0 1 2.76-.33c1.93.27 2.09 1.45 2.08 3.15a350.1 350.1 0 0 0-.02 3.83c0 .02 0 .04-.02.06-.23.2-.97.14-1.26.1-.32-.05-.23-.44-.23-.66a.03.03 0 0 0-.06-.02Zm-2.3-2c-.45.46-.32 1.35.4 1.51.67.16 1.25-.23 1.64-.73a.1.1 0 0 0 .03-.06V24.6c0-.02-.01-.03-.04-.03-.69-.02-1.63-.04-2.03.38Zm-20.53.78a.01.01 0 0 0 .01.01h.01l1.43-4.68c.05-.18.11-.3.18-.4a.1.1 0 0 1 .06-.04c.42-.07.86-.08 1.34-.03.46.05.28.58.18.85-.65 1.98-1.3 3.97-1.97 5.95-.14.41-1.84.27-2.2.22a.44.44 0 0 1-.4-.32l-2.03-6.14a.53.53 0 0 1 .06-.5.08.08 0 0 1 .06-.03c.41-.07.87-.08 1.37-.02.22.02.36.13.42.32l1.48 4.81Zm5.83-5.16h-1.07a.4.4 0 0 0-.4.4v6.3c0 .21.18.39.4.39h1.07a.4.4 0 0 0 .4-.4v-6.3a.4.4 0 0 0-.4-.39ZM133.25 41.2l.1-.29 4.55-15.5c.06-.22.16-.3.38-.3a2717.85 2717.85 0 0 0 2.04.02v.01l-5.7 19.52c-.19.6-.3 1.2-1.09 1.24h-1.6c-.02 0-.02-.01-.02-.03l.65-2.23c.02-.06 0-.07-.03-.02-.24.27-.5.6-.71.82a5.53 5.53 0 0 1-2.85 1.45c-4.03.84-10.13.47-9.98-5.25 0-.02.01-.03.03-.03h4s.02 0 .03.02l.02.03c.09.82.4 1.53 1.2 1.9 1.22.58 2.46.63 3.72.17.68-.25 1.3-.97.89-1.7-.35-.63-1.36-.98-2.04-1.12-1.6-.33-3.3-.73-4.86-1.41-1.77-.79-2.75-2.17-2.63-4.15a4.9 4.9 0 0 1 3.73-4.47c3-.82 7.62-.51 9.08 2.77.27.59.52 1.37.48 2.02 0 .08-.04.12-.12.12h-2.5a1.8 1.8 0 0 1-1.21-.43c-.2-.18-.39-.47-.55-.66-.9-1.02-2.33-1.09-3.54-.84-.63.13-1.07.44-1.2 1.1-.1.5.1.74.56.96 1.7.83 3.66 1.25 5.5 1.75 2.38.64 3.74 1.87 3.62 4.51v.02l.02.01a.03.03 0 0 0 .03-.02Z" />
            <path fill="#000"
                d="M103.5 25.16a1.9 1.9 0 0 1 1.82 1.81c.03.4.03.9 0 1.49 0 .02-.01.03-.04.03h-4.17l-.01-.03v-3.29l.02-.01c.8-.04 1.58-.04 2.37 0ZM4.87 39.06c-.05 2.7 2.01 4.36 4.64 3.36.32-.12.57-.28.76-.48.2-.2.4-.52.65-.7.26-.18.56-.28.9-.28h3.25c.02 0 .03 0 .02.03-1 4.14-4.92 5.8-8.89 5.12a6.66 6.66 0 0 1-5.34-5.24c-.98-4.27-.17-10.06 5-11.19a9.42 9.42 0 0 1 3.93-.02c4.33.89 5.66 4.69 5.55 8.62 0 .2.02.41-.05.64 0 .02-.02.04-.04.04-.09.03-.2.05-.33.05h-10c-.03 0-.05.01-.05.05Zm6.02-2.84a.04.04 0 0 0 .03 0l.01-.02v-.02c-.06-1.17-.45-2.33-1.55-2.85a3.62 3.62 0 0 0-2.45-.18c-1.37.4-2.03 1.7-2.07 3.04a.03.03 0 0 0 .01.03.03.03 0 0 0 .03 0h5.99Z" />
            <path fill="#000"
                d="M24.96 46.05c-3.26.69-6.98-.26-8.42-3.58a11.4 11.4 0 0 1 .12-9.54c1.64-3.34 5.72-4.05 8.98-3.07 2.39.72 3.75 2.46 4.43 4.82a.08.08 0 0 1-.01.06.08.08 0 0 1-.06.03h-4.02c-.11 0-.2-.06-.27-.2-.61-1.2-1.87-1.72-3.2-1.52-1.45.21-2.23 1.23-2.52 2.6a9.47 9.47 0 0 0 .09 4.62c.15.5.33.92.56 1.23 1 1.37 2.92 1.52 4.35.73.34-.18.6-.52.87-.8.3-.32.68-.48 1.13-.48a702.16 702.16 0 0 1 3.27.03c-.23.61-.47 1.28-.77 1.81a6.5 6.5 0 0 1-4.53 3.26Zm15.39-.16c-3.3.93-7.65-.05-9.07-3.56-.12-.3-.25-.74-.4-1.3-.64-2.4-.6-4.92.27-7.26a6.07 6.07 0 0 1 4.55-4.06 9.52 9.52 0 0 1 4.51.03c2.9.73 4.52 3.29 4.95 6.1.6 3.9-.42 8.8-4.8 10.05Zm-5.66-6.95c.15 1.34.5 2.9 1.85 3.52 2.02.92 3.84-.3 4.32-2.28.09-.37.2-1.05.3-2.01.04-.24.04-.48.02-.71a8.9 8.9 0 0 0-.46-2.38 3.04 3.04 0 0 0-3.11-2.02c-2.99.32-3.15 3.64-2.92 5.88Zm18.71-6c-1.4-.12-2.72.4-3.09 1.8-.06.25-.1.64-.1 1.17a12723.52 12723.52 0 0 1 0 9.98l-.03.01h-4.16c-.06 0-.08-.02-.08-.08-.02-3.38-.01-6.75 0-10.12.01-.9.19-1.79.54-2.68.65-1.63 1.87-2.37 3.44-2.96a8.52 8.52 0 0 1 8.6 1.43c1.16 1.24 1.42 3.1 1.44 4.72.04 3.22.04 6.43.01 9.65 0 .02-.01.04-.04.04-.65.02-1.3.03-1.96.02a3.2 3.2 0 0 1-1.05-.15c-.76-.3-1.15-1.12-1.15-1.92l.01-8.26c0-1.4-.97-2.54-2.38-2.65Zm16.16 13.09c-3.46.72-7.57-.51-8.7-4.31a12.6 12.6 0 0 1-.1-7.47c1.14-3.83 4.6-5.22 8.32-4.69 4.98.71 6.41 5.55 5.93 9.89-.36 3.2-2.14 5.89-5.45 6.58ZM64.96 41a2.84 2.84 0 0 0 2.55 1.79c1.48.08 2.69-1 3.05-2.4.16-.63.3-1.36.4-2.2.03-.25.03-.48.01-.71a12.9 12.9 0 0 0-.34-1.99c-.47-1.76-2.09-2.86-3.9-2.3-1.15.36-1.76 1.2-2.07 2.34a9.14 9.14 0 0 0 .3 5.47Zm28.53-11.47a9.3 9.3 0 0 1 3.63 1.17c2.12 1.26 2.48 3.59 2.48 5.88.01 3.09.02 6.18.01 9.27 0 .02 0 .03-.03.04-.8.04-1.58.04-2.37.02-1.16-.05-1.78-.91-1.8-2-.02-3.15-.03-5.45 0-6.91 0-.78 0-1.33-.03-1.66-.09-1.32-.92-2.1-2.16-2.37-1.34-.29-3.09.38-3.37 1.9-.05.25-.08.49-.08.74v10.26c0 .02-.02.03-.04.03h-4.12a.05.05 0 0 1-.04-.04v-9.9c0-1.39-.49-2.56-1.94-2.95-1.42-.38-3.2.24-3.56 1.78a4.5 4.5 0 0 0-.07.87 1156 1156 0 0 0-.01 10.2c0 .03-.02.04-.04.04h-4.2c-.01 0-.02 0-.02-.02-.03-3.1-.04-6.21-.02-9.31 0-1.21.15-2.3.45-3.28a4.63 4.63 0 0 1 2.57-2.81 9.3 9.3 0 0 1 6.94-.6c.74.2 1.42.62 2.1 1a.1.1 0 0 0 .1-.01 4.96 4.96 0 0 1 1.79-.95 9.93 9.93 0 0 1 3.83-.4Zm11.86 9.52.01.03a.04.04 0 0 0 .05 0l.02-.01c.87-1.98 2.74-2.58 4.7-2.9 1.29-.22 2.74-.45 3.94-.94.48-.2.73-.67.63-1.19-.1-.5-.43-.8-1-.95-1.13-.27-2.75-.48-3.67.34-.14.12-.27.36-.45.52a.08.08 0 0 1-.06.02h-3.96l-.01-.01-.01-.01v-.02c.51-3 2.91-4.32 5.74-4.45 2.6-.12 6.6.29 7.36 3.45.07.29.1.74.11 1.35.03 2.1.03 4.03 0 5.82-.05 2.9-1.82 5.26-4.68 5.83-3.08.6-7.12.75-8.66-2.66l-.02-.01h-.04v2.61c0 .03-.02.04-.04.04h-4.18c-.02 0-.03 0-.03-.03v-16c0-.02 0-.03.03-.05a.05.05 0 0 1 .07 0 23.22 23.22 0 0 1 2.01.03c.98.05 1.76.46 2.05 1.44.06.21.09.52.09.93v6.83Zm4.35 3.41c.48.43 1.1.5 1.76.47 1.67-.06 2.9-1 3.2-2.64.14-.76.16-1.52.2-2.37 0-.03-.02-.04-.04-.03-.83.31-1.37.5-1.64.56-1.2.27-2.15.53-2.85.76-1.35.45-1.67 2.33-.63 3.25Z" />
            <path fill="#757575"
                d="M142.52 33.94a479.6 479.6 0 0 0-3.67-.02v-.01l-.01-.02c.32-2.4 2.2-3.84 4.5-4.23 1.76-.3 3.51-.22 5.24.25 1.59.43 2.84 1.36 3.25 3 .08.3.12.76.13 1.35.04 1.89 0 3.77 0 5.65 0 3.06-1.7 5.36-4.74 6a14.9 14.9 0 0 1-4.13.25 5.66 5.66 0 0 1-3.27-1.28c-1.44-1.18-1.64-3.52-1.26-5.25.56-2.52 3.21-3.22 5.43-3.57a44.3 44.3 0 0 0 2.3-.44 2.6 2.6 0 0 0 1.43-.67c.5-.51.36-1.4-.33-1.71a4.7 4.7 0 0 0-3.53-.19c-.17.06-.34.17-.5.33-.25.24-.47.56-.84.56Zm5.54 4.42c0-.13.03-.3 0-.45 0-.03 0-.04-.03-.03l-4.25 1.27c-.35.1-.59.2-.71.28-1.03.67-1.01 2.49 0 3.18.59.4 1.44.4 2.15.3a3.25 3.25 0 0 0 2.8-2.91 9.8 9.8 0 0 0 .04-1.64Z" />
        </g>
        <defs>
            <clipPath id="a">
                <path fill="#fff" d="M0 0h152v64H0z" transform="translate(.5)" />
            </clipPath>
        </defs>
    </g>
</svg>