<svg viewBox="0 0 40 40" fill="none" xmlns="http://www.w3.org/2000/svg">
<path d="M34.0625 18.8281V21.1719C34.0625 21.3802 33.9583 21.4844 33.75 21.4844H6.25C6.04167 21.4844 5.9375 21.3802 5.9375 21.1719V18.8281C5.9375 18.6198 6.04167 18.5156 6.25 18.5156H33.75C33.9583 18.5156 34.0625 18.6198 34.0625 18.8281Z" fill="white"/>
<path d="M21.4844 6.875V33.125C21.4844 33.3333 21.3802 33.4375 21.1719 33.4375H18.8281C18.6198 33.4375 18.5156 33.3333 18.5156 33.125V6.875C18.5156 6.66667 18.6198 6.5625 18.8281 6.5625H21.1719C21.3802 6.5625 21.4844 6.66667 21.4844 6.875Z" fill="white"/>
</svg>
