<?xml version="1.0" encoding="UTF-8"?>
<svg id="Layer_1" data-name="Layer 1" xmlns="http://www.w3.org/2000/svg" viewBox="0 0 550 550">
  <g id="root">
    <path d="M431.9,116.1A220.33,220.33,0,0,0,274.9,51c-122.4,0-222,99.6-222,222A222.24,222.24,0,0,0,82.5,384L51,499l117.7-30.9a221.32,221.32,0,0,0,106.1,27h.1c122.3,0,224.1-99.6,224.1-222C499,213.8,473.8,158.1,431.9,116.1ZM274.9,458a184.19,184.19,0,0,1-94-25.7l-6.7-4-69.8,18.3,18.6-68.1-4.4-7a183.91,183.91,0,0,1-28.2-98.2c0-101.7,82.8-184.5,184.6-184.5a182.88,182.88,0,0,1,130.4,54.1c34.8,34.9,56.2,81.2,56.1,130.5C461.5,375.23,376.6,458,274.9,458Zm101.2-138.2c-5.5-2.8-32.8-16.2-37.9-18s-8.8-2.8-12.5,2.8-14.3,18-17.6,21.8-6.5,4.2-12,1.4c-32.6-16.3-54-29.1-75.5-66-5.7-9.8,5.7-9.1,16.3-30.3,1.8-3.7.9-6.9-.5-9.7s-12.5-30.1-17.1-41.2c-4.5-10.8-9.1-9.3-12.5-9.5-3.2-.2-6.9-.2-10.6-.2a20.55,20.55,0,0,0-14.8,6.9c-5.1,5.6-19.4,19-19.4,46.3s19.9,53.7,22.6,57.4,39.1,59.7,94.8,83.8c35.2,15.2,49,16.5,66.6,13.9,10.7-1.6,32.8-13.4,37.4-26.4s4.6-24.1,3.2-26.4C385.3,323.93,381.6,322.53,376.1,319.83Z" style="fill: currentColor"/>
  </g>
</svg>