<?xml version="1.0" encoding="UTF-8"?>
<svg id="Layer_1" data-name="Layer 1" xmlns="http://www.w3.org/2000/svg" viewBox="0 0 18 19">
  <g id="root">
    <path d="M10.6,6.26l-4.32,3.13s-.03,.03-.04,.05c-.01,.02-.02,.04-.02,.06s0,.04,.02,.06c.01,.02,.02,.04,.04,.05l4.32,3.13c.09,.07,.22,0,.22-.11v-.82c0-.18-.09-.35-.23-.46l-2.56-1.85,2.56-1.85c.15-.11,.23-.27,.23-.46v-.82c0-.11-.13-.18-.22-.11Z" style="fill: #34509f;"/>
    <path d="M9,1.62C4.65,1.62,1.12,5.15,1.12,9.5s3.53,7.88,7.88,7.88,7.88-3.53,7.88-7.88S13.35,1.62,9,1.62Zm0,14.41c-3.61,0-6.54-2.93-6.54-6.54S5.39,2.96,9,2.96s6.54,2.93,6.54,6.54-2.93,6.54-6.54,6.54Z" style="fill: #34509f;"/>
  </g>
</svg>