<?xml version="1.0" encoding="UTF-8"?>
<svg id="Layer_1" data-name="Layer 1" xmlns="http://www.w3.org/2000/svg" viewBox="0 0 21 21">
  <g id="root">
    <path d="M19.03,3.28H1.97c-.36,0-.66,.29-.66,.66v13.12c0,.36,.29,.66,.66,.66H19.03c.36,0,.66-.29,.66-.66V3.94c0-.36-.29-.66-.66-.66Zm-.82,2.27v10.69H2.79V5.55l-.57-.44,.81-1.04,.88,.68h13.19l.88-.68,.81,1.04-.57,.44Zm-1.12-.8l-6.6,5.13L3.9,4.76l-.88-.68-.81,1.04,.57,.44,7.01,5.45c.2,.16,.45,.24,.7,.24s.5-.08,.7-.24l7.01-5.44,.57-.44-.81-1.04-.88,.68Z" style="fill: currentColor"/>
  </g>
</svg>