<?xml version="1.0" encoding="UTF-8"?>
<svg id="Layer_1" data-name="Layer 1" xmlns="http://www.w3.org/2000/svg" viewBox="0 0 21 21">
  <g id="root">
    <path d="M17.99,4.9l-2.18-2.18c-.27-.27-.62-.42-1-.42s-.73,.15-1,.42l-2.35,2.35c-.27,.27-.42,.63-.42,1s.15,.73,.42,1l1.84,1.84c-.42,.98-1.02,1.86-1.77,2.61-.75,.76-1.63,1.35-2.61,1.78l-1.84-1.84c-.27-.27-.62-.42-1-.42-.19,0-.37,.04-.54,.11-.17,.07-.33,.18-.46,.31l-2.35,2.35c-.27,.27-.42,.63-.42,1s.15,.73,.42,1l2.18,2.18c.46,.46,1.08,.72,1.73,.72,.13,0,.26-.01,.39-.03,2.72-.45,5.41-1.89,7.59-4.07,2.17-2.18,3.62-4.87,4.07-7.59,.13-.77-.13-1.56-.68-2.12Zm-.77,1.88c-.4,2.42-1.7,4.83-3.66,6.79s-4.37,3.26-6.79,3.66c-.3,.05-.62-.05-.84-.27l-2.14-2.14,2.27-2.27,2.46,2.46,.02,.02,.44-.16c1.34-.49,2.56-1.27,3.57-2.29,1.01-1.01,1.79-2.23,2.28-3.58l.16-.44-2.48-2.48,2.27-2.27,2.14,2.14c.22,.22,.32,.53,.27,.84Z" style="fill: currentColor"/>
  </g>
</svg>