<?xml version="1.0" encoding="UTF-8"?>
<svg id="Layer_1" data-name="Layer 1" xmlns="http://www.w3.org/2000/svg" viewBox="0 0 21 21">
  <g id="root">
    <path d="M17.53,5.93c-.39-.89-.94-1.7-1.64-2.37-.7-.68-1.52-1.22-2.42-1.6-.94-.39-1.94-.59-2.96-.59s-2.02,.2-2.96,.58c-.91,.38-1.72,.91-2.42,1.6-.7,.68-1.25,1.48-1.64,2.37-.4,.92-.6,1.9-.6,2.91,0,1.45,.35,2.89,1.03,4.28,.55,1.12,1.31,2.21,2.28,3.24,1.65,1.77,3.37,2.85,3.86,3.14,.14,.08,.3,.13,.46,.13,.16,0,.32-.04,.46-.13,.49-.29,2.22-1.37,3.86-3.14,.96-1.03,1.73-2.12,2.28-3.24,.68-1.39,1.03-2.83,1.03-4.28,0-1.01-.2-1.99-.6-2.91Zm-7.03,12.12c-1.35-.86-6.15-4.26-6.15-9.21,0-1.6,.64-3.1,1.8-4.23,1.16-1.13,2.71-1.76,4.36-1.76s3.19,.63,4.36,1.76c1.16,1.13,1.8,2.63,1.8,4.23,0,4.95-4.8,8.35-6.15,9.21Zm0-12.66c-1.99,0-3.61,1.62-3.61,3.61s1.62,3.61,3.61,3.61,3.61-1.62,3.61-3.61-1.62-3.61-3.61-3.61Zm1.62,5.23c-.21,.21-.47,.38-.74,.5-.28,.12-.58,.17-.88,.17-.61,0-1.19-.24-1.62-.67-.21-.21-.38-.47-.5-.74-.12-.28-.17-.58-.17-.88,0-.61,.24-1.19,.67-1.62,.43-.43,1.01-.67,1.62-.67s1.19,.24,1.62,.67c.43,.43,.67,1.01,.67,1.62s-.24,1.19-.67,1.62Z" style="fill: currentColor"/>
  </g>
</svg>