<svg width="24" height="24" viewBox="0 0 24 24" fill="none" xmlns="http://www.w3.org/2000/svg">
    <g id="root">
        <path d="M10.3664 15.8809L15.0398 12.2082C15.0711 12.1834 15.0963 12.1519 15.1137 12.116C15.131 12.0801 15.14 12.0407 15.14 12.0008C15.14 11.9609 15.131 11.9216 15.1137 11.8856C15.0963 11.8497 15.0711 11.8182 15.0398 11.7934L10.3664 8.11839C10.193 7.98245 9.9375 8.10432 9.9375 8.32464V15.6723C9.9375 15.8926 10.193 16.0168 10.3664 15.8809Z" fill="currentColor"/>
        <path d="M20.625 2.625H3.375C2.96016 2.625 2.625 2.96016 2.625 3.375V20.625C2.625 21.0398 2.96016 21.375 3.375 21.375H20.625C21.0398 21.375 21.375 21.0398 21.375 20.625V3.375C21.375 2.96016 21.0398 2.625 20.625 2.625ZM19.6875 19.6875H4.3125V4.3125H19.6875V19.6875Z" fill="currentColor"/>
    </g>
</svg>
