<svg width="780" height="1123" viewBox="0 0 780 1123" fill="none" xmlns="http://www.w3.org/2000/svg">
<rect width="779.861" height="1123" fill="#D3D9EA"/>
<path d="M174.87 152.553C176.409 151.428 177.652 149.945 178.49 148.232C179.409 146.421 179.905 144.424 179.94 142.393V135.072C179.917 133.029 179.428 131.018 178.51 129.192C177.672 127.48 176.429 125.997 174.89 124.873C173.421 123.802 171.648 123.23 169.83 123.243C163.937 123.243 160.99 127.336 160.99 135.523V141.882C160.99 150.102 163.937 154.213 169.83 154.213C171.647 154.228 173.42 153.661 174.89 152.593L174.87 152.553ZM161.25 153.673C158.935 152.222 157.082 150.14 155.91 147.673C154.651 144.839 154 141.773 154 138.673C154 135.572 154.651 132.506 155.91 129.673C157.082 127.218 158.936 125.152 161.25 123.722C163.652 122.296 166.407 121.572 169.2 121.633C171.49 121.581 173.738 122.256 175.62 123.563C177.495 124.929 178.983 126.759 179.94 128.873V106.173L175.49 105.542V104.262H186.3V153.262L190.75 153.903V155.173H179.94V148.553C178.989 150.67 177.499 152.5 175.62 153.863C173.741 155.176 171.492 155.856 169.2 155.803C166.402 155.86 163.645 155.121 161.25 153.673Z" fill="#34509F"/>
<path d="M197.54 113.572C197.13 113.19 196.804 112.725 196.586 112.208C196.367 111.691 196.259 111.134 196.27 110.572C196.255 110.014 196.358 109.458 196.572 108.941C196.786 108.424 197.105 107.958 197.51 107.572C197.916 107.175 198.398 106.863 198.927 106.655C199.456 106.448 200.022 106.348 200.59 106.363C201.135 106.354 201.676 106.457 202.18 106.665C202.684 106.873 203.14 107.182 203.52 107.572C203.914 107.964 204.223 108.433 204.43 108.949C204.636 109.465 204.735 110.017 204.72 110.572C204.729 111.127 204.628 111.678 204.422 112.193C204.215 112.708 203.909 113.177 203.52 113.572C203.145 113.972 202.691 114.289 202.186 114.502C201.681 114.716 201.138 114.821 200.59 114.812C200.024 114.822 199.462 114.717 198.938 114.504C198.414 114.291 197.939 113.974 197.54 113.572ZM193.85 155.132V153.863L198.3 153.222V124.162L193.85 123.523V122.253H204.66V153.252L209.11 153.893V155.162L193.85 155.132Z" fill="#34509F"/>
<path d="M229.68 151.953C230.94 151.221 232.002 150.191 232.77 148.953C233.65 147.543 234.172 145.94 234.29 144.283V137.662H230.03C226.55 137.662 223.96 138.443 222.24 139.993C221.363 140.825 220.678 141.838 220.234 142.963C219.79 144.088 219.598 145.296 219.67 146.502C219.67 148.842 220.22 150.509 221.32 151.502C222.691 152.576 224.413 153.1 226.15 152.972C227.393 152.951 228.61 152.606 229.68 151.972V151.953ZM215.94 153.632C215.046 152.852 214.346 151.876 213.893 150.779C213.44 149.682 213.247 148.496 213.33 147.313C213.33 143.313 214.997 140.482 218.33 138.822C221.959 137.084 225.947 136.224 229.97 136.313H234.23V131.393C234.303 129.655 234.056 127.92 233.5 126.273C233.105 125.165 232.294 124.254 231.24 123.733C229.935 123.184 228.524 122.932 227.11 122.993C225.536 122.873 223.968 123.289 222.66 124.173C222.186 124.545 221.806 125.025 221.552 125.573C221.299 126.12 221.178 126.72 221.2 127.323C221.164 127.87 221.323 128.412 221.649 128.853C221.975 129.295 222.446 129.606 222.98 129.733C222.98 130.257 222.873 130.776 222.665 131.258C222.457 131.739 222.152 132.173 221.77 132.533C221.401 132.919 220.958 133.226 220.466 133.434C219.974 133.643 219.444 133.747 218.91 133.743C217.861 133.784 216.836 133.427 216.04 132.743C215.66 132.346 215.367 131.874 215.181 131.357C214.995 130.84 214.92 130.29 214.96 129.743C214.96 127.296 216.19 125.326 218.65 123.833C221.462 122.263 224.651 121.495 227.87 121.613C236.35 121.613 240.59 125.299 240.59 132.673V150.863C240.537 151.622 240.753 152.376 241.2 152.993C241.413 153.241 241.682 153.436 241.984 153.563C242.286 153.69 242.613 153.744 242.94 153.722C243.263 153.739 243.586 153.682 243.884 153.555C244.182 153.429 244.447 153.236 244.66 152.993C245.112 152.427 245.34 151.715 245.3 150.993H246.63C246.665 151.645 246.555 152.298 246.308 152.903C246.061 153.508 245.682 154.051 245.2 154.493C244.074 155.404 242.646 155.857 241.2 155.763C239.408 155.817 237.656 155.22 236.27 154.083C234.937 152.963 234.247 151.213 234.2 148.833C233.208 150.972 231.576 152.751 229.53 153.923C227.407 155.16 224.987 155.796 222.53 155.763C220.125 155.862 217.762 155.107 215.86 153.632" fill="#34509F"/>
<path d="M247.2 155.133V153.863L251.97 153.223V106.163L247.2 105.533V104.253H258.33V153.223L262.78 153.863V155.133H247.2Z" fill="#34509F"/>
<path d="M290.41 150.933C292.12 148.219 292.954 145.046 292.8 141.843V135.482C292.8 131.716 292.003 128.696 290.41 126.423C289.559 125.359 288.48 124.501 287.253 123.911C286.026 123.321 284.682 123.015 283.32 123.015C281.958 123.015 280.614 123.321 279.387 123.911C278.16 124.501 277.081 125.359 276.23 126.423C274.637 128.696 273.843 131.716 273.85 135.482V141.843C273.693 145.045 274.524 148.218 276.23 150.933C277.072 152.009 278.148 152.88 279.376 153.479C280.605 154.078 281.953 154.389 283.32 154.389C284.687 154.389 286.035 154.078 287.264 153.479C288.492 152.88 289.568 152.009 290.41 150.933ZM274.99 153.632C272.492 152.222 270.435 150.145 269.05 147.632C267.605 144.881 266.85 141.82 266.85 138.713C266.85 135.605 267.605 132.544 269.05 129.792C270.44 127.284 272.495 125.207 274.99 123.792C277.544 122.395 280.408 121.662 283.32 121.662C286.231 121.662 289.096 122.395 291.65 123.792C294.146 125.21 296.204 127.285 297.6 129.792C299.039 132.546 299.79 135.606 299.79 138.713C299.79 141.819 299.039 144.879 297.6 147.632C296.208 150.143 294.148 152.219 291.65 153.632C289.096 155.03 286.231 155.763 283.32 155.763C280.408 155.763 277.544 155.03 274.99 153.632Z" fill="#34509F"/>
<path d="M324.85 130.773C324.988 128.648 324.418 126.539 323.23 124.773C322.642 124.063 321.894 123.503 321.047 123.14C320.2 122.777 319.279 122.62 318.36 122.683C314.16 122.683 312.06 125.372 312.06 130.752V133.873C311.945 135.958 312.491 138.026 313.62 139.783C314.168 140.509 314.888 141.087 315.716 141.464C316.544 141.841 317.452 142.006 318.36 141.942C319.286 142.005 320.213 141.84 321.062 141.464C321.91 141.088 322.654 140.511 323.23 139.783C324.398 138.041 324.967 135.966 324.85 133.873V130.773ZM335.02 123.463C333.793 124.656 331.843 125.419 329.17 125.752C330.371 127.74 330.946 130.043 330.82 132.363C330.887 133.851 330.603 135.333 329.991 136.692C329.38 138.05 328.458 139.246 327.3 140.183C324.749 142.158 321.584 143.174 318.36 143.053C316.993 143.064 315.629 142.934 314.29 142.662C311.577 142.829 310.22 143.889 310.22 145.843C310.191 146.335 310.305 146.825 310.548 147.255C310.791 147.684 311.153 148.034 311.59 148.263C312.958 148.861 314.45 149.121 315.94 149.023H323.07C326.497 149.023 329.05 149.723 330.73 151.123C332.41 152.523 333.247 154.919 333.24 158.313C333.258 160.622 332.631 162.89 331.43 164.863C330.162 166.906 328.342 168.549 326.18 169.603C323.614 170.845 320.79 171.459 317.94 171.393C313.153 171.393 309.623 170.673 307.35 169.233C306.323 168.671 305.465 167.844 304.867 166.838C304.269 165.832 303.952 164.683 303.95 163.513C303.95 162.797 304.097 162.089 304.38 161.432C304.664 160.775 305.079 160.183 305.6 159.692C306.202 159.126 306.914 158.687 307.691 158.404C308.468 158.12 309.294 157.997 310.12 158.043C310.907 158.081 311.692 158.165 312.47 158.293C311.823 158.953 311.313 159.734 310.97 160.592C310.627 161.451 310.457 162.368 310.47 163.293C310.459 164.174 310.622 165.049 310.949 165.868C311.277 166.686 311.763 167.432 312.38 168.063C313.65 169.423 315.72 170.063 318.61 170.063C320.926 170.101 323.221 169.612 325.32 168.632C327.129 167.805 328.693 166.523 329.86 164.912C330.866 163.545 331.421 161.899 331.45 160.203C331.514 159.468 331.391 158.73 331.092 158.057C330.793 157.383 330.328 156.797 329.74 156.353C328.59 155.573 326.56 155.183 323.63 155.183H315.94C312.94 155.183 310.74 154.603 309.23 153.433C308.469 152.811 307.868 152.017 307.476 151.116C307.085 150.214 306.915 149.233 306.98 148.252C306.963 146.813 307.42 145.407 308.28 144.252C309.088 143.125 310.272 142.323 311.62 141.993C307.933 140.419 306.09 137.239 306.09 132.453C306.018 130.958 306.296 129.467 306.902 128.099C307.508 126.731 308.425 125.524 309.58 124.573C312.075 122.609 315.187 121.595 318.36 121.713C322.813 121.713 326.037 122.642 328.03 124.502C329.015 124.381 329.943 123.974 330.7 123.333C330.974 123.088 331.195 122.79 331.348 122.456C331.501 122.122 331.584 121.76 331.59 121.393C331.611 121.106 331.57 120.818 331.47 120.549C331.37 120.28 331.213 120.036 331.01 119.833C330.835 119.659 330.627 119.522 330.399 119.43C330.171 119.337 329.926 119.29 329.68 119.293C329.679 118.834 329.771 118.38 329.952 117.959C330.132 117.538 330.397 117.158 330.73 116.843C331.055 116.506 331.445 116.239 331.876 116.058C332.308 115.877 332.772 115.787 333.24 115.793C334.208 115.767 335.146 116.127 335.85 116.793C336.189 117.12 336.453 117.516 336.626 117.954C336.798 118.392 336.875 118.862 336.85 119.333C336.858 120.132 336.698 120.924 336.381 121.657C336.064 122.391 335.597 123.05 335.01 123.593" fill="#34509F"/>
<path d="M362.21 150.933C363.916 148.218 364.747 145.045 364.59 141.843V135.482C364.59 131.716 363.797 128.696 362.21 126.423C361.358 125.359 360.278 124.501 359.05 123.911C357.822 123.321 356.477 123.015 355.115 123.015C353.753 123.015 352.408 123.321 351.179 123.911C349.951 124.501 348.872 125.359 348.02 126.423C346.433 128.696 345.64 131.716 345.64 135.482V141.843C345.483 145.045 346.314 148.218 348.02 150.933C348.862 152.011 349.938 152.883 351.167 153.483C352.397 154.083 353.747 154.395 355.115 154.395C356.483 154.395 357.833 154.083 359.062 153.483C360.292 152.883 361.368 152.011 362.21 150.933ZM346.78 153.632C344.282 152.222 342.225 150.145 340.84 147.632C339.401 144.879 338.65 141.819 338.65 138.713C338.65 135.606 339.401 132.546 340.84 129.792C342.23 127.284 344.285 125.207 346.78 123.792C349.336 122.395 352.202 121.662 355.115 121.662C358.028 121.662 360.894 122.395 363.45 123.792C365.945 125.207 368 127.284 369.39 129.792C370.835 132.544 371.59 135.605 371.59 138.713C371.59 141.82 370.835 144.881 369.39 147.632C368.005 150.145 365.948 152.222 363.45 153.632C360.894 155.03 358.028 155.763 355.115 155.763C352.202 155.763 349.336 155.03 346.78 153.632Z" fill="#34509F"/>
<path d="M420.61 141.903V135.542C420.61 127.322 417.667 123.209 411.78 123.202C409.952 123.187 408.168 123.758 406.69 124.833C405.129 125.949 403.879 127.447 403.06 129.183C402.165 131.029 401.687 133.05 401.66 135.102V141.903C401.647 143.997 402.094 146.07 402.97 147.972C403.761 149.77 405.009 151.328 406.59 152.493C408.093 153.598 409.914 154.187 411.78 154.172C417.673 154.172 420.617 150.083 420.61 141.903ZM390.85 171.852L395.3 171.222V124.162L390.85 123.523V122.252H401.66V128.933C402.598 126.794 404.08 124.939 405.96 123.553C407.848 122.234 410.108 121.554 412.41 121.612C415.208 121.56 417.963 122.298 420.36 123.743C422.672 125.197 424.523 127.278 425.7 129.743C426.959 132.576 427.61 135.642 427.61 138.743C427.61 141.843 426.959 144.909 425.7 147.743C424.528 150.197 422.674 152.263 420.36 153.692C417.956 155.116 415.203 155.84 412.41 155.783C410.107 155.846 407.845 155.166 405.96 153.843C404.089 152.476 402.607 150.646 401.66 148.533V171.243L407.66 171.873V173.142H390.85V171.852Z" fill="#34509F"/>
<path d="M456.64 150.933C458.346 148.218 459.177 145.045 459.02 141.843V135.482C459.02 131.716 458.227 128.696 456.64 126.423C455.789 125.359 454.71 124.501 453.483 123.911C452.256 123.321 450.912 123.015 449.55 123.015C448.188 123.015 446.844 123.321 445.617 123.911C444.389 124.501 443.311 125.359 442.46 126.423C440.873 128.696 440.077 131.716 440.07 135.482V141.843C439.916 145.046 440.75 148.219 442.46 150.933C443.302 152.009 444.378 152.88 445.606 153.479C446.835 154.078 448.183 154.389 449.55 154.389C450.917 154.389 452.265 154.078 453.494 153.479C454.722 152.88 455.798 152.009 456.64 150.933ZM441.22 153.632C438.717 152.225 436.656 150.147 435.27 147.632C433.831 144.879 433.08 141.819 433.08 138.713C433.08 135.606 433.831 132.546 435.27 129.792C436.661 127.281 438.72 125.204 441.22 123.792C443.774 122.395 446.638 121.662 449.55 121.662C452.461 121.662 455.326 122.395 457.88 123.792C460.375 125.207 462.43 127.284 463.82 129.792C465.265 132.544 466.02 135.605 466.02 138.713C466.02 141.82 465.265 144.881 463.82 147.632C462.435 150.145 460.378 152.222 457.88 153.632C455.326 155.03 452.461 155.763 449.55 155.763C446.638 155.763 443.774 155.03 441.22 153.632Z" fill="#34509F"/>
<path d="M475.3 153.542C474.252 152.979 473.374 152.144 472.759 151.126C472.143 150.107 471.812 148.942 471.8 147.752C471.737 146.695 472.097 145.655 472.8 144.863C473.141 144.511 473.552 144.235 474.007 144.054C474.462 143.873 474.951 143.791 475.44 143.813C476.208 143.788 476.965 144.009 477.6 144.442C478.206 144.886 478.651 145.514 478.87 146.232C478.003 147.091 477.501 148.252 477.47 149.472C477.482 150.143 477.649 150.801 477.958 151.396C478.267 151.991 478.709 152.507 479.25 152.903C480.617 153.94 482.306 154.461 484.02 154.373C486.341 154.473 488.634 153.836 490.57 152.553C491.371 152.024 492.025 151.301 492.471 150.451C492.917 149.601 493.14 148.652 493.12 147.692C493.157 147.194 493.079 146.694 492.892 146.231C492.704 145.768 492.413 145.355 492.04 145.023C490.744 144.157 489.329 143.483 487.84 143.023L478.24 139.523C474.46 138.189 472.573 135.669 472.58 131.963C472.538 130.577 472.794 129.198 473.331 127.92C473.867 126.642 474.672 125.493 475.69 124.553C477.77 122.619 480.633 121.656 484.28 121.663C486.999 121.581 489.683 122.297 492 123.722C493.012 124.326 493.844 125.19 494.411 126.224C494.977 127.258 495.256 128.424 495.22 129.602C495.263 130.495 494.967 131.37 494.39 132.053C494.121 132.356 493.787 132.596 493.413 132.756C493.04 132.915 492.636 132.989 492.23 132.972C491.432 133.005 490.65 132.745 490.03 132.243C489.744 131.997 489.518 131.688 489.369 131.342C489.22 130.995 489.152 130.619 489.17 130.243C489.665 129.892 490.061 129.42 490.32 128.873C490.545 128.317 490.654 127.722 490.64 127.123C490.643 126.545 490.502 125.975 490.229 125.465C489.957 124.955 489.562 124.521 489.08 124.203C487.637 123.333 485.96 122.931 484.28 123.053C482.638 123.012 481.005 123.304 479.48 123.912C478.294 124.381 477.258 125.162 476.48 126.173C475.847 126.993 475.496 127.996 475.48 129.033C475.464 129.481 475.552 129.927 475.735 130.336C475.919 130.745 476.194 131.107 476.54 131.393C477.802 132.255 479.183 132.929 480.64 133.393L489.55 136.572C491.384 137.17 493.013 138.272 494.25 139.752C495.363 141.281 495.924 143.143 495.84 145.033C495.887 146.444 495.653 147.85 495.152 149.17C494.65 150.491 493.892 151.698 492.92 152.722C490.92 154.722 488 155.773 484.01 155.773C480.954 155.88 477.931 155.11 475.3 153.553" fill="#34509F"/>
<path d="M504.49 113.572C504.08 113.19 503.754 112.725 503.536 112.208C503.317 111.691 503.209 111.134 503.22 110.572C503.205 110.014 503.308 109.458 503.522 108.941C503.736 108.424 504.055 107.958 504.46 107.572C504.869 107.181 505.352 106.875 505.881 106.672C506.41 106.47 506.974 106.375 507.54 106.392C508.085 106.384 508.626 106.487 509.13 106.695C509.634 106.903 510.09 107.212 510.47 107.603C510.865 107.994 511.176 108.462 511.384 108.978C511.592 109.494 511.693 110.046 511.68 110.603C511.687 111.158 511.584 111.709 511.376 112.224C511.168 112.739 510.86 113.208 510.47 113.603C510.095 114.002 509.641 114.319 509.136 114.532C508.631 114.746 508.088 114.851 507.54 114.842C506.974 114.851 506.413 114.746 505.889 114.533C505.365 114.32 504.889 114.004 504.49 113.603V113.572ZM500.8 155.162V153.892L505.25 153.252V124.162L500.8 123.523V122.252H511.61V153.252L516.06 153.892V155.162H500.8Z" fill="#34509F"/>
<path d="M525.57 153.673C523.89 152.272 523.06 150.043 523.06 146.993V124.093L518.54 123.463V122.193H523.06V116.913L529.42 115.322V122.193H537.68V123.463L529.42 124.093V146.863C529.42 151.363 531.03 153.602 534.25 153.602C534.91 153.609 535.567 153.5 536.19 153.283C536.695 153.119 537.184 152.908 537.65 152.653C537.888 152.525 538.112 152.375 538.32 152.202L539.14 153.202C537.26 154.891 534.806 155.8 532.28 155.743C529.866 155.866 527.487 155.125 525.57 153.653" fill="#34509F"/>
<path d="M544.94 113.572C544.53 113.19 544.204 112.725 543.986 112.208C543.767 111.691 543.659 111.134 543.67 110.572C543.655 110.014 543.758 109.458 543.972 108.941C544.185 108.424 544.505 107.958 544.91 107.572C545.724 106.794 546.814 106.37 547.94 106.393C548.485 106.384 549.026 106.487 549.53 106.695C550.034 106.903 550.49 107.212 550.87 107.603C551.265 107.994 551.576 108.462 551.784 108.978C551.992 109.494 552.093 110.046 552.08 110.603C552.087 111.158 551.984 111.709 551.776 112.224C551.568 112.739 551.26 113.208 550.87 113.603C550.495 114.002 550.041 114.319 549.536 114.532C549.031 114.746 548.488 114.851 547.94 114.843C547.374 114.851 546.813 114.746 546.289 114.533C545.765 114.32 545.289 114.004 544.89 113.603L544.94 113.572ZM541.2 155.162V153.893L545.65 153.252V124.162L541.2 123.523V122.253H552.01V153.252L556.47 153.893V155.162H541.2Z" fill="#34509F"/>
<path d="M574.69 156.403L561.08 124.093L556.95 123.463V122.193H572.78V123.463L568.21 124.293L577.81 148.203L586.39 125.113L580.8 123.523V122.253H592.18V123.523L588.17 125.053L576.47 156.403H574.69Z" fill="#34509F"/>
<path d="M616.57 150.933C618.276 148.218 619.107 145.045 618.95 141.843V135.482C618.95 131.716 618.157 128.696 616.57 126.423C615.719 125.359 614.64 124.501 613.413 123.911C612.186 123.321 610.842 123.015 609.48 123.015C608.118 123.015 606.774 123.321 605.547 123.911C604.32 124.501 603.241 125.359 602.39 126.423C600.803 128.696 600.007 131.716 600 135.482V141.843C599.846 145.046 600.68 148.219 602.39 150.933C603.232 152.009 604.308 152.88 605.536 153.479C606.765 154.078 608.113 154.389 609.48 154.389C610.847 154.389 612.195 154.078 613.424 153.479C614.652 152.88 615.728 152.009 616.57 150.933ZM601.15 153.632C598.629 152.233 596.55 150.154 595.15 147.632C593.711 144.879 592.96 141.819 592.96 138.713C592.96 135.606 593.711 132.546 595.15 129.792C596.554 127.274 598.632 125.197 601.15 123.792C603.704 122.395 606.568 121.662 609.48 121.662C612.391 121.662 615.256 122.395 617.81 123.792C620.305 125.207 622.36 127.284 623.75 129.792C625.195 132.544 625.95 135.605 625.95 138.713C625.95 141.82 625.195 144.881 623.75 147.632C622.365 150.145 620.308 152.222 617.81 153.632C615.256 155.03 612.391 155.763 609.48 155.763C606.568 155.763 603.704 155.03 601.15 153.632Z" fill="#34509F"/>
<path d="M230.17 115.943C231.52 115.107 232.696 114.017 233.63 112.732C234.589 111.558 235.134 110.099 235.18 108.582C235.198 108.247 235.087 107.918 234.87 107.663C234.74 107.533 234.583 107.434 234.41 107.373C234.237 107.313 234.052 107.292 233.87 107.312C233.37 107.314 232.874 107.216 232.412 107.025C231.95 106.834 231.53 106.553 231.176 106.199C230.823 105.845 230.544 105.424 230.354 104.961C230.164 104.499 230.067 104.003 230.07 103.502C230.056 103.01 230.148 102.521 230.339 102.067C230.531 101.613 230.817 101.206 231.18 100.872C231.91 100.199 232.877 99.8392 233.87 99.8725C234.543 99.8458 235.213 99.9787 235.824 100.26C236.436 100.542 236.973 100.964 237.39 101.493C238.305 102.703 238.769 104.196 238.7 105.713C238.72 108.006 238.044 110.252 236.76 112.152C235.244 114.262 233.198 115.935 230.83 117.002L230.17 115.943Z" fill="#34509F"/>
<path d="M269.631 195.192H275.051L272.991 189.732C272.821 189.302 272.611 188.732 272.371 187.952C272.2 188.562 271.996 189.163 271.761 189.752L269.631 195.192ZM275.411 196.192H269.251L267.131 201.542H265.941L272.041 186.322H272.711L278.711 201.542H277.521L275.411 196.192Z" fill="black"/>
<path d="M284.801 201.502H283.731V187.342H278.811V186.342H289.721V187.342H284.801V201.502Z" fill="black"/>
<path d="M293.031 186.342H291.971V201.502H293.031V186.342Z" fill="black"/>
<path d="M301.271 201.502H300.201V187.342H295.281V186.342H306.201V187.342H301.271V201.502Z" fill="black"/>
<path d="M319.591 186.392V196.202C319.635 196.949 319.524 197.698 319.264 198.4C319.004 199.102 318.601 199.743 318.081 200.282C317.51 200.793 316.843 201.187 316.118 201.439C315.394 201.691 314.627 201.798 313.861 201.752C313.109 201.825 312.35 201.73 311.639 201.475C310.928 201.22 310.282 200.81 309.747 200.276C309.213 199.742 308.803 199.096 308.548 198.384C308.293 197.673 308.199 196.914 308.271 196.162V186.392H309.341V196.202C309.279 196.826 309.356 197.456 309.567 198.046C309.778 198.637 310.118 199.173 310.563 199.615C311.007 200.058 311.544 200.396 312.136 200.604C312.727 200.813 313.358 200.887 313.981 200.822C314.594 200.861 315.207 200.775 315.785 200.568C316.363 200.362 316.892 200.04 317.341 199.622C317.755 199.178 318.074 198.655 318.279 198.085C318.483 197.514 318.569 196.907 318.531 196.302V186.392H319.591Z" fill="black"/>
<path d="M334.071 193.812C334.191 192.928 334.105 192.027 333.821 191.182C333.537 190.336 333.061 189.567 332.432 188.934C331.802 188.302 331.035 187.823 330.191 187.534C329.346 187.246 328.446 187.156 327.561 187.272H324.771V200.562H327.281C331.815 200.562 334.078 198.312 334.071 193.812ZM335.221 193.812C335.221 196.362 334.561 198.282 333.221 199.582C331.881 200.882 329.931 201.582 327.351 201.582H323.721V186.392H327.811C328.816 186.268 329.835 186.376 330.792 186.706C331.749 187.036 332.617 187.58 333.332 188.296C334.047 189.013 334.588 189.883 334.916 190.841C335.243 191.798 335.348 192.818 335.221 193.822" fill="black"/>
<path d="M346.991 201.502H338.711V186.342H346.991V187.322H339.771V193.052H346.591V194.022H339.771V200.522H346.991V201.502Z" fill="black"/>
<path d="M358.791 197.592C358.813 198.167 358.698 198.74 358.454 199.261C358.211 199.783 357.847 200.239 357.391 200.592C356.323 201.377 355.016 201.769 353.691 201.702C352.246 201.766 350.801 201.56 349.431 201.092V200.042C350.766 200.545 352.186 200.779 353.611 200.732C354.664 200.789 355.704 200.485 356.561 199.872C356.911 199.615 357.194 199.277 357.386 198.887C357.577 198.497 357.672 198.066 357.661 197.632C357.68 197.131 357.555 196.635 357.301 196.202C356.986 195.782 356.579 195.44 356.111 195.202C355.343 194.797 354.54 194.462 353.711 194.202C352.525 193.874 351.427 193.283 350.501 192.472C350.198 192.139 349.963 191.749 349.811 191.325C349.658 190.902 349.59 190.452 349.611 190.002C349.6 189.467 349.716 188.938 349.949 188.456C350.182 187.975 350.525 187.555 350.951 187.232C351.929 186.482 353.14 186.099 354.371 186.152C355.746 186.144 357.108 186.42 358.371 186.962L357.991 187.872C356.851 187.377 355.624 187.112 354.381 187.092C353.43 187.038 352.488 187.31 351.711 187.862C351.387 188.109 351.126 188.431 350.952 188.8C350.778 189.169 350.696 189.574 350.711 189.982C350.691 190.461 350.798 190.937 351.021 191.362C351.265 191.774 351.609 192.119 352.021 192.362C352.783 192.767 353.579 193.101 354.401 193.362C355.332 193.656 356.228 194.051 357.071 194.542C357.604 194.867 358.05 195.317 358.371 195.852C358.656 196.397 358.797 197.007 358.781 197.622" fill="black"/>
<path d="M371.461 201.502H370.391V187.342H365.471V186.342H376.381V187.342H371.461V201.502Z" fill="black"/>
<path d="M379.691 193.982H382.581C383.65 194.053 384.709 193.753 385.581 193.132C385.94 192.82 386.221 192.429 386.403 191.99C386.585 191.551 386.663 191.076 386.631 190.602C386.674 190.133 386.606 189.66 386.432 189.222C386.259 188.785 385.984 188.394 385.631 188.082C384.614 187.474 383.433 187.197 382.251 187.292H379.741L379.691 193.982ZM379.691 194.892V201.502H378.631V186.392H382.241C383.703 186.27 385.165 186.62 386.411 187.392C386.867 187.772 387.226 188.255 387.459 188.801C387.692 189.346 387.792 189.94 387.751 190.532C387.783 191.454 387.501 192.36 386.951 193.102C386.328 193.859 385.469 194.387 384.511 194.602L388.621 201.512H387.361L383.451 194.902L379.691 194.892Z" fill="black"/>
<path d="M392.771 195.192H398.191L396.131 189.732C395.961 189.302 395.751 188.732 395.511 187.952C395.34 188.562 395.136 189.163 394.901 189.752L392.771 195.192ZM398.551 196.192H392.391L390.271 201.542H389.101L395.201 186.322H395.871L401.871 201.542H400.681L398.551 196.192Z" fill="black"/>
<path d="M415.011 201.502H413.941L404.941 188.042H404.861C404.941 189.642 404.991 190.852 404.991 191.672V201.502H403.991V186.392H405.051L414.051 199.832H414.121C414.051 198.582 414.021 197.402 414.021 196.282V186.392H415.021L415.011 201.502Z" fill="black"/>
<path d="M427.671 197.592C427.693 198.167 427.578 198.74 427.334 199.261C427.091 199.783 426.727 200.239 426.271 200.592C425.203 201.377 423.896 201.769 422.571 201.702C421.126 201.768 419.68 201.561 418.311 201.092V200.042C419.642 200.544 421.06 200.779 422.481 200.732C423.55 200.798 424.61 200.494 425.481 199.872C425.831 199.615 426.114 199.277 426.306 198.887C426.497 198.497 426.592 198.066 426.581 197.632C426.601 197.129 426.473 196.632 426.211 196.202C425.903 195.78 425.498 195.437 425.031 195.202C424.263 194.797 423.46 194.462 422.631 194.202C421.445 193.874 420.347 193.283 419.421 192.472C419.103 192.101 418.861 191.67 418.71 191.204C418.56 190.738 418.503 190.247 418.544 189.76C418.585 189.272 418.723 188.797 418.949 188.364C419.175 187.93 419.485 187.545 419.861 187.232C420.844 186.482 422.057 186.1 423.291 186.152C424.666 186.144 426.028 186.42 427.291 186.962L426.911 187.872C425.771 187.377 424.544 187.112 423.301 187.092C422.35 187.038 421.408 187.31 420.631 187.862C420.307 188.109 420.046 188.431 419.872 188.8C419.698 189.169 419.616 189.574 419.631 189.982C419.611 190.461 419.718 190.937 419.941 191.362C420.185 191.774 420.529 192.119 420.941 192.362C421.703 192.767 422.499 193.101 423.321 193.362C424.251 193.657 425.147 194.053 425.991 194.542C426.524 194.867 426.97 195.317 427.291 195.852C427.576 196.397 427.717 197.007 427.701 197.622" fill="black"/>
<path d="M431.931 201.502H430.871V186.342H439.171V187.322H431.931V193.742H438.771V194.732H431.931V201.502Z" fill="black"/>
<path d="M441.871 193.902C441.762 195.686 442.275 197.453 443.321 198.902C443.863 199.462 444.512 199.907 445.229 200.211C445.946 200.515 446.717 200.671 447.496 200.671C448.275 200.671 449.046 200.515 449.764 200.211C450.481 199.907 451.13 199.462 451.671 198.902C452.728 197.439 453.241 195.653 453.121 193.852C453.239 192.067 452.726 190.297 451.671 188.852C451.16 188.259 450.519 187.792 449.797 187.488C449.075 187.185 448.293 187.053 447.511 187.102C446.728 187.058 445.945 187.193 445.222 187.498C444.499 187.803 443.856 188.27 443.341 188.862C442.281 190.305 441.76 192.074 441.871 193.862V193.902ZM454.271 193.862C454.388 195.92 453.744 197.948 452.461 199.562C451.816 200.227 451.043 200.755 450.189 201.116C449.336 201.476 448.418 201.662 447.491 201.662C446.565 201.662 445.647 201.476 444.794 201.116C443.94 200.755 443.167 200.227 442.521 199.562C441.343 197.891 440.711 195.896 440.711 193.852C440.711 191.807 441.343 189.813 442.521 188.142C443.172 187.486 443.946 186.965 444.799 186.61C445.652 186.254 446.567 186.071 447.491 186.071C448.415 186.071 449.33 186.254 450.183 186.61C451.036 186.965 451.811 187.486 452.461 188.142C453.73 189.766 454.366 191.795 454.251 193.852" fill="black"/>
<path d="M458.811 193.982H461.701C462.77 194.053 463.829 193.753 464.701 193.132C465.06 192.82 465.341 192.429 465.523 191.99C465.705 191.551 465.783 191.076 465.751 190.602C465.794 190.133 465.726 189.66 465.552 189.222C465.379 188.785 465.104 188.394 464.751 188.082C463.734 187.474 462.553 187.197 461.371 187.292H458.861L458.811 193.982ZM458.811 194.892V201.502H457.751V186.392H461.361C462.823 186.27 464.285 186.62 465.531 187.392C465.989 187.77 466.35 188.253 466.583 188.799C466.816 189.345 466.915 189.94 466.871 190.532C466.903 191.454 466.621 192.36 466.071 193.102C465.448 193.859 464.589 194.387 463.631 194.602L467.751 201.512H466.481L462.571 194.902L458.811 194.892Z" fill="black"/>
<path d="M477.031 201.502L471.381 187.502H471.301C471.361 188.362 471.381 189.242 471.381 190.132V201.502H470.381V186.392H472.021L477.391 199.722H477.451L482.811 186.392H484.411V201.552H483.341V190.012C483.341 189.212 483.381 188.382 483.461 187.522H483.381L477.711 201.522L477.031 201.502Z" fill="black"/>
<path d="M490.211 195.192H495.631L493.571 189.732C493.401 189.302 493.191 188.732 492.951 187.952C492.78 188.562 492.576 189.163 492.341 189.752L490.211 195.192ZM495.991 196.192H489.831L487.711 201.542H486.541L492.641 186.322H493.311L499.311 201.542H498.121L495.991 196.192Z" fill="black"/>
<path d="M508.091 201.502L502.441 187.502H502.361C502.421 188.362 502.441 189.242 502.441 190.132V201.502H501.441V186.392H503.081L508.451 199.722H508.511L513.871 186.392H515.471V201.552H514.401V190.012C514.401 189.212 514.441 188.382 514.521 187.522H514.441L508.771 201.522L508.091 201.502Z" fill="black"/>
</svg>
