<?xml version="1.0" encoding="UTF-8"?>
<svg id="Layer_1" data-name="Layer 1" xmlns="http://www.w3.org/2000/svg" viewBox="0 0 260 776">
  <g id="root">
    <path d="M.32,432.3c6.59-4.13,12.34-9.49,16.93-15.79,4.71-5.8,7.39-13.01,7.61-20.49,.07-1.65-.48-3.26-1.55-4.51-.61-.61-1.34-1.08-2.15-1.38-.81-.3-1.67-.41-2.53-.34-2.46,.02-4.9-.45-7.18-1.38-2.28-.93-4.35-2.32-6.1-4.06-1.75-1.75-3.13-3.82-4.07-6.11-.94-2.29-1.42-4.74-1.41-7.22-.06-2.43,.39-4.84,1.33-7.08,.94-2.24,2.34-4.25,4.12-5.89,3.54-3.41,8.29-5.26,13.19-5.16,3.3-.13,6.58,.52,9.58,1.91,3,1.39,5.63,3.47,7.67,6.07,4.49,5.96,6.77,13.31,6.45,20.79,.11,11.29-3.19,22.36-9.48,31.71-7.4,10.42-17.41,18.67-29.02,23.93l-3.39-4.99Z" style="fill: #edd4d5;"/>
    <path d="M168.65,111.88c3.55-2.61,6.42-6.05,8.35-10.02,2.09-4.23,3.2-8.89,3.23-13.62v-16.89c-.03-4.74-1.14-9.41-3.23-13.65-1.94-3.96-4.81-7.39-8.35-9.99-3.37-2.49-7.46-3.81-11.64-3.76-13.57,0-20.36,9.47-20.38,28.41v14.75c0,19.05,6.79,28.57,20.38,28.57,4.18,.03,8.26-1.29,11.64-3.76v-.03Zm-31.41,2.53c-5.34-3.33-9.62-8.14-12.32-13.85-2.89-6.56-4.38-13.66-4.38-20.83s1.49-14.27,4.38-20.83c2.7-5.69,6.98-10.47,12.32-13.78,5.52-3.32,11.86-5,18.28-4.86,5.29-.12,10.47,1.45,14.8,4.51,4.32,3.16,7.76,7.39,9.96,12.29V4.41l-10.25-1.46V0h24.89V113.5l10.26,1.46v2.95h-24.73v-15.31c-2.21,4.9-5.64,9.13-9.96,12.29-4.34,3.03-9.52,4.6-14.8,4.47-6.44,.15-12.78-1.56-18.28-4.93" style="fill: #edd4d5;"/>
    <path d="M217.05,60.96c-.92-.91-1.65-1.99-2.15-3.18-.5-1.19-.76-2.48-.76-3.77s.26-2.58,.76-3.77,1.23-2.28,2.15-3.18c.93-.92,2.04-1.65,3.26-2.13,1.22-.48,2.52-.7,3.83-.66,1.25-.03,2.5,.21,3.66,.69,1.16,.48,2.21,1.19,3.08,2.1,.9,.91,1.62,1.99,2.09,3.18,.48,1.19,.71,2.47,.68,3.76,.02,1.29-.21,2.57-.69,3.77s-1.18,2.29-2.08,3.21c-.86,.92-1.91,1.66-3.07,2.16-1.16,.5-2.41,.75-3.67,.73-1.3,.02-2.6-.22-3.81-.72-1.21-.5-2.3-1.23-3.22-2.17h-.07Zm-8.45,96.28v-2.95l10.25-1.46V85.51l-10.25-1.49v-2.95h24.93v71.76l10.25,1.46v2.95h-35.18Z" style="fill: #edd4d5;"/>
    <path d="M98.35,279.24v-2.95l11-1.46v-109.02l-11-1.46v-2.95h25.64v113.43l10.25,1.46v2.95h-35.89Z" style="fill: #edd4d5;"/>
    <path d="M197.86,269.54c3.94-6.29,5.87-13.65,5.51-21.08v-14.72c.37-7.41-1.56-14.75-5.51-21.01-1.96-2.46-4.44-4.45-7.26-5.81-2.82-1.36-5.92-2.07-9.05-2.07s-6.23,.71-9.05,2.07c-2.82,1.37-5.31,3.35-7.26,5.81-3.96,6.26-5.88,13.6-5.51,21.01v14.72c-.35,7.43,1.57,14.79,5.51,21.08,1.95,2.48,4.43,4.48,7.25,5.85,2.83,1.38,5.93,2.09,9.06,2.09s6.24-.71,9.07-2.09c2.83-1.38,5.3-3.38,7.25-5.85Zm-35.47,6.26c-5.76-3.31-10.51-8.16-13.7-14.01-3.3-6.38-5.03-13.46-5.03-20.66s1.72-14.28,5.03-20.66c3.2-5.82,7.94-10.64,13.7-13.91,5.88-3.26,12.48-4.96,19.19-4.96s13.31,1.71,19.19,4.96c5.76,3.27,10.5,8.09,13.7,13.91,3.32,6.37,5.06,13.46,5.06,20.66s-1.74,14.28-5.06,20.66c-3.2,5.85-7.94,10.7-13.7,14.01-5.88,3.23-12.48,4.93-19.19,4.93s-13.3-1.69-19.19-4.93Z" style="fill: #edd4d5;"/>
    <path d="M115.31,315.78c.41-6.49-1.32-12.93-4.93-18.32-1.78-2.19-4.05-3.92-6.63-5.05-2.58-1.13-5.39-1.62-8.2-1.43-12.9,0-19.35,8.25-19.35,24.74v9.73c-.36,6.4,1.31,12.74,4.77,18.13,1.68,2.2,3.88,3.95,6.41,5.08,2.52,1.13,5.29,1.61,8.04,1.4,2.81,.21,5.63-.28,8.21-1.4,2.58-1.13,4.86-2.87,6.62-5.08,3.56-5.35,5.29-11.71,4.93-18.13l.13-9.66Zm31.02-22.41c-5.06,4.17-11.3,6.62-17.83,7.01,3.65,6.1,5.4,13.16,5.03,20.27,.2,4.57-.67,9.12-2.54,13.29-1.87,4.17-4.69,7.84-8.23,10.71-7.77,6.03-17.4,9.13-27.22,8.75-4.17,.04-8.33-.35-12.41-1.17-8.29,.52-12.41,3.79-12.41,9.73-.09,1.5,.26,3,1,4.31s1.83,2.38,3.16,3.08c4.18,1.85,8.73,2.66,13.29,2.37h21.73c10.45,0,18.25,2.14,23.35,6.49,5.1,4.35,7.64,11.64,7.64,22.02,.06,7.09-1.85,14.05-5.51,20.11-3.89,6.28-9.48,11.31-16.12,14.49-7.79,3.78-16.37,5.62-25.02,5.38-14.58,0-25.32-2.22-32.25-6.65-3.13-1.72-5.74-4.26-7.57-7.35-1.82-3.09-2.78-6.61-2.79-10.2,.01-2.19,.46-4.35,1.33-6.35,.86-2.01,2.12-3.82,3.7-5.32,1.83-1.75,4-3.1,6.36-3.97,2.37-.88,4.89-1.26,7.41-1.12,2.4,.13,4.79,.38,7.16,.78-3.91,4.08-6.06,9.54-6,15.21-.03,2.7,.47,5.39,1.47,7.9,1,2.51,2.49,4.8,4.37,6.73,3.87,4.15,10.19,6.26,18.99,6.26,7.06,.11,14.05-1.4,20.44-4.41,5.53-2.52,10.31-6.44,13.87-11.38,3.06-4.19,4.75-9.23,4.84-14.43,.2-2.25-.17-4.52-1.09-6.58-.91-2.07-2.34-3.86-4.14-5.22-3.48-2.4-9.67-3.6-18.61-3.6h-23.67c-9.07,0-15.89-1.8-20.44-5.38-2.33-1.9-4.17-4.34-5.37-7.1-1.2-2.77-1.72-5.78-1.53-8.79-.08-4.45,1.33-8.8,4-12.36,2.45-3.46,6.05-5.92,10.16-6.94-11.22-4.8-16.84-14.53-16.86-29.19-.21-4.58,.65-9.15,2.5-13.35,1.85-4.19,4.65-7.89,8.17-10.81,7.6-6.04,17.09-9.15,26.76-8.79,13.54,0,23.38,2.89,29.44,8.59,3.01-.36,5.85-1.61,8.16-3.6,.84-.75,1.51-1.67,1.98-2.7,.47-1.03,.72-2.14,.73-3.27,.06-.87-.07-1.75-.37-2.57-.3-.82-.77-1.57-1.37-2.2-1.08-1.07-2.54-1.67-4.06-1.65,.06-2.86,1.22-5.58,3.25-7.58,2.02-2.01,4.75-3.14,7.59-3.15,2.93-.12,5.79,.93,7.97,2.92,1.06,1,1.9,2.21,2.45,3.56s.82,2.8,.77,4.26c.01,2.43-.48,4.85-1.45,7.08-.97,2.23-2.38,4.24-4.16,5.89" style="fill: #a43c44;"/>
    <path d="M229.21,377.59c5.2-8.33,7.73-18.07,7.26-27.89v-19.46c.48-9.79-2.05-19.5-7.26-27.79-2.6-3.25-5.9-5.87-9.64-7.67-3.74-1.8-7.84-2.74-11.98-2.74s-8.24,.93-11.99,2.74c-3.74,1.8-7.03,4.42-9.64,7.67-5.21,8.29-7.74,18-7.26,27.79v19.46c-.47,9.82,2.06,19.56,7.26,27.89,2.58,3.29,5.86,5.94,9.61,7.77,3.74,1.83,7.85,2.77,12.01,2.77s8.27-.95,12.01-2.77c3.74-1.83,7.03-4.48,9.61-7.77Zm-47.01,8.3c-7.64-4.36-13.91-10.77-18.12-18.52-4.41-8.43-6.71-17.81-6.71-27.34s2.3-18.91,6.71-27.34c4.23-7.71,10.5-14.08,18.12-18.42,7.78-4.3,16.52-6.55,25.39-6.55s17.61,2.25,25.39,6.55c7.62,4.33,13.9,10.71,18.12,18.42,4.41,8.43,6.71,17.81,6.71,27.34s-2.3,18.91-6.71,27.34c-4.2,7.76-10.48,14.17-18.12,18.52-7.78,4.3-16.52,6.55-25.39,6.55s-17.61-2.25-25.39-6.55Z" style="fill: #a43c44;"/>
    <path d="M187.96,500.36h-14.67c-18.94,0-28.41,6.82-28.41,20.46-.03,4.23,1.28,8.37,3.74,11.8,2.58,3.61,6.03,6.5,10.03,8.4,4.26,2.07,8.91,3.18,13.64,3.24h15.67c4.83,.03,9.6-1,13.99-3.02,4.12-1.86,7.69-4.75,10.38-8.4,2.55-3.48,3.9-7.7,3.87-12.03,0-13.66-9.42-20.48-28.25-20.46Zm68.97,68.94l-1.45-10.31h-108.41l-1.45,10.31h-2.93v-25.03h15.38c-4.92-2.18-9.18-5.61-12.38-9.96-3.03-4.38-4.59-9.62-4.45-14.95-.14-6.48,1.56-12.87,4.9-18.42,3.32-5.35,8.1-9.64,13.77-12.36,6.52-2.93,13.58-4.44,20.72-4.44s14.2,1.51,20.72,4.44c5.66,2.69,10.43,6.99,13.7,12.36,3.29,5.56,4.97,11.95,4.84,18.42,.15,5.34-1.43,10.58-4.48,14.95-3.15,4.33-7.36,7.76-12.22,9.96h52.3l1.45-13.85h2.93v38.91l-2.93-.03Z" style="fill: #edd4d5;"/>
    <path d="M208.76,416.93c-6.25-3.97-13.57-5.91-20.96-5.54h-14.64c-7.36-.38-14.65,1.56-20.86,5.54-2.45,1.97-4.42,4.47-5.78,7.31-1.36,2.84-2.06,5.96-2.06,9.11s.71,6.27,2.06,9.11c1.36,2.84,3.33,5.34,5.78,7.31,6.22,3.95,13.51,5.88,20.86,5.51h14.64c7.38,.35,14.7-1.57,20.96-5.51,2.46-1.96,4.45-4.46,5.82-7.3,1.37-2.84,2.08-5.96,2.08-9.12s-.71-6.28-2.08-9.12c-1.37-2.85-3.36-5.34-5.82-7.3Zm6.22,35.67c-3.28,5.8-8.1,10.58-13.93,13.78-6.34,3.34-13.38,5.09-20.54,5.09s-14.2-1.75-20.54-5.09c-5.79-3.22-10.58-7.99-13.83-13.78-3.22-5.92-4.9-12.55-4.9-19.29s1.68-13.38,4.9-19.3c3.25-5.79,8.04-10.56,13.83-13.78,6.34-3.34,13.38-5.09,20.54-5.09s14.21,1.75,20.54,5.09c5.82,3.21,10.65,7.98,13.93,13.78,3.22,5.92,4.9,12.55,4.9,19.3s-1.68,13.38-4.9,19.29Z" style="fill: #edd4d5;"/>
    <path d="M33.37,561.85c-2.42-1.3-4.44-3.23-5.86-5.58-1.42-2.36-2.18-5.05-2.2-7.81-.15-2.45,.66-4.86,2.26-6.71,.79-.82,1.74-1.46,2.79-1.88,1.05-.42,2.18-.61,3.31-.56,1.77-.04,3.51,.48,4.97,1.49,1.4,1.01,2.43,2.46,2.93,4.12-1.99,2-3.14,4.69-3.22,7.52,.03,1.55,.42,3.08,1.13,4.46,.72,1.38,1.74,2.57,2.99,3.48,3.14,2.41,7.02,3.61,10.96,3.4,5.35,.22,10.63-1.25,15.09-4.22,1.84-1.22,3.35-2.9,4.37-4.87,1.03-1.97,1.54-4.16,1.5-6.39,.08-1.15-.1-2.31-.53-3.39-.43-1.07-1.1-2.03-1.96-2.81-2.98-2.04-6.24-3.64-9.67-4.73l-22.12-8.08c-8.71-3.24-12.9-9.01-12.9-17.54-.09-3.21,.5-6.4,1.74-9.36,1.24-2.96,3.1-5.62,5.45-7.79,5.48-4.72,12.56-7.12,19.77-6.71,6.27-.19,12.46,1.48,17.8,4.8,2.33,1.4,4.25,3.4,5.56,5.79,1.3,2.4,1.95,5.1,1.86,7.83,.1,2.06-.58,4.09-1.9,5.68-.63,.7-1.4,1.26-2.26,1.62-.86,.37-1.8,.54-2.73,.52-1.83,.07-3.62-.54-5.03-1.72-.66-.57-1.19-1.28-1.54-2.08-.35-.8-.5-1.68-.46-2.55,1.15-.83,2.06-1.95,2.64-3.24,.52-1.29,.77-2.67,.74-4.05,.01-1.34-.31-2.67-.94-3.85-.63-1.19-1.55-2.19-2.67-2.93-3.32-2.03-7.19-2.96-11.06-2.66-3.77-.1-7.52,.57-11.03,1.98-2.76,1.08-5.17,2.89-6.97,5.25-1.46,1.85-2.28,4.13-2.35,6.49-.04,1.07,.16,2.14,.61,3.11,.44,.97,1.11,1.83,1.94,2.5,2.92,1.96,6.1,3.49,9.45,4.54l20.54,7.39c4.23,1.38,7.98,3.93,10.83,7.36,2.55,3.55,3.83,7.85,3.64,12.23,.11,3.27-.43,6.53-1.59,9.58-1.16,3.06-2.91,5.85-5.15,8.22-4.48,4.73-11.32,7.07-20.51,7.07-7.04,.26-14-1.53-20.06-5.16" style="fill: #edd4d5;"/>
    <path d="M100.61,469.26c-.92-.91-1.65-1.99-2.15-3.18-.5-1.2-.76-2.48-.76-3.77s.26-2.58,.76-3.77c.5-1.19,1.23-2.28,2.15-3.18,.93-.92,2.04-1.65,3.26-2.13,1.22-.48,2.52-.7,3.83-.66,1.25-.02,2.5,.22,3.65,.7,1.16,.48,2.21,1.19,3.08,2.09,.9,.91,1.62,1.99,2.09,3.18,.48,1.19,.71,2.47,.68,3.76,.02,1.29-.21,2.57-.69,3.77-.48,1.2-1.18,2.29-2.08,3.21-.86,.92-1.91,1.66-3.07,2.16-1.16,.5-2.41,.75-3.67,.73-1.31,.02-2.6-.23-3.81-.72s-2.3-1.23-3.22-2.17h-.06Zm-8.51,96.28v-2.95l10.25-1.46v-67.32l-10.25-1.49v-2.95h24.93v71.63l10.25,1.46v2.95l-35.18,.13Z" style="fill: #edd4d5;"/>
    <path d="M130.05,676.48c-3.87-3.24-5.77-8.4-5.77-15.47v-53.02l-10.42-1.49v-2.95h10.42v-12.22l14.64-3.66v15.89h18.96v2.85l-19.06,1.49v52.73c0,10.4,3.71,15.6,11.12,15.6,1.52,.01,3.04-.23,4.48-.71,1.12-.38,2.21-.88,3.23-1.49,.55-.28,1.07-.62,1.55-1.01l1.9,2.34c-4.34,3.91-10,6.02-15.83,5.9-5.56,.29-11.04-1.44-15.45-4.86" style="fill: #edd4d5;"/>
    <path d="M174.65,583.7c-.94-.9-1.69-1.99-2.2-3.19-.51-1.2-.76-2.5-.74-3.81-.03-1.29,.21-2.57,.71-3.76,.49-1.19,1.23-2.26,2.16-3.15,.93-.93,2.04-1.66,3.26-2.14,1.22-.48,2.52-.71,3.83-.68,1.26-.02,2.5,.22,3.66,.7,1.16,.49,2.21,1.21,3.08,2.12,.92,.89,1.64,1.97,2.12,3.16,.48,1.19,.72,2.47,.68,3.75,.02,1.3-.22,2.58-.7,3.79-.48,1.2-1.2,2.3-2.11,3.22-.86,.92-1.91,1.65-3.07,2.14-1.16,.49-2.41,.73-3.67,.71-1.3,.02-2.6-.22-3.8-.71-1.21-.49-2.3-1.22-3.22-2.15Zm-8.48,96.25v-2.92l10.25-1.49v-67.42l-10.25-1.46v-2.95h24.89v71.73l10.25,1.49v2.92l-35.15,.1Z" style="fill: #edd4d5;"/>
    <path d="M141.95,776l-31.34-74.84-9.54-1.46v-2.95h36.5v2.95l-10.58,1.91,22.12,55.39,19.8-53.47-12.9-3.7v-2.92h26.22v2.92l-9.22,3.57-26.96,72.61h-4.1Z" style="fill: #edd4d5;"/>
    <path d="M238.49,763.32c3.94-6.28,5.85-13.63,5.48-21.05v-14.72c.38-7.41-1.54-14.75-5.48-21.01-1.96-2.46-4.45-4.45-7.27-5.81s-5.92-2.07-9.06-2.07-6.23,.71-9.06,2.07c-2.83,1.36-5.31,3.35-7.27,5.81-3.93,6.27-5.85,13.61-5.48,21.01v14.72c-.35,7.41,1.56,14.76,5.48,21.05,1.94,2.49,4.42,4.5,7.25,5.88,2.83,1.38,5.93,2.1,9.08,2.1s6.25-.72,9.08-2.1c2.83-1.38,5.31-3.39,7.25-5.88Zm-35.47,6.26c-5.78-3.28-10.53-8.12-13.7-13.98-3.46-6.33-5.2-13.47-5.06-20.69-.15-7.2,1.6-14.32,5.06-20.62,3.21-5.8,7.96-10.59,13.7-13.85,5.88-3.23,12.48-4.93,19.19-4.93s13.3,1.69,19.19,4.93c5.75,3.3,10.48,8.12,13.67,13.94,3.47,6.3,5.21,13.42,5.06,20.62,.08,7.19-1.71,14.28-5.19,20.56-3.18,5.85-7.91,10.69-13.67,13.98-5.88,3.26-12.48,4.96-19.19,4.96s-13.31-1.71-19.19-4.96" style="fill: #edd4d5;"/>
    <path d="M208.05,155.23c-1.66-2.89-4-5.34-6.8-7.13-3.25-2.05-6.95-3.26-10.77-3.53h-15.22v9.73c0,8.07,1.77,14.07,5.35,18.06,1.91,2.04,4.24,3.64,6.84,4.68,2.59,1.04,5.38,1.49,8.16,1.32,2.07,.22,4.16-.01,6.13-.67,1.97-.66,3.79-1.74,5.31-3.15,2.02-2.8,3.18-6.13,3.36-9.58,.18-3.45-.64-6.88-2.36-9.88v.16Zm3.9,31.59c-1.8,2.08-4.05,3.71-6.58,4.76-2.53,1.05-5.27,1.5-8,1.31-4.05,.26-8.08-.71-11.57-2.79-3.49-2.08-6.28-5.16-8-8.86-3.99-8.42-5.96-17.66-5.77-26.98v-9.73h-11.29c-4-.15-8,.42-11.8,1.69-2.54,.93-4.63,2.81-5.84,5.25-1.26,3.02-1.85,6.29-1.71,9.57-.28,3.65,.68,7.28,2.71,10.31,.87,1.07,1.99,1.92,3.24,2.49,1.26,.56,2.63,.82,4.01,.76,1.26,.09,2.52-.28,3.54-1.03,1.02-.75,1.74-1.85,2.04-3.09,1.21,0,2.4,.25,3.51,.73,1.11,.48,2.11,1.18,2.94,2.06,.88,.86,1.59,1.9,2.06,3.04,.48,1.14,.72,2.37,.71,3.61,.09,2.37-.71,4.69-2.26,6.49-.91,.9-2.01,1.59-3.21,2.02-1.2,.44-2.48,.61-3.76,.51-2.84-.03-5.61-.85-8.01-2.36-2.41-1.51-4.35-3.65-5.63-6.2-3.62-6.52-5.4-13.91-5.13-21.37,0-19.63,8.5-29.44,25.51-29.44h41.92c1.75,.13,3.48-.37,4.9-1.4,.53-.53,.95-1.15,1.24-1.84,.29-.69,.44-1.43,.44-2.18s-.15-1.49-.44-2.18c-.29-.69-.71-1.32-1.24-1.84-1.31-1.04-2.95-1.56-4.61-1.46v-3.24c1.5-.09,3,.15,4.39,.71,1.39,.56,2.65,1.42,3.67,2.53,2.09,2.58,3.14,5.86,2.93,9.18,.14,4.16-1.25,8.22-3.9,11.42-1.53,1.65-3.41,2.93-5.49,3.76-2.09,.83-4.33,1.18-6.57,1.04,4.92,2.32,9,6.1,11.71,10.83,2.86,4.91,4.33,10.52,4.26,16.21,.23,5.57-1.51,11.05-4.9,15.47" style="fill: #edd4d5;"/>
    <path d="M125.11,154.13c-1.93-3.12-4.43-5.84-7.38-8.01-2.73-2.25-6.14-3.52-9.67-3.6-.77-.03-1.53,.23-2.13,.71-.28,.29-.49,.64-.63,1.02-.14,.38-.2,.78-.17,1.19,0,1.16-.21,2.31-.65,3.39-.44,1.07-1.08,2.05-1.9,2.87-.82,.82-1.79,1.47-2.85,1.91s-2.21,.66-3.37,.65c-1.13,.03-2.26-.18-3.31-.63-1.05-.44-1.99-1.1-2.76-1.94-.79-.83-1.4-1.82-1.81-2.89-.41-1.07-.6-2.22-.57-3.37-.06-1.55,.24-3.1,.89-4.52,.64-1.41,1.61-2.65,2.82-3.62,2.78-2.1,6.2-3.16,9.67-3.02,5.28-.05,10.45,1.51,14.83,4.48,4.87,3.51,8.72,8.25,11.16,13.75l-2.16,1.62Z" style="fill: #edd4d5;"/>
  </g>
</svg>