<svg viewBox="0 0 136 135" fill="none" xmlns="http://www.w3.org/2000/svg">
  <g id="root">
    <path d="M44.5977 102.289L43.9859 101.498L43.9866 101.497L44.5977 102.289ZM48.3409 92.7613L47.3415 92.7939L47.3414 92.7927L48.3409 92.7613ZM47.465 76.2347L48.4433 76.0275L48.4439 76.0304L47.465 76.2347ZM46.6139 73.3591L47.4599 72.8259L47.4614 72.8283L46.6139 73.3591ZM38.6729 49.3213L39.6544 49.13L39.6545 49.1303L38.6729 49.3213ZM46.2503 28.7375L45.5618 28.0123L45.5622 28.0118L46.2503 28.7375ZM73.4943 20.5981L73.5656 19.6007L73.5656 19.6007L73.4943 20.5981ZM91.7065 27.0352L92.3227 26.2476L92.3232 26.248L91.7065 27.0352ZM103.589 49.7923L102.589 49.8038L102.589 49.8027L103.589 49.7923ZM101.931 58.7212C101.563 59.1333 100.931 59.1694 100.519 58.8018C100.107 58.4342 100.071 57.802 100.438 57.3899L101.931 58.7212ZM44.4401 118.972C43.0703 115.994 42.321 115.294 41.2131 110.739L43.1565 110.266C44.2039 114.573 44.8044 114.978 46.257 118.136L44.4401 118.972ZM41.2131 110.739C40.6617 108.472 40.5272 106.725 41.0092 105.222C41.4987 103.695 42.567 102.595 43.9859 101.498L45.2094 103.08C43.8932 104.098 43.2163 104.889 42.9137 105.833C42.6036 106.8 42.6302 108.102 43.1565 110.266L41.2131 110.739ZM43.9866 101.497C46.8077 99.3193 47.4607 96.4436 47.3415 92.7939L49.3404 92.7286C49.469 96.6646 48.7668 100.333 45.2088 103.08L43.9866 101.497ZM47.3414 92.7927C47.1632 87.1244 47.6028 81.788 46.4861 76.4391L48.4439 76.0304C49.6078 81.6055 49.1716 87.3584 49.3404 92.7298L47.3414 92.7927ZM46.4867 76.442C46.3689 75.8859 46.3029 75.4593 46.1836 74.9791C46.0715 74.5281 45.9415 74.1695 45.7664 73.8899L47.4614 72.8283C47.7986 73.3667 47.9908 73.9585 48.1246 74.4969C48.2511 75.0063 48.3545 75.6085 48.4433 76.0275L46.4867 76.442ZM45.7679 73.8923C41.0173 66.3557 39.2813 57.6848 37.6913 49.5122L39.6545 49.1303C41.2541 57.3521 42.9391 65.6539 47.4599 72.8259L45.7679 73.8923ZM37.6914 49.5125C36.1142 41.4174 39.4987 33.7687 45.5618 28.0123L46.9389 29.4627C41.235 34.8781 38.2403 41.8719 39.6544 49.13L37.6914 49.5125ZM45.5622 28.0118C53.5163 20.4692 63.482 18.8798 73.5656 19.6007L73.423 21.5956C63.6252 20.8952 54.3209 22.4624 46.9384 29.4631L45.5622 28.0118ZM73.5656 19.6007C80.1662 20.0728 86.7321 21.8746 92.3227 26.2476L91.0904 27.8229C85.9057 23.7674 79.7627 22.049 73.423 21.5956L73.5656 19.6007ZM92.3232 26.248C99.9567 32.2275 104.486 39.9003 104.589 49.7819L102.589 49.8027C102.494 40.6291 98.3303 33.4941 91.0899 27.8225L92.3232 26.248ZM104.589 49.7807C104.623 52.6973 104.309 56.0545 101.931 58.7212L100.438 57.3899C102.29 55.3135 102.622 52.622 102.589 49.8038L104.589 49.7807Z" fill="#A9383D"/>
    <path d="M47.4938 78.3119C47.9846 78.0585 48.5878 78.2509 48.8412 78.7416C49.0946 79.2324 48.9022 79.8356 48.4114 80.089L47.4938 78.3119ZM42.2469 79.2005L42.9361 78.4758L42.9367 78.4764L42.2469 79.2005ZM37.4542 70.0448L36.463 70.1772L36.4629 70.1761L37.4542 70.0448ZM48.4114 80.089C48.1751 80.211 47.9476 80.3379 47.7154 80.4684C47.4883 80.5962 47.2498 80.7313 47.0152 80.8549C46.5493 81.1002 46.022 81.3425 45.4381 81.4504C44.1449 81.6896 42.9165 81.2195 41.5572 79.9245L42.9367 78.4764C44.0233 79.5116 44.6334 79.5653 45.0744 79.4838C45.3577 79.4314 45.6713 79.3022 46.0833 79.0853C46.2876 78.9777 46.4973 78.8589 46.7353 78.7251C46.9683 78.5941 47.223 78.4518 47.4938 78.3119L48.4114 80.089ZM41.5578 79.9251C38.7009 77.208 36.9579 73.8796 36.463 70.1772L38.4454 69.9123C38.8761 73.1346 40.3887 76.0531 42.9361 78.4758L41.5578 79.9251ZM36.4629 70.1761C36.2092 68.2618 36.6742 66.5464 38.2873 65.7365C39.7391 65.0075 41.7691 65.232 44.0747 66.0611L43.3978 67.9431C41.1999 67.1527 39.8617 67.1839 39.1847 67.5238C38.6691 67.7827 38.2448 68.3984 38.4456 69.9134L36.4629 70.1761Z" fill="#A9383D"/>
    <path d="M54.3028 117.55L53.6396 118.299L53.6396 118.299L54.3028 117.55ZM70.7715 112.609L69.8054 112.351L69.8056 112.35L70.7715 112.609ZM73.1353 97.9325C73.259 97.3942 73.7956 97.0582 74.3339 97.1819C74.8721 97.3056 75.2082 97.8422 75.0845 98.3805L73.1353 97.9325ZM54.966 116.802C58.0679 119.55 61.2383 120.407 63.8077 119.705C66.3566 119.009 68.6466 116.687 69.8054 112.351L71.7376 112.867C70.4587 117.653 67.7784 120.694 64.3344 121.634C60.9108 122.569 57.0657 121.335 53.6396 118.299L54.966 116.802ZM69.8056 112.35C71.0807 107.595 72.0177 102.795 73.1353 97.9325L75.0845 98.3805C73.9874 103.153 73.0239 108.071 71.7374 112.868L69.8056 112.35ZM48.4995 106.691C49.8196 108.672 50.624 110.555 51.4626 112.163C52.3126 113.793 53.2634 115.293 54.966 116.802L53.6396 118.299C51.6892 116.57 50.6032 114.84 49.6893 113.088C48.7639 111.313 48.077 109.663 46.8354 107.801L48.4995 106.691Z" fill="#A9383D"/>
    <path d="M93.5538 49.9073L93.3079 48.9379L93.3085 48.9378L93.5538 49.9073ZM99.2471 47.3374L99.0171 46.3642C99.3354 46.289 99.6703 46.3741 99.914 46.5922L99.2471 47.3374ZM101.265 65.8607L100.27 65.9581C100.269 65.9469 100.268 65.9357 100.267 65.9244L101.265 65.8607ZM73.7397 96.9764L73.9627 96.0016L73.7397 96.9764ZM51.4823 84.4434C51.1006 84.0443 51.1146 83.4113 51.5137 83.0295C51.9128 82.6478 52.5459 82.6618 52.9276 83.0609L51.4823 84.4434ZM91.3516 90.0428L92.0653 90.7431L91.3516 90.0428ZM69.2782 44.0161C76.7499 48.7974 84.5051 51.1704 93.3079 48.9379L93.7996 50.8766C84.291 53.288 75.9659 50.6701 68.2002 45.7007L69.2782 44.0161ZM93.3085 48.9378C94.178 48.7178 94.911 48.2882 95.8192 47.7629C96.6996 47.2536 97.7224 46.6702 99.0171 46.3642L99.4772 48.3106C98.4995 48.5416 97.7044 48.9829 96.8206 49.4941C95.9645 49.9893 94.9871 50.5761 93.799 50.8767L93.3085 48.9378ZM99.914 46.5922C100.669 47.2678 101.239 47.8799 101.574 48.713C101.898 49.5182 101.958 50.428 101.964 51.5855C101.978 53.9392 101.756 57.857 102.263 65.7969L100.267 65.9244C99.7549 57.9075 99.9777 53.8652 99.9645 51.5972C99.9578 50.4437 99.8865 49.8773 99.7182 49.4586C99.5612 49.0678 99.2797 48.7085 98.5803 48.0826L99.914 46.5922ZM73.5166 97.9512C69.7986 97.1005 65.2298 94.6925 61.1745 92.0619C57.107 89.4233 53.4252 86.4745 51.4823 84.4434L52.9276 83.0609C54.7251 84.9401 58.269 87.7931 62.2629 90.384C66.269 92.9827 70.5974 95.2316 73.9627 96.0016L73.5166 97.9512ZM102.261 65.7632C102.596 69.1849 101.654 73.7747 99.8659 78.2812C98.0706 82.8051 95.371 87.3741 92.0653 90.7431L90.6378 89.3424C93.7134 86.2079 96.284 81.8852 98.0069 77.5435C99.7368 73.1846 100.562 68.9351 100.27 65.9581L102.261 65.7632ZM92.0653 90.7431C88.9253 93.9433 85.2385 95.9507 81.8896 97.0575C78.5713 98.1542 75.4782 98.4 73.5166 97.9512L73.9627 96.0016C75.4415 96.3399 78.1412 96.1899 81.2621 95.1585C84.3525 94.1371 87.7514 92.2842 90.6378 89.3424L92.0653 90.7431Z" fill="#A9383D"/>
    <path d="M64.8569 38.5168C64.9365 37.9703 65.444 37.5917 65.9905 37.6713C66.5371 37.7509 66.9156 38.2585 66.836 38.805L64.8569 38.5168ZM66.648 40.7515L67.3871 40.0779L67.3904 40.0815L66.648 40.7515ZM67.1272 47.3621L67.9336 47.9535L67.9328 47.9547L67.1272 47.3621ZM59.2524 53.9975L58.9275 53.0517L58.9276 53.0517L59.2524 53.9975ZM66.836 38.805C66.7994 39.0563 66.8308 39.2307 66.8987 39.3911C66.9759 39.5738 67.1208 39.7858 67.3871 40.0779L65.9089 41.4251C65.5802 41.0644 65.2623 40.6567 65.0566 40.17C64.8414 39.6611 64.7695 39.1166 64.8569 38.5168L66.836 38.805ZM67.3904 40.0815C68.3856 41.1844 69.1027 42.4066 69.2514 43.7819C69.4026 45.1797 68.9495 46.5682 67.9336 47.9535L66.3208 46.7707C67.1229 45.6771 67.3474 44.7766 67.263 43.997C67.1763 43.195 66.7448 42.3514 65.9056 41.4215L67.3904 40.0815ZM67.9328 47.9547C65.799 50.8553 63.4717 53.6062 59.5771 54.9433L58.9276 53.0517C62.2055 51.9263 64.2247 49.6202 66.3217 46.7695L67.9328 47.9547ZM59.5772 54.9433C56.355 56.05 53.9538 58.6635 52.3806 61.5037C50.7934 64.3693 50.1576 67.2666 50.2832 68.7366L48.2905 68.907C48.1195 66.9063 48.9298 63.6062 50.6311 60.5346C52.3464 57.4377 55.0763 54.3745 58.9275 53.0517L59.5772 54.9433ZM50.2832 68.7366C50.452 70.711 49.9172 71.963 49.0451 72.7768C48.6405 73.1544 48.2066 73.3953 47.8701 73.5652C47.4663 73.769 47.334 73.8194 47.2302 73.8953L46.0498 72.2808C46.3303 72.0757 46.758 71.8862 46.9688 71.7798C47.2471 71.6393 47.4825 71.4995 47.6806 71.3146C48.014 71.0035 48.4184 70.4033 48.2905 68.907L50.2832 68.7366Z" fill="#A9383D"/>
    <path d="M109.74 48.6347C113.017 45.0999 116.7 41.6999 119.354 37.6557C120.644 35.691 123.938 30.5121 121.381 28.3308C119.071 26.361 115.583 27.8982 113.71 29.654C113.499 29.8519 111.69 31.6215 112.552 32.0525C113.713 32.6329 112.457 28.6995 112.304 28.4548C112.001 27.9705 107.971 24.2785 107.796 25.4775C107.258 29.1663 112.86 33.3409 115.509 34.8231C118.066 36.2542 121.44 36.9438 122.311 40.1368C122.811 41.9701 122.714 44.2847 121.484 45.8227C118.272 49.8382 112.973 42.2092 110.919 40.4056C110.695 40.2089 108.082 38.2993 108.086 38.2966C109.862 37.1663 114.169 38.3466 116.025 38.7515C119.484 39.506 115.151 38.4045 114.082 37.635C111.564 35.8219 111.408 33.4423 111.808 30.6465" stroke="#A9383D" stroke-width="2" stroke-linecap="round" stroke-linejoin="round" fill="none" />
  </g>
</svg>
