<svg viewBox="0 0 136 135" fill="none" xmlns="http://www.w3.org/2000/svg">
  <g id="root">
    <path d="M99.8137 100.179L100.176 99.2471L100.174 99.2464L99.8137 100.179ZM114.688 93.6142L113.772 94.0138L113.772 94.014L114.688 93.6142ZM110.094 64.4576L109.096 64.5138L109.096 64.5139L110.094 64.4576ZM110.022 44.2555H109.022V44.2567L110.022 44.2555ZM98.2836 31.4794L98.3975 30.4859L98.3974 30.4859L98.2836 31.4794ZM81.3802 28.1968L81.1017 29.1573L81.1017 29.1573L81.3802 28.1968ZM35.8833 41.5442L36.5826 42.2591L36.5826 42.259L35.8833 41.5442ZM21.7394 80.4358L22.739 80.4055L22.739 80.4053L21.7394 80.4358ZM33.045 96.8739C33.5567 97.0817 34.14 96.8354 34.3478 96.3237C34.5557 95.8121 34.3094 95.2288 33.7977 95.0209L33.045 96.8739ZM115.605 93.2147C111.624 84.0805 111.653 74.3413 111.093 64.4013L109.096 64.5139C109.646 74.2691 109.611 84.4665 113.772 94.0138L115.605 93.2147ZM111.093 64.4014C110.717 57.7176 111.03 51.0546 111.022 44.2543L109.022 44.2567C109.03 50.9245 108.716 57.7617 109.096 64.5138L111.093 64.4014ZM111.022 44.2555C111.022 40.1308 109.992 36.8813 107.803 34.5466C105.622 32.2203 102.426 30.9479 98.3975 30.4859L98.1697 32.4729C101.929 32.9039 104.603 34.0572 106.344 35.9145C108.077 37.7634 109.022 40.4555 109.022 44.2555H111.022ZM98.3974 30.4859C92.7518 29.8391 87.0884 28.8105 81.6586 27.2364L81.1017 29.1573C86.6621 30.7692 92.4392 31.8163 98.1698 32.4729L98.3974 30.4859ZM81.6586 27.2364C63.1224 21.8626 47.9367 28.3541 35.184 40.8294L36.5826 42.259C48.9799 30.1314 63.4496 24.0398 81.1017 29.1573L81.6586 27.2364ZM35.184 40.8294C24.2163 51.5583 20.2833 65.4963 20.7399 80.4663L22.739 80.4053C22.2945 65.8325 26.1172 52.4965 36.5826 42.2591L35.184 40.8294ZM20.7399 80.4661C20.8626 84.5106 22.1015 87.8883 24.2605 90.6296C26.4113 93.3605 29.4326 95.4064 33.045 96.8739L33.7977 95.0209C30.4187 93.6483 27.7156 91.7842 25.8317 89.3921C23.9559 87.0105 22.8496 84.0525 22.739 80.4055L20.7399 80.4661ZM100.95 109.113C99.402 108.581 98.0083 107.544 96.9326 106.314C95.8513 105.078 95.1499 103.715 94.9167 102.6C94.6763 101.449 94.9658 100.884 95.3547 100.649C95.8585 100.343 97.0655 100.19 99.4535 101.112L100.174 99.2464C97.6758 98.2817 95.6689 98.1198 94.3182 98.9383C92.8528 99.8264 92.6474 101.518 92.959 103.009C93.278 104.535 94.1755 106.2 95.4274 107.631C96.6849 109.068 98.3587 110.337 100.3 111.005L100.95 109.113ZM99.4517 101.111C102.324 102.227 107.153 102.666 110.855 101.745C112.703 101.286 114.452 100.443 115.46 98.9857C116.518 97.457 116.601 95.4977 115.605 93.2145L113.772 94.014C114.576 95.8595 114.371 97.0456 113.816 97.8476C113.211 98.7215 112.022 99.3943 110.372 99.8044C107.078 100.623 102.67 100.216 100.176 99.2471L99.4517 101.111Z" fill="#A9383D"/>
    <path d="M102.94 73.8627L101.945 73.9601L101.945 73.9605L102.94 73.8627ZM104.294 54.1353L103.299 54.2327L103.299 54.2328L104.294 54.1353ZM94.3821 35.7676L95.0958 35.0672C94.8523 34.819 94.4973 34.7151 94.1584 34.7929C93.8194 34.8707 93.5453 35.119 93.4343 35.4485L94.3821 35.7676ZM77.1407 50.8447L76.6792 49.9576L76.6786 49.9579L77.1407 50.8447ZM62.5463 62.1003L63.3746 62.6605L63.3753 62.6595L62.5463 62.1003ZM57.8491 73.5694C57.6872 74.0974 57.9839 74.6567 58.5119 74.8187C59.0399 74.9807 59.5992 74.6839 59.7612 74.1559L57.8491 73.5694ZM103.936 73.7653C103.584 70.1725 104.081 67.2299 104.603 64.1638C105.124 61.1054 105.67 57.9234 105.289 54.0378L103.299 54.2328C103.65 57.8214 103.154 60.7619 102.631 63.8281C102.111 66.8867 101.565 70.0706 101.945 73.9601L103.936 73.7653ZM105.289 54.0379C104.565 46.6402 100.656 40.7332 95.0958 35.0672L93.6683 36.468C99.0822 41.9851 102.639 47.4865 103.299 54.2327L105.289 54.0379ZM93.4343 35.4485C90.5845 43.9142 83.6045 46.3547 76.6792 49.9576L77.6022 51.7318C84.1932 48.303 92.1616 45.4979 95.3298 36.0866L93.4343 35.4485ZM76.6786 49.9579C71.1679 52.8295 65.5134 55.9141 61.7173 61.541L63.3753 62.6595C66.8523 57.5056 72.0591 54.6204 77.6028 51.7315L76.6786 49.9579ZM61.718 61.54C60.408 63.4767 59.7402 65.5697 59.2479 67.6147C58.7396 69.7266 58.4439 71.6305 57.8491 73.5694L59.7612 74.1559C60.3733 72.1607 60.7373 69.9734 61.1924 68.0827C61.6636 66.1251 62.2629 64.3041 63.3746 62.6605L61.718 61.54ZM82.5742 96.8684C89.0251 98.3927 94.7361 95.8775 98.6215 91.3664C102.49 86.8747 104.586 80.3799 103.936 73.7648L101.945 73.9605C102.544 80.0552 100.603 86.0016 97.1061 90.0612C93.6263 94.1014 88.6444 96.2476 83.0341 94.922L82.5742 96.8684Z" fill="#A9383D"/>
    <path d="M52.6097 108.176L51.6213 108.328L51.6214 108.328L52.6097 108.176ZM64.4204 119.963L64.1481 120.925L64.1485 120.925L64.4204 119.963ZM59.4679 77.3462C59.8366 77.7574 60.4688 77.7918 60.88 77.4231C61.2912 77.0544 61.3257 76.4222 60.957 76.011L59.4679 77.3462ZM50.7028 64.5059L51.3227 63.7212C50.9011 63.3881 50.2916 63.4477 49.9426 63.8562L50.7028 64.5059ZM50.92 76.5579L50.2484 77.2988L50.2495 77.2998L50.92 76.5579ZM51.6214 108.328C52.6528 115.033 58.452 119.313 64.1481 120.925L64.6927 119.001C59.4149 117.507 54.4654 113.661 53.5981 108.024L51.6214 108.328ZM61.9073 93.4805C55.9604 94.4686 52.8822 96.3144 51.6419 99.1517C51.0398 100.529 50.9267 102.029 51.0079 103.549C51.0886 105.058 51.37 106.693 51.6213 108.328L53.5981 108.024C53.3371 106.326 53.079 104.824 53.0051 103.442C52.9318 102.071 53.0492 100.926 53.4745 99.9528C54.2891 98.0894 56.454 96.414 62.2351 95.4534L61.9073 93.4805ZM60.957 76.011C59.3111 74.1753 58.037 72.0524 56.5747 69.8466C55.1371 67.6781 53.5423 65.4746 51.3227 63.7212L50.0829 65.2905C52.0388 66.8357 53.4892 68.8119 54.9077 70.9517C56.3016 73.0542 57.6946 75.3684 59.4679 77.3462L60.957 76.011ZM49.9426 63.8562C46.5983 67.7695 46.2378 73.6637 50.2484 77.2988L51.5916 75.817C48.5544 73.0641 48.6605 68.4348 51.463 65.1555L49.9426 63.8562ZM50.2495 77.2998C51.4302 78.3669 53.4875 79.9245 55.6288 81.6177C57.8037 83.3373 60.1117 85.2313 61.9053 87.0419C62.802 87.9472 63.5472 88.809 64.0784 89.5973C64.6197 90.4007 64.8813 91.0442 64.9268 91.5245C64.9655 91.933 64.8566 92.2453 64.5027 92.5439C64.0895 92.8925 63.2996 93.2491 61.9073 93.4805L62.2351 95.4534C63.7747 95.1976 64.9789 94.7589 65.7924 94.0725C66.6653 93.336 67.0161 92.3736 66.9179 91.336C66.8265 90.3703 66.3547 89.3964 65.7369 88.4797C65.109 87.5478 64.2693 86.5866 63.3262 85.6345C61.44 83.7303 59.0483 81.7718 56.8693 80.0488C54.6567 78.2994 52.706 76.8242 51.5905 75.816L50.2495 77.2998ZM64.1485 120.925C70.7839 122.8 77.2549 120.53 83.2006 118.614C89.2822 116.655 94.8043 115.066 100.158 117.446L100.97 115.618C94.8174 112.883 88.5565 114.787 82.5873 116.71C76.4821 118.677 70.6345 120.679 64.6923 119.001L64.1485 120.925Z" fill="#A9383D"/>
    <path d="M72.7089 87.2967C72.3435 86.8825 71.7116 86.843 71.2974 87.2084C70.8833 87.5738 70.8437 88.2057 71.2091 88.6198L72.7089 87.2967ZM86.5212 96.4864L86.59 95.4888L86.5895 95.4887L86.5212 96.4864ZM89.313 101.104L88.3336 100.902L88.3334 100.903L89.313 101.104ZM71.2091 88.6198C75.1761 93.1163 79.7002 97.0219 86.4529 97.4841L86.5895 95.4887C80.6465 95.082 76.5781 91.6823 72.7089 87.2967L71.2091 88.6198ZM86.4524 97.484C87.4158 97.5505 87.9022 97.958 88.1646 98.4701C88.4606 99.0479 88.5395 99.9047 88.3336 100.902L90.2923 101.307C90.5531 100.043 90.5193 98.6798 89.9445 97.558C89.336 96.3705 88.1931 95.5993 86.59 95.4888L86.4524 97.484ZM88.3334 100.903C87.2887 105.989 89.2928 111.523 91.2811 115.71L93.0877 114.852C91.1178 110.704 89.3903 105.698 90.2925 101.306L88.3334 100.903Z" fill="#A9383D"/>
    <path d="M109.646 14.0608C106.141 14.0608 104.84 14.9577 103.674 16.564C102.429 18.2794 101.903 20.3429 101.973 22.451C102.2 29.2421 110.468 27.6682 114.822 26.3196C117.291 25.5547 120.078 24.6414 122.269 23.2266C123.273 22.5789 123.623 21.6563 122.924 20.6288C120.126 16.5191 115.983 21.8468 115.186 24.7777C114.267 28.1615 117.639 31.8509 121.073 31.4216C122.187 31.2823 123.3 30.7217 124.064 29.8891C124.254 29.6811 124.472 29.094 124.064 28.964C123.114 28.662 121.891 29.8425 121.298 30.3657C119.971 31.536 117.364 33.7446 117.99 35.8415C118.492 37.5221 120.944 38.1757 122.307 38.8691" stroke="#A9383D" stroke-width="2" stroke-linecap="round" stroke-linejoin="round" fill="none" />
  </g>
</svg>
