<svg viewBox="0 0 136 135" fill="none" xmlns="http://www.w3.org/2000/svg">
  <g id="root">
    <path d="M94.2861 91.8339L95.2355 92.1479L95.2357 92.1471L94.2861 91.8339ZM59.6424 113.503C59.6386 114.055 60.0832 114.506 60.6355 114.51C61.1878 114.514 61.6385 114.069 61.6423 113.517L59.6424 113.503ZM96.0105 47.4481C96.2583 47.6722 96.4166 47.8141 96.5298 47.9231C96.6526 48.0414 96.6484 48.0528 96.6228 48.0105C96.5642 47.9133 96.5387 47.793 96.5406 47.7047C96.5406 47.7034 96.5411 47.6909 96.5101 47.8966C96.4008 48.622 96.3163 49.9353 97.175 53.3635L99.115 52.8775C98.2935 49.5976 98.4316 48.5675 98.4878 48.1946C98.4981 48.1258 98.5365 47.9166 98.5401 47.7477C98.5456 47.4917 98.4894 47.2328 98.3354 46.9775C98.2145 46.777 98.05 46.6105 97.9171 46.4826C97.7747 46.3454 97.5819 46.1726 97.3524 45.965L96.0105 47.4481ZM97.175 53.3635C97.9709 56.5409 98.0606 62.9283 97.4052 70.1865C96.7532 77.4079 95.3788 85.3284 93.3364 91.5207L95.2357 92.1471C97.3415 85.7627 98.7367 77.6805 99.3971 70.3664C100.054 63.0891 99.9994 56.4082 99.115 52.8775L97.175 53.3635ZM93.3366 91.5199C92.4504 94.1995 91.3791 97.4331 89.8139 99.8265C89.0368 101.015 88.1819 101.924 87.2368 102.461C86.3207 102.981 85.2719 103.181 83.9998 102.876L83.5341 104.821C85.3037 105.245 86.8717 104.969 88.2245 104.2C89.5484 103.448 90.6146 102.256 91.4878 100.921C93.2234 98.2672 94.3699 94.7651 95.2355 92.1479L93.3366 91.5199ZM83.9998 102.876C83.2769 102.703 82.3808 102.429 81.3266 102.104C80.2847 101.783 79.1077 101.418 77.8664 101.083C75.3951 100.416 72.5889 99.8396 69.9323 99.9467C67.2592 100.054 64.6438 100.86 62.7069 103.047C60.7859 105.216 59.6761 108.583 59.6424 113.503L61.6423 113.517C61.6742 108.854 62.7274 106.04 64.204 104.373C65.6647 102.724 67.6815 102.039 70.0128 101.945C72.3604 101.85 74.9306 102.362 77.3449 103.014C78.5465 103.339 79.6897 103.692 80.7375 104.015C81.773 104.334 82.736 104.63 83.5341 104.821L83.9998 102.876Z" fill="#A9383D"/>
    <path d="M42.3508 115.678C55.1569 100.989 58.3584 93.2361 56.7891 87.2725C55.2197 81.3089 49.69 70.1829 44.103 65.6063C40.9877 63.0612 40.087 59.8799 39.8309 55.9135C39.5086 50.8729 39.0872 45.6753 36.1868 40.99C39.583 37.0733 43.0949 33.1895 46.4084 29.1405C51.3251 23.1249 57.7291 20.3567 65.3313 20.4393C71.0164 20.4971 76.6603 21.4226 82.3867 21.4639C85.7994 21.4887 91.0383 21.4392 92.1787 24.2321C94.1123 28.9505 98.8141 29.8264 101.277 33.3217C101.417 33.5283 101.293 33.9249 101.293 34.3381C100.541 35.6189 99.7396 36.9824 98.9298 38.3706C100.525 39.9489 104.438 41.4443 105.737 42.6062C103.432 45.2173 98.9003 47.1081 95.5526 47.8813C92.205 48.6546 78.4778 52.6837 68.8733 47.8813C59.2688 43.079 50.8255 51.02 55.3767 65.7721C59.9279 80.5242 52.6388 76.4645 55.3767 83.0586M50.8255 74.2467C43.2436 71.108 41.12 73.1592 40.8721 76.1835C40.6572 78.8608 42.9787 80.5913 46.9021 83.0586C50.8255 85.5259 49.5718 91.132 57.1325 89.3877" stroke="#A9383D" stroke-width="2" stroke-linecap="round" stroke-linejoin="round" fill="none" />
    <path d="M105.855 70.1132C105.855 64.8323 113.208 67.2892 116.018 63.8662C119.302 59.8658 117.372 52.7825 105.302 56.6637" stroke="#A9383D" stroke-width="2" stroke-linecap="round" stroke-linejoin="round" fill="none" />
    <ellipse cx="1.13619" cy="1.20032" rx="1.13619" ry="1.20032" transform="matrix(-0.127822 0.991797 -0.999973 0.00735526 106.412 73.0061)" fill="#A9383D"/>
  </g>
</svg>
