<svg viewBox="0 0 502 486" fill="none" xmlns="http://www.w3.org/2000/svg">
  <g id="root">
    <path d="M70.8419 459.507C63.6551 459.93 62.8072 448.493 67.8835 448.493H75.0703C67.887 448.493 69.1534 452.729 67.4613 445.952C65.7693 439.174 64.925 422.233 61.9666 401.481C59.0081 380.729 64.5029 352.77 64.5029 352.77C64.5029 352.77 59.8523 357.856 75.496 358.279C91.1397 358.702 94.0982 351.502 113.967 349.806C133.835 348.111 147.787 349.383 147.787 350.652C147.787 351.921 143.558 282.885 135.527 252.388C127.496 221.892 127.07 219.774 127.07 219.774C127.07 219.774 127.493 238.411 92.4061 238.411C57.3196 238.411 45.0529 228.261 45.0529 228.261C45.0529 228.261 56.8903 196.918 58.1567 175.744C59.4231 154.569 59.0045 146.093 58.5824 142.702C58.1603 139.312 45.0529 173.199 38.7103 188.872C32.3677 204.545 31.9456 206.66 29.4092 211.745C26.8729 216.831 20.1082 242.238 18.4197 245.629C16.7312 249.019 9.11861 243.511 6.58228 244.779C4.04595 246.048 1.50962 249.439 1.0875 257.485C0.665372 265.531 11.2328 279.512 13.347 275.699C15.4612 271.886 9.11862 256.639 12.4992 259.603C15.8798 262.567 17.1497 271.04 17.9976 265.112C18.8454 259.184 21.8003 256.216 17.1497 251.557C12.4992 246.898 6.58227 246.475 7.0044 240.12C7.42652 233.766 10.385 214.283 12.4992 202.004C14.6134 189.725 13.7691 188.872 18.4197 176.589C23.0702 164.307 39.5581 134.656 42.5166 128.302C45.475 121.947 52.6619 114.324 53.9319 113.904C55.2018 113.485 66.1914 108.396 71.6862 107.973C77.1809 107.55 82.2572 99.9266 83.1014 96.5361C83.9457 93.1456 95.361 80.0173 91.9804 77.0533C88.5998 74.0893 78.0288 80.4438 86.9041 95.6903C95.7795 110.937 105.084 117.291 99.1672 129.574C93.2503 141.856 90.2883 140.588 97.053 133.387C103.818 126.187 111.005 124.069 112.693 113.055C114.382 102.041 121.15 96.9591 114.385 83.4078C107.62 69.8565 100.856 63.0755 95.3609 65.1937C94.4019 65.5427 93.5469 66.1299 92.8762 66.9003C92.2054 67.6707 91.7409 68.5991 91.5261 69.5985C91.0181 71.8923 91.8516 73.9567 92.821 73.2255C94.5131 71.9568 89.4405 82.967 85.2121 85.9345C80.9836 88.9021 73.3747 78.3113 75.911 62.2153C78.4473 46.1194 90.2847 35.955 101.7 35.1056C113.115 34.2562 128.755 44.0012 127.485 63.4841C126.215 82.967 118.61 89.7444 118.61 85.0851C118.61 80.4259 128.755 67.2975 128.755 74.9208C128.755 82.544 122.838 86.7804 121.146 90.5938C119.454 94.4072 116.496 104.994 116.918 107.536C117.34 110.077 100.008 117.277 93.2432 113.89C88.9953 111.779 84.6187 109.94 80.1394 108.381C80.1394 108.381 85.6342 116.008 93.2432 117.277C100.852 118.546 113.112 106.686 121.991 109.654C130.87 112.621 138.901 113.041 142.285 134.642C145.669 156.243 144.821 165.561 148.624 180.811C152.427 196.061 163.42 227.404 163.42 229.941C163.42 232.479 151.582 234.601 151.582 234.601C151.582 234.601 152.008 245.614 158.347 249.847C164.686 254.08 167.648 253.661 167.648 257.051C167.648 260.442 165.956 265.943 168.914 263.825C171.873 261.707 176.946 252.811 173.139 245.188C169.333 237.565 162.994 229.515 158.769 229.515C154.544 229.515 150.312 231.633 147.776 229.515C145.24 227.397 130.018 196.477 126.638 181.654C123.257 166.83 122.835 142.684 122.835 142.684C122.835 142.684 122.835 131.674 124.101 139.72C125.368 147.766 125.371 176.571 123.679 187.159C121.987 197.746 123.679 207.068 123.257 211.301C122.835 215.534 128.33 223.16 115.648 226.974C102.966 230.787 63.2294 225.705 65.7693 228.261C68.3092 230.816 86.0599 239.274 70.8419 246.052C55.6239 252.829 45.8972 227.415 46.745 233.769C47.5928 240.124 42.0945 251.557 43.783 273.584C45.4715 295.612 58.1567 323.137 58.1567 336.269C58.1567 349.401 65.7693 351.939 80.143 349.821C94.5167 347.702 127.067 302.809 121.576 316.786C116.084 330.764 105.932 341.774 116.503 335.423C127.074 329.073 138.064 320.177 132.991 328.223C127.918 336.269 116.081 340.506 124.956 338.388C133.832 336.269 138.486 333.305 135.949 337.115C133.413 340.925 115.233 352.365 113.967 354.91C112.7 357.455 111.852 379.048 106.78 404.889C101.707 430.73 97.4787 455.288 96.2124 459.948C94.946 464.607 91.9839 467.997 87.7555 469.266C83.5271 470.535 77.1845 468.843 76.7624 472.23C76.3403 475.617 72.9597 484.513 81.4129 484.939C89.8662 485.366 112.697 467.997 111.005 462.915C109.313 457.833 99.1708 461.22 99.1708 461.22C99.1708 461.22 89.4476 467.148 81.8351 466.725C74.2225 466.302 79.2987 467.997 80.1465 455.711C80.9944 443.425 77.1845 408.699 78.8766 390.908C80.5687 373.117 84.3714 361.684 90.714 358.293C97.0566 354.903 105.932 356.598 107.624 365.49C109.316 374.382 106.358 401.495 101.285 419.706C96.2124 437.916 91.984 451.052 93.6725 455.708C95.361 460.363 174.842 462.062 176.534 461.639L206.791 461.456C206.791 461.456 199.139 471.381 205.89 474.087C212.64 476.793 233.357 479.95 233.357 472.295C233.357 464.639 232.455 457.41 227.5 457.41C222.546 457.41 214.898 460.568 212.197 456.055C209.496 451.543 209.045 434.856 205.439 414.122C201.833 393.388 202.287 377.683 202.287 377.683C202.287 377.683 233.807 379.034 235.607 374.977C237.406 370.92 229.751 365.053 229.751 370.465C229.751 375.877 232.004 402.391 228.402 420.437C224.8 438.483 222.099 451.109 226.148 453.364C230.198 455.618 237.406 450.206 237.406 450.206C237.406 450.206 229.751 458.324 238.308 468.7C246.865 479.076 264.869 476.821 263.968 466.908C263.066 456.994 254.967 446.16 253.164 445.708C251.361 445.257 245.96 453.378 242.357 445.708C238.755 438.038 238.758 398.445 238.758 384.912C238.758 371.379 240.547 365.97 240.547 365.97C240.547 365.97 270.711 374.991 272.51 360.103C274.31 345.215 267.109 302.819 267.109 302.819C267.109 302.819 264.408 307.783 240.994 307.783C217.581 307.783 197.773 296.451 197.333 297.791C196.893 299.131 192.833 346.054 193.734 361.39C194.636 376.726 209.939 375.823 219.849 372.214C229.758 368.605 231.103 374.923 232.011 363.193C232.92 351.462 243.717 347.857 232.011 341.09C220.306 334.323 195.544 319.442 208.147 323.499C220.75 327.557 229.758 339.739 232.473 337.033C235.188 334.327 236.523 328.012 237.875 326.205C239.227 324.399 257.686 321.245 260.387 316.285C263.088 311.324 265.789 301.848 265.338 297.339C264.887 292.831 267.588 254.843 267.588 247.163C267.588 239.482 263.539 228.218 264.436 232.278C265.334 236.339 266.687 248.966 270.74 248.966C274.793 248.966 290.998 243.102 290.998 238.142C290.998 233.181 286.498 225.06 286.498 229.572C286.498 234.085 291.202 243.833 292.104 255.109C293.005 266.384 310.437 276.459 314.49 282.326C318.544 288.193 324.396 284.118 324.865 290.444C325.333 296.77 322.615 308.486 314.49 303.977C306.366 299.468 312.702 295.404 309.089 290.895C305.476 286.387 284.269 283.329 278.867 267.993C273.466 252.657 272.99 244.002 271.19 237.69C269.391 231.379 285.142 232.726 285.142 225.963C285.142 219.2 280.642 209.272 277.039 207.018C273.437 204.764 256.33 198.896 256.33 198.896C256.33 198.896 258.119 199.8 243.724 202.509C229.328 205.219 218.961 199.348 218.961 199.348C218.961 199.348 210.408 202.957 204.555 208.369C198.703 213.781 195.101 219.645 194.65 224.16C194.199 228.676 188.35 244.905 190.15 246.26C191.949 247.614 206.355 253.478 209.059 249.417C211.764 245.356 215.359 234.984 210.848 240.848C206.337 246.711 203.193 277.383 189.237 276.932C175.282 276.48 169.43 256.184 169.43 256.184C169.43 256.184 166.278 266.556 158.172 258.438C150.066 250.32 158.172 244.002 164.028 243.554C169.884 243.106 173.479 241.762 174.831 244.905C176.184 248.048 189.688 252.575 190.59 257.535C191.491 262.495 189.688 272.871 189.688 262.499C189.688 252.127 196.889 229.572 199.594 223.705C201.984 218.258 205.005 213.11 208.594 208.369C214.45 200.703 223.004 199.348 223.455 196.183C223.905 193.019 222.553 189.42 222.553 189.42C222.553 189.42 242.811 194.832 246.879 187.166C250.946 179.5 250.928 174.532 250.928 174.532C250.928 174.532 253.633 186.263 254.534 178.141C255.436 170.02 256.323 164.163 254.084 164.611C251.844 165.059 250.002 168.256 250.002 168.256C250.002 168.256 254.506 157.863 250.453 148.86C246.4 139.857 219.387 136.674 216.235 139.839C213.084 143.003 213.535 144.799 213.535 144.799C213.535 144.799 209.034 144.347 209.034 145.702C209.034 147.057 210.383 149.763 210.383 149.763C210.383 149.763 208.129 150.211 208.594 152.017C209.059 153.824 208.144 150.662 209.049 153.809C209.954 156.956 209.049 159.676 209.049 163.733C209.049 167.791 211.299 173.206 211.299 173.206C211.299 173.206 209.049 183.6 220.75 186.739C232.451 189.879 244.614 188.091 246.414 193.051C248.213 198.011 258.119 198.463 258.119 202.075C258.119 205.688 255.869 214.261 241.914 220.114C227.958 225.967 240.125 225.078 239.213 229.59C238.3 234.103 210.397 248.084 208.594 254.847C206.791 261.61 199.143 284.265 201.393 287.419C203.643 290.573 238.762 296.44 232.909 297.343C227.057 298.246 208.584 295.089 208.584 295.089C208.584 295.089 243.251 305.912 252.256 301.852C261.26 297.791 265.313 320.797 266.662 329.807C268.01 338.818 271.165 348.753 270.264 354.616C269.362 360.48 267.112 390.607 261.711 407.302C256.309 423.996 256.759 448.801 253.608 451.507C250.456 454.213 240.551 451.055 241.903 455.116C243.255 459.177 263.063 457.819 270.264 459.625C277.465 461.431 293.674 464.585 308.541 464.585C323.409 464.585 364.816 464.134 364.816 464.134C364.816 464.134 347.688 456.872 347.688 448.722C347.688 440.572 368.029 434.454 371.42 439.888C374.811 445.321 379.559 454.833 388.37 452.12C397.181 449.407 399.22 443.966 401.248 447.36C403.276 450.754 401.248 465.026 396.504 469.101C391.761 473.176 361.922 467.743 370.748 464.345C379.573 460.947 402.614 458.912 405.326 438.54C408.038 418.168 404.253 377.224 406.288 361.601C408.324 345.979 408.535 343.04 409.891 334.889C411.247 326.739 417.403 305.203 422.143 292.293C426.883 279.383 422.959 265.309 422.959 265.309C422.959 265.309 421.599 317.618 424.991 330.538C428.382 343.459 438.552 403.907 446.687 422.247C454.822 440.587 454.826 440.59 456.861 443.307C458.897 446.024 477.202 444.669 481.949 442.629C486.696 440.59 490.084 463.008 489.408 465.725C488.732 468.442 458.893 470.481 448.047 466.402C437.2 462.324 431.77 451.46 437.876 449.421C443.983 447.382 456.861 442.612 466.355 440.59C475.85 438.569 477.202 446.027 479.234 436.515C481.266 427.003 473.811 406.624 469.064 384.188C464.316 361.752 467.708 354.978 463.64 352.939C459.573 350.899 432.449 351.58 443.3 346.129C454.15 340.678 459.573 337.298 459.573 337.298C459.573 337.298 452.776 336.617 458.893 331.865C465.01 327.112 467.032 327.786 468.387 321.672C469.743 315.557 477.077 242.74 477.077 242.74C477.077 242.74 477.756 257.682 446.566 250.89C415.375 244.098 388.738 235.21 384.678 237.927C380.617 240.643 372.976 267.649 370.265 300.934C367.553 334.219 365.328 346.129 365.328 354.279C365.328 362.429 373.466 444.633 375.502 436.479C377.537 428.325 367.363 406.588 374.822 391.643C382.281 376.697 395.163 372.622 389.74 363.11C384.316 353.598 369.395 352.921 370.755 332.542C372.114 312.163 374.822 299.927 378.214 278.874C381.605 257.822 389.064 256.431 389.064 253.714C389.064 250.998 384.993 237.411 384.993 231.977C384.993 226.544 391.096 176.295 391.096 159.311C391.096 142.326 391.772 124.664 391.096 132.817C390.419 140.971 387.704 154.555 384.299 154.555C380.893 154.555 355.143 145.046 355.143 145.046C355.143 145.046 363.282 140.29 363.282 144.365C363.282 148.44 361.972 158.343 353.154 180.08C344.336 201.817 326.94 243.812 324.228 247.887C321.516 251.962 313.378 264.191 313.378 269.628C313.378 275.065 314.058 298.838 318.129 294.759C322.2 290.68 324.21 277.778 324.21 277.778C324.21 277.778 327.601 293.404 329.637 287.967C331.672 282.53 330.993 270.305 334.38 258.757C337.768 247.209 357.884 221.519 368.723 200.459C379.562 179.399 381.562 170.181 382.238 161.35C382.914 152.519 388.319 149.802 382.914 147.763C377.509 145.724 363.239 142.329 363.929 132.817C364.62 123.305 374.1 98.1741 382.914 94.1098C391.729 90.0454 413.429 87.3001 424.955 83.9203C436.481 80.5406 443.94 75.7702 443.94 75.7702C443.94 75.7702 435.801 67.6165 435.801 64.8962C435.801 62.1759 419.532 67.6165 413.429 62.8605C407.326 58.1044 407.326 54.7103 407.326 54.7103C407.326 54.7103 416.817 47.2376 408.682 41.1232C400.547 35.0088 399.867 45.1983 397.832 43.8399C395.796 42.4816 381.562 29.5719 387.661 15.3074C391.042 7.42246 401.895 2.222 412.642 1.23281C421.31 0.437148 429.906 2.37612 434.464 7.83462C444.634 20.0634 444.634 40.4494 437.175 54.7103C429.716 68.9713 411.418 60.1438 420.222 56.7461C429.026 53.3484 434.464 55.3877 434.464 42.4816C434.464 29.5754 405.984 6.47625 393.102 15.9847C380.22 25.4932 382.928 42.4816 386.305 56.0687C389.682 69.6558 402.579 77.8059 405.29 74.4082C408.002 71.0106 405.29 62.8605 404.614 65.5772C403.938 68.2939 406.689 83.2573 406.689 85.974C406.689 88.6907 425.678 79.1643 433.136 77.8239C440.595 76.4834 456.189 81.2215 467.715 86.6549C479.241 92.0884 483.992 94.8086 488.735 105.675C493.479 116.542 499.585 134.208 496.194 134.208C492.803 134.208 477.209 136.247 477.209 134.208C477.209 132.169 476.533 127.398 476.533 127.398C476.533 127.398 481.276 138.269 481.956 148.455C482.636 158.64 480.6 215.007 480.6 215.007C480.6 215.007 500.276 163.397 500.276 150.494C500.276 137.591 495.529 128.757 490.781 123.32C486.034 117.883 469.081 102.941 469.761 112.453C470.441 121.965 481.287 144.38 473.828 154.569C466.37 164.758 408.034 193.309 425.649 191.27C443.264 189.23 483.283 177.002 470.401 187.191C457.519 197.38 422.937 219.089 439.887 223.175C456.836 227.261 467.565 212.193 468.241 218.311C468.917 224.429 483.838 236.651 482.482 226.461C481.126 216.272 478.415 214.236 477.055 218.311C475.696 222.386 474.469 259.202 471.078 270.749C467.686 282.297 441.922 314.908 449.381 322.381C456.84 329.854 464.295 324.417 464.295 336.646C464.295 348.874 464.295 360.422 463.619 369.26C462.943 378.099 439.887 386.245 447.345 390.32C454.804 394.395 467.021 401.191 469.042 409.341C471.063 417.491 467.686 447.382 479.892 448.744C492.098 450.106 493.454 461.646 500.912 461.646" stroke="#A9383D" stroke-width="2" stroke-linecap="round" stroke-linejoin="round" fill="none" />
  </g>
</svg>
