<svg viewBox="0 0 136 135" fill="none" xmlns="http://www.w3.org/2000/svg">
  <g id="root">
    <path d="M81.4361 87.2194L82.0589 88.0018L82.059 88.0017L81.4361 87.2194ZM58.6439 79.0465C58.3716 78.566 57.7613 78.3973 57.2809 78.6696C56.8004 78.9419 56.6316 79.5522 56.9039 80.0327L58.6439 79.0465ZM89.3613 72.3506C88.3944 74.304 87.0721 77.1774 85.5483 79.9357C84.0076 82.7246 82.359 85.206 80.8131 86.4372L82.059 88.0017C83.9509 86.495 85.7632 83.6826 87.2989 80.9028C88.8515 78.0924 90.2211 75.122 91.1537 73.2378L89.3613 72.3506ZM80.8133 86.4371C77.4162 89.1412 73.0214 89.247 68.8205 87.6482C64.6113 86.0464 60.761 82.782 58.6439 79.0465L56.9039 80.0327C59.2607 84.1911 63.4843 87.7574 68.1091 89.5175C72.7421 91.2806 77.9414 91.2793 82.0589 88.0018L80.8133 86.4371Z" fill="#A9383D"/>
    <path d="M94.6271 88.5439L94.2794 89.4815C94.3607 89.5117 94.4456 89.5311 94.5319 89.5394L94.6271 88.5439ZM90.5928 71.9936L91.5028 72.4082L91.5029 72.4082L90.5928 71.9936ZM97.03 51.198L96.0494 51.002L96.0494 51.0021L97.03 51.198ZM85.1863 23.8807L84.6284 24.7106L84.6288 24.7108L85.1863 23.8807ZM67.8317 18.2049L67.8766 17.2059L67.875 17.2058L67.8317 18.2049ZM47.1636 30.0947L46.2778 29.6306L46.2775 29.6311L47.1636 30.0947ZM22.5687 88.5439L21.6205 88.2263L22.5687 88.5439ZM41.2827 119.711L41.1031 120.694C41.4541 120.759 41.8126 120.631 42.044 120.359C42.2753 120.088 42.3445 119.713 42.2253 119.377L41.2827 119.711ZM112.236 87.1135L111.249 87.2779L112.236 87.1135ZM41.6412 112.403C41.1257 112.205 40.5472 112.462 40.3491 112.978C40.151 113.493 40.4084 114.072 40.9239 114.27L41.6412 112.403ZM83.6402 45.8145L83.8903 44.8462L83.8899 44.8461L83.6402 45.8145ZM73.2501 33.5171L72.2539 33.6037L72.2542 33.6073L73.2501 33.5171ZM72.8733 31.9712L73.4327 31.1424L73.4319 31.1418L72.8733 31.9712ZM71.712 31.0176L72.3495 30.2472C71.9739 29.9363 71.4288 29.9417 71.0593 30.2599L71.712 31.0176ZM69.3971 35.8243L70.3681 36.0631L70.3682 36.0627L69.3971 35.8243ZM57.838 50.7826L57.2728 49.9577L57.2714 49.9587L57.838 50.7826ZM53.5389 60.8344L54.5305 60.7052L54.5304 60.7044L53.5389 60.8344ZM58.2917 80.0226L57.4542 80.5691C57.4734 80.5986 57.4942 80.627 57.5164 80.6543L58.2917 80.0226ZM52.2078 94.843L52.0122 95.8237L52.2078 94.843ZM46.0552 79.3372L46.4797 80.2426L46.0552 79.3372ZM82.0196 119.711L81.8564 118.724L82.0196 119.711ZM94.9748 87.6063C94.1083 87.285 93.304 86.5218 92.6167 85.3478C91.9341 84.1817 91.4175 82.6931 91.0927 81.0833C90.4345 77.8211 90.6169 74.3526 91.5028 72.4082L89.6829 71.5789C88.5538 74.0567 88.4307 78.002 89.1322 81.4788C89.4872 83.2385 90.0667 84.9506 90.8907 86.3583C91.7102 87.758 92.8234 88.9415 94.2794 89.4815L94.9748 87.6063ZM91.5029 72.4082C94.582 65.6497 96.578 58.5646 98.0106 51.3939L96.0494 51.0021C94.6364 58.0745 92.6793 65.0019 89.6828 71.579L91.5029 72.4082ZM98.0106 51.3939C100.307 39.9024 94.9083 29.2051 85.7438 23.0505L84.6288 24.7108C93.2144 30.4767 98.1671 40.4058 96.0494 51.002L98.0106 51.3939ZM67.875 17.2058C63.7314 17.0262 59.2367 18.4319 55.3587 20.6932C51.4818 22.9538 48.1096 26.1346 46.2778 29.6306L48.0493 30.5588C49.663 27.4793 52.7218 24.546 56.3661 22.4209C60.0093 20.2966 64.1259 19.0452 67.7884 19.2039L67.875 17.2058ZM33.3264 77.3079C29.9661 77.8613 27.4718 79.2139 25.5904 81.1611C23.7259 83.0907 22.5179 85.5476 21.6205 88.2263L23.5169 88.8616C24.3655 86.3287 25.4522 84.1823 27.0287 82.5508C28.5881 80.9369 30.6809 79.7705 33.6514 79.2813L33.3264 77.3079ZM21.6205 88.2263C20.7796 90.7363 20.8037 93.8746 21.4491 97.1387C22.0976 100.419 23.3896 103.909 25.1772 107.171C28.7253 113.646 34.3722 119.465 41.1031 120.694L41.4624 118.727C35.5966 117.656 30.356 112.46 26.9311 106.21C25.2322 103.11 24.0163 99.8116 23.4111 96.7508C22.8028 93.6739 22.8274 90.9198 23.5169 88.8616L21.6205 88.2263ZM94.5319 89.5394C96.0807 89.6875 97.9658 89.4429 99.8516 89.0846C101.745 88.7248 103.764 88.2235 105.552 87.8208C107.383 87.4084 108.948 87.1052 110.072 87.0799C110.64 87.0671 110.981 87.1303 111.159 87.2074C111.275 87.2581 111.248 87.2698 111.249 87.2779L113.222 86.9491C113.092 86.1677 112.59 85.6488 111.956 85.3732C111.383 85.124 110.697 85.0653 110.026 85.0804C108.673 85.1109 106.918 85.4629 105.112 85.8697C103.263 86.2863 101.328 86.7682 99.4782 87.1198C97.6202 87.4728 95.9712 87.6679 94.7223 87.5485L94.5319 89.5394ZM96.8746 54.4851C96.6496 54.2601 96.3658 54.0998 96.1288 53.9825C95.8773 53.8581 95.5862 53.7385 95.2898 53.6217C94.6762 53.38 93.9905 53.1298 93.239 52.7882C91.7498 52.1112 90.1544 51.1377 89.0143 49.4968L87.3718 50.638C88.805 52.7007 90.7701 53.8628 92.4113 54.6089C93.225 54.9788 93.9971 55.2621 94.5566 55.4825C94.8468 55.5969 95.0711 55.6906 95.2417 55.7751C95.4268 55.8667 95.4719 55.9109 95.4604 55.8993L96.8746 54.4851ZM89.0143 49.4968C88.6953 49.0377 88.4212 48.6364 88.1802 48.2827C87.9404 47.9309 87.73 47.6212 87.5433 47.3532C87.1774 46.8279 86.8619 46.4015 86.5291 46.0693C85.7808 45.3223 85.0116 45.1358 83.8903 44.8462L83.3901 46.7827C84.5914 47.093 84.812 47.1811 85.1162 47.4848C85.3096 47.6778 85.536 47.9707 85.9021 48.4963C86.0815 48.7538 86.2845 49.0525 86.5276 49.4091C86.7694 49.7639 87.0475 50.1712 87.3718 50.638L89.0143 49.4968ZM83.8899 44.8461C80.8708 44.0676 78.6188 42.7206 77.0498 40.8585C75.48 38.9955 74.5279 36.5387 74.246 33.4268L72.2542 33.6073C72.5645 37.0325 73.6312 39.9053 75.5203 42.1472C77.4102 44.3901 80.0571 45.9232 83.3905 46.7828L83.8899 44.8461ZM74.2463 33.4304C74.2428 33.3901 74.2443 33.3298 74.2553 33.1868C74.2642 33.0714 74.2831 32.8654 74.2742 32.6579C74.2647 32.4365 74.2234 32.1578 74.0823 31.8714C73.9372 31.5769 73.7159 31.3335 73.4327 31.1424L72.3138 32.8001C72.3382 32.8166 72.3121 32.8039 72.2882 32.7553C72.2682 32.7147 72.274 32.6971 72.276 32.7438C72.2786 32.8046 72.2735 32.874 72.2612 33.0333C72.2511 33.165 72.2343 33.3787 72.2539 33.6037L74.2463 33.4304ZM73.4319 31.1418C73.1064 30.9226 72.8839 30.6894 72.3495 30.2472L71.0744 31.788C71.4322 32.0841 71.8864 32.5123 72.3147 32.8007L73.4319 31.1418ZM71.0593 30.2599C69.2188 31.8453 68.8292 33.9432 68.4259 35.5858L70.3682 36.0627C70.8109 34.2599 71.0981 32.8662 72.3646 31.7752L71.0593 30.2599ZM68.426 35.5854C66.864 41.9356 62.5999 46.3081 57.2728 49.9577L58.4032 51.6076C63.92 47.828 68.6385 43.0947 70.3681 36.0631L68.426 35.5854ZM57.2714 49.9587C55.3202 51.3003 53.9523 52.837 53.1717 54.6943C52.3936 56.5455 52.2399 58.6184 52.5473 60.9643L54.5304 60.7044C54.2533 58.5897 54.4149 56.898 55.0155 55.4692C55.6134 54.0464 56.6873 52.7875 58.4046 51.6066L57.2714 49.9587ZM52.5472 60.9635C53.3873 67.4142 53.5093 74.5235 57.4542 80.5691L59.1292 79.4762C55.5064 73.9242 55.4131 67.4825 54.5305 60.7052L52.5472 60.9635ZM57.5164 80.6543C58.9099 82.3647 60.0231 84.2551 60.7136 86.0727C61.4094 87.9039 61.6472 89.583 61.3952 90.9075C61.1535 92.1779 60.4623 93.1547 59.1467 93.7223C57.7685 94.3169 55.6081 94.5014 52.4033 93.8623L52.0122 95.8237C55.4057 96.5004 58.0312 96.3818 59.939 95.5587C61.9093 94.7087 63.0038 93.1534 63.36 91.2813C63.7058 89.4635 63.3536 87.3899 62.5833 85.3624C61.8078 83.3213 60.5791 81.247 59.067 79.391L57.5164 80.6543ZM85.7442 23.0507C82.2555 20.7054 79.7725 19.3093 77.1373 18.4728C74.5057 17.6375 71.7865 17.3815 67.8766 17.2059L67.7868 19.2039C71.6806 19.3787 74.1712 19.6296 76.5322 20.3791C78.8897 21.1274 81.1822 22.3938 84.6284 24.7106L85.7442 23.0507ZM85.7442 23.0507C82.4124 20.8109 79.8643 19.4175 77.1605 18.5535C74.4592 17.6904 71.6642 17.376 67.8766 17.2059L67.7868 19.2039C71.5231 19.3717 74.1064 19.6773 76.5518 20.4587C78.9948 21.2393 81.362 22.5147 84.6284 24.7106L85.7442 23.0507ZM46.2775 29.6311C43.9526 34.0741 43.3337 39.1984 43.5201 44.3692C43.7065 49.5402 44.7031 54.8442 45.6793 59.6778C46.665 64.5591 47.6138 68.8968 47.7756 72.2922C47.9409 75.7606 47.2579 77.6688 45.6306 78.4318L46.4797 80.2426C49.3454 78.899 49.9409 75.7132 49.7733 72.1969C49.6023 68.6076 48.6066 64.07 47.6397 59.2819C46.6631 54.4462 45.6987 49.2868 45.5188 44.2972C45.3389 39.3074 45.9483 34.5738 48.0496 30.5584L46.2775 29.6311ZM45.6306 78.4318C45.4097 78.5354 45.0248 78.5751 44.2859 78.448C43.5514 78.3216 42.7152 78.0831 41.6139 77.8142C39.4733 77.2916 36.6894 76.7541 33.3264 77.3079L33.6514 79.2813C36.619 78.7926 39.0925 79.2574 41.1395 79.7571C42.1319 79.9994 43.122 80.2772 43.9469 80.419C44.7674 80.5602 45.6748 80.62 46.4797 80.2426L45.6306 78.4318ZM52.4033 93.8623C46.9151 92.768 42.9278 92.691 40.1667 93.597C38.7625 94.0578 37.6547 94.7795 36.8456 95.7629C36.0391 96.7433 35.5786 97.9238 35.3702 99.2262C34.9601 101.789 35.5063 104.961 36.4668 108.434C37.4336 111.931 38.8673 115.886 40.3401 120.045L42.2253 119.377C40.7403 115.184 39.3376 111.312 38.3944 107.901C37.4449 104.467 37.0075 101.652 37.3451 99.5423C37.5104 98.5088 37.8566 97.6821 38.3901 97.0336C38.9211 96.3882 39.6868 95.8594 40.7902 95.4973C43.0442 94.7577 46.6082 94.7462 52.0122 95.8237L52.4033 93.8623ZM111.249 87.2779C111.284 87.4841 111.288 88.0711 111.17 89.0344C111.057 89.9629 110.839 91.1618 110.481 92.5468C109.764 95.3174 108.494 98.8009 106.401 102.329C102.228 109.365 94.7876 116.585 81.8564 118.724L82.1829 120.697C95.7979 118.445 103.704 110.798 108.121 103.349C110.324 99.6347 111.661 95.9712 112.417 93.0476C112.795 91.5854 113.03 90.3003 113.156 89.2777C113.277 88.29 113.307 87.4586 113.222 86.9491L111.249 87.2779ZM81.8564 118.724C72.0347 120.349 58.9622 119.057 41.6412 112.403L40.9239 114.27C58.4651 121.009 71.9079 122.397 82.1829 120.697L81.8564 118.724Z" fill="#A9383D"/>
    <path d="M97.8569 29.7569L104.98 21.0942" stroke="#A9383D" stroke-width="2" stroke-linecap="round" stroke-linejoin="round"/>
    <path d="M100.062 32.9019L113.288 24.021" stroke="#A9383D" stroke-width="2" stroke-linecap="round" stroke-linejoin="round"/>
    <path d="M101.322 36.495L111.91 34.3774" stroke="#A9383D" stroke-width="2" stroke-linecap="round" stroke-linejoin="round"/>
  </g>
</svg>
