<svg viewBox="0 0 2839 866" fill="none" xmlns="http://www.w3.org/2000/svg">
  <g id="root">
    <path d="M2837.54 255.116C2537.58 166.034 2395.7 382.123 2113.87 420.135C1832.04 458.148 1815.41 397.179 1553.22 434.719C1291.02 472.26 1234.71 597.188 1060.42 552.639C1045.76 548.893 1049.55 514.172 1047.06 504.14C1044.57 494.109 1029.52 485.745 1020.34 480.729C1011.15 475.714 1039.55 465.687 1040.38 454.808C1041.21 443.93 1041.21 429.717 1041.21 414.665C1041.21 399.614 1032.03 406.306 1022.84 397.108C1013.66 387.911 1045.39 347.772 1049.56 333.559C1053.74 319.345 1055.25 274.032 1056.93 269.016C1058.6 264.001 1061.94 266.506 1063.61 279.048C1065.28 291.589 1046.9 276.547 1046.07 269.016C1045.24 261.486 1032.02 280.032 1011.15 275.003C990.275 269.974 1032.87 243.254 1048.73 230.713C1064.6 218.172 1015.31 233.223 993.615 235.733C971.921 238.243 1043.77 203.102 1052.95 190.561C1062.14 178.02 1048.78 150.431 1047.94 138.723C1047.11 127.016 1067.98 145.407 1073.83 152.099C1079.68 158.791 1085.52 169.665 1085.52 185.545C1085.52 201.426 1061.29 264.949 1061.29 264.949C1061.29 264.949 1063.8 195.572 1062.96 183.035C1062.12 170.498 1056.28 157.119 1056.28 157.119C1056.28 157.119 1057.11 162.99 1057.11 165.5C1057.11 168.01 1076.32 165.5 1080.5 165.5C1084.67 165.5 1077.15 143.757 1071.31 130.382C1065.47 117.007 1059.62 113.658 1045.42 106.971C1031.23 100.283 1012.02 94.4514 1002.84 96.1012C993.65 97.7511 970.264 109.476 970.264 106.133C970.264 102.789 966.875 84.3715 967.708 81.0277C968.541 77.6839 971.88 87.7153 968.541 91.8972C965.201 96.0792 949.32 86.0478 945.161 69.3245C941.002 52.6011 937.666 31.6914 953.531 19.9882C969.396 8.2849 1004.47 36.7159 1004.47 52.6011C1004.47 68.4863 997.773 65.9763 986.931 70.1582C976.088 74.3402 998.624 85.2053 1007.81 67.6526C1017 50.0999 1017 25.0083 1004.47 9.95681C998.857 3.23835 988.27 0.851819 977.595 1.83113C964.36 3.04866 950.994 9.44951 946.83 19.1544C939.319 36.7115 956.849 52.6011 959.356 54.273C961.862 55.9449 962.699 43.4035 972.717 50.9292C982.736 58.4549 971.048 67.6526 971.048 67.6526C971.048 67.6526 971.049 71.8301 978.565 77.6839C986.081 83.5378 1006.12 76.8414 1006.12 80.1896C1006.12 83.5378 1016.14 93.5736 1016.14 93.5736C1016.14 93.5736 1006.96 99.445 992.76 103.605C978.565 107.765 951.84 111.144 940.984 116.146C930.128 121.149 918.453 152.081 917.603 163.789C916.752 175.496 934.327 179.674 940.984 182.184C947.641 184.694 940.984 188.038 940.151 198.907C939.319 209.777 936.856 221.123 923.507 247.044C910.157 272.965 885.384 304.585 881.212 318.798C877.039 333.012 877.876 348.059 875.37 354.751C872.863 361.443 868.686 342.209 868.686 342.209C868.686 342.209 866.21 358.09 861.196 363.11C856.182 368.13 855.346 338.87 855.346 332.178C855.346 325.486 865.368 310.434 868.708 305.419C872.047 300.403 893.473 248.716 904.333 221.961C915.193 195.206 916.805 183.018 916.805 178.002C916.805 172.986 906.782 178.84 906.782 178.84C906.782 178.84 938.494 190.543 942.689 190.543C946.883 190.543 950.227 173.824 951.06 163.789C951.892 153.753 951.06 175.492 951.06 196.397C951.06 217.302 943.543 279.149 943.543 285.837C943.543 292.524 948.557 309.248 948.557 312.592C948.557 315.935 939.372 317.647 935.195 343.559C931.018 369.471 927.683 384.532 926.009 409.614C924.335 434.697 942.711 435.531 949.39 447.239C956.069 458.946 940.204 463.962 931.018 482.357C921.832 500.752 934.362 527.507 931.855 537.543C929.348 547.579 919.326 446.401 919.326 436.369C919.326 426.338 922.066 411.679 925.406 370.711C928.745 329.743 938.155 296.503 943.156 293.16C948.156 289.816 980.962 300.756 1019.38 309.115C1057.79 317.475 1056.95 299.084 1056.95 299.084C1056.95 299.084 1047.92 388.709 1046.25 396.235C1044.58 403.761 1042.09 402.931 1034.56 408.781C1027.02 414.63 1035.39 415.468 1035.39 415.468C1035.39 415.468 1028.72 419.628 1015.35 426.338C1001.99 433.047 1035.39 432.209 1040.4 434.719C1045.41 437.229 1041.24 445.567 1047.08 473.182C1052.93 500.797 1062.11 525.879 1059.61 537.587C1057.11 549.295 1055.44 540.115 1043.75 542.603C1032.06 545.091 1016.19 550.962 1008.67 553.472C1001.15 555.982 1007.84 569.353 1021.2 574.373C1034.56 579.393 1071.31 576.883 1072.14 573.539C1072.97 570.196 1068.8 542.603 1062.95 545.113C1057.11 547.623 1034.56 549.29 1032.05 545.946C1029.55 542.603 1029.54 542.598 1019.52 520.025C1009.51 497.453 996.981 423.051 992.804 407.148C988.627 391.246 990.301 326.862 990.301 326.862C990.301 326.862 995.135 344.186 989.297 360.075C983.459 375.965 975.877 402.472 974.207 412.504C972.537 422.535 972.277 426.152 969.77 445.381C967.263 464.61 971.924 515.005 968.585 540.079C965.245 565.153 936.869 567.659 926 571.841C915.131 576.023 951.879 582.71 957.721 577.695C963.563 572.679 966.061 555.113 963.563 550.936C961.065 546.758 958.554 553.455 947.703 556.794C936.851 560.133 931.005 548.426 926.828 541.738C922.652 535.05 897.601 542.581 897.601 552.612C897.601 562.643 918.696 571.581 918.696 571.581C918.696 571.581 893.803 583.123 850.063 586.974C806.323 590.825 769.81 567.957 767.319 560.482C765.654 555.484 777.853 559.37 781.734 556.04C785.616 552.709 785.061 522.178 791.713 501.63C798.366 481.082 801.137 444.001 802.248 436.784C803.358 429.567 799.472 417.339 797.811 406.248C796.15 395.158 791.159 366.842 780.069 371.84C768.98 376.838 726.284 363.516 726.284 363.516C726.284 363.516 749.035 367.402 756.243 366.291C763.451 365.179 720.2 357.958 717.429 354.076C714.658 350.194 724.077 322.31 726.298 313.986C728.518 305.661 762.882 288.453 764.006 282.899C765.129 277.345 750.146 278.439 767.333 271.235C784.519 264.032 787.29 253.48 787.29 249.033C787.29 244.587 775.091 244.031 772.875 237.925C770.659 231.82 755.679 234.021 741.268 230.157C726.857 226.293 729.628 213.5 729.628 213.5C729.628 213.5 726.857 206.834 726.857 201.841C726.857 196.847 727.972 193.499 726.857 189.626C725.742 185.753 726.87 189.643 726.298 187.42C725.725 185.197 728.5 184.645 728.5 184.645C728.5 184.645 726.839 181.315 726.839 179.647C726.839 177.98 732.382 178.536 732.382 178.536C732.382 178.536 731.827 176.326 735.708 172.43C739.59 168.535 772.857 172.453 777.849 183.534C782.84 194.615 777.293 207.408 777.293 207.408C777.293 207.408 779.563 203.473 782.321 202.922C785.079 202.37 783.986 209.578 782.876 219.574C781.766 229.57 778.435 215.132 778.435 215.132C778.435 215.132 778.457 221.246 773.448 230.682C768.438 240.118 743.489 233.457 743.489 233.457C743.489 233.457 745.154 237.886 744.599 241.781C744.044 245.676 733.51 247.344 726.298 256.779C721.877 262.615 718.156 268.95 715.212 275.656C711.882 282.877 703.013 310.637 703.013 323.404C703.013 336.17 705.234 323.399 704.124 317.294C703.013 311.189 686.382 305.617 684.716 301.749C683.051 297.88 678.623 299.534 671.411 300.085C664.199 300.637 654.215 308.414 664.199 318.406C674.182 328.397 678.064 315.631 678.064 315.631C678.064 315.631 685.271 340.612 702.458 341.168C719.645 341.724 723.517 303.972 729.073 296.755C734.629 289.538 730.201 302.304 726.87 307.302C723.54 312.3 705.798 305.084 703.582 303.416C701.365 301.749 708.569 281.774 709.124 276.216C709.679 270.658 714.116 263.441 721.323 256.779C728.531 250.118 739.066 245.676 739.066 245.676C739.066 245.676 751.833 252.902 769.561 249.567C787.29 246.232 785.087 245.12 785.087 245.12C785.087 245.12 806.156 252.342 810.592 255.116C815.029 257.891 820.571 270.11 820.571 278.435C820.571 286.759 801.173 285.1 803.389 292.869C805.605 300.637 806.191 311.29 812.843 330.166C819.496 349.042 845.613 352.805 850.063 358.355C854.513 363.904 846.71 368.907 856.716 374.456C866.721 380.006 870.069 365.585 869.492 357.799C868.915 350.013 861.707 355.029 856.716 347.807C851.724 340.586 830.255 328.186 829.145 314.308C828.035 300.43 822.241 288.431 822.241 282.877C822.241 277.323 827.784 287.319 827.784 293.424C827.784 299.53 807.825 306.747 802.834 306.747C797.842 306.747 796.177 291.205 795.071 286.207C793.965 281.209 798.952 295.074 798.952 304.528C798.952 313.981 795.626 360.737 796.181 366.286C796.736 371.836 793.41 383.499 790.083 389.605C786.757 395.71 764.024 399.592 762.358 401.815C760.693 404.038 759.05 411.811 755.706 415.142C752.362 418.472 741.268 403.478 725.747 398.485C710.225 393.491 740.722 411.807 755.137 420.135C769.553 428.464 756.256 432.902 755.137 447.34C754.018 461.778 752.362 454.001 740.158 458.443C727.954 462.886 709.106 463.997 707.996 445.121C706.886 426.245 711.886 368.492 712.428 366.842C712.97 365.192 737.365 379.141 766.2 379.141C795.036 379.141 798.362 373.031 798.362 373.031C798.362 373.031 807.231 425.213 805.015 443.538C802.799 461.862 765.649 450.759 765.649 450.759C765.649 450.759 763.446 457.416 763.446 474.073C763.446 490.73 763.442 539.462 767.879 548.902C772.315 558.342 778.968 548.346 781.188 548.902C783.409 549.458 793.384 562.793 794.494 574.995C795.604 587.197 773.43 589.971 762.892 577.201C752.353 564.43 761.781 554.438 761.781 554.438C761.781 554.438 752.903 561.099 747.916 558.325C742.929 555.55 746.256 540.009 750.692 517.798C755.129 495.587 752.353 462.952 752.353 456.291C752.353 449.63 761.781 456.851 759.565 461.844C757.349 466.838 718.53 465.175 718.53 465.175C718.53 465.175 717.971 484.506 722.412 510.025C726.853 535.545 727.408 556.084 730.734 561.638C734.06 567.191 743.48 563.305 749.582 563.305C755.684 563.305 756.794 572.203 756.794 581.625C756.794 591.048 731.281 587.162 722.967 583.831C714.653 580.5 724.077 568.285 724.077 568.285C724.077 568.285 709.725 557.61 656.38 556.04C603.036 554.469 586.843 566.94 584.763 561.21C582.684 555.479 587.891 539.312 594.139 516.898C600.386 494.484 604.029 461.112 601.946 450.168C599.862 439.223 588.931 437.137 581.119 441.31C573.308 445.483 568.625 459.555 566.541 481.453C564.457 503.351 569.149 546.092 568.105 561.214C567.061 576.336 560.809 574.25 570.184 574.77C579.56 575.291 591.535 567.994 591.535 567.994C591.535 567.994 604.025 563.826 606.109 570.081C608.193 576.336 580.075 597.713 569.665 597.188C559.254 596.663 563.417 585.715 563.937 581.546C564.457 577.377 572.268 579.459 577.476 577.898C582.683 576.336 586.332 572.163 587.891 566.428C589.451 560.694 594.659 530.467 600.906 498.661C607.153 466.856 608.197 440.278 609.757 437.146C611.316 434.013 633.706 419.932 636.83 415.243C639.954 410.554 634.222 414.202 623.291 416.809C612.361 419.416 626.939 414.202 633.187 404.299C639.434 394.395 625.9 405.344 612.881 413.161C599.862 420.978 612.365 407.426 619.128 390.222C625.891 373.018 585.803 428.274 568.101 430.881C550.399 433.488 541.023 430.365 541.023 414.202C541.023 398.039 525.4 364.16 523.321 337.048C521.241 309.936 528.013 295.864 526.969 288.043C525.925 280.221 537.904 311.502 556.646 303.16C575.388 294.818 553.526 284.408 550.398 281.262C547.27 278.117 596.209 284.372 611.828 279.679C627.446 274.985 620.679 265.598 621.199 260.388C621.718 255.178 619.635 243.704 621.718 230.673C623.802 217.642 623.798 182.188 622.238 172.285C620.679 162.381 620.679 175.933 620.679 175.933C620.679 175.933 621.199 205.652 625.362 223.897C629.525 242.143 648.272 280.199 651.395 282.806C654.519 285.413 659.731 282.806 664.935 282.806C670.138 282.806 677.945 292.714 682.632 302.097C687.32 311.48 681.073 322.429 677.429 325.036C673.785 327.643 675.87 320.872 675.87 316.699C675.87 312.525 672.221 313.042 664.414 307.832C656.607 302.622 656.083 289.066 656.083 289.066C656.083 289.066 670.662 286.454 670.662 283.331C670.662 280.208 657.123 241.631 652.44 222.861C647.756 204.091 648.801 192.621 644.633 166.034C640.465 139.447 630.574 138.931 619.639 135.278C608.704 131.626 593.606 146.223 584.235 144.661C574.864 143.1 568.096 133.712 568.096 133.712C573.613 135.63 579.003 137.895 584.235 140.492C592.566 144.661 613.911 135.799 613.392 132.671C612.872 129.544 616.515 116.512 618.599 111.819C620.683 107.125 627.97 101.911 627.97 92.528C627.97 83.1451 615.476 99.3039 615.476 105.039C615.476 110.773 624.842 102.431 626.406 78.4515C627.97 54.4715 608.708 42.4771 594.65 43.5226C580.591 44.5681 566.012 57.0786 562.889 76.8899C559.765 96.7012 569.136 109.737 574.343 106.084C579.551 102.432 585.798 88.8799 583.715 90.4415C582.521 91.3414 581.494 88.8005 582.12 85.9772C582.384 84.7472 582.956 83.6045 583.782 82.6562C584.608 81.708 585.661 80.9853 586.843 80.5557C593.61 77.9486 601.941 86.2949 610.273 102.974C618.604 119.653 610.268 125.909 608.189 139.465C606.109 153.021 597.258 155.628 588.927 164.49C580.595 173.352 584.243 174.914 591.53 159.796C598.818 144.679 587.358 136.858 576.427 118.092C565.497 99.3259 578.516 91.5046 582.679 95.1528C586.843 98.801 572.784 114.96 571.744 119.133C570.705 123.306 564.453 132.689 557.685 133.209C550.918 133.73 537.384 139.994 535.82 140.51C534.256 141.026 525.405 150.409 521.761 158.23C518.118 166.052 497.812 202.547 492.085 217.664C486.357 232.782 487.397 233.832 484.793 248.945C482.189 264.058 478.546 288.038 478.026 295.859C477.506 303.681 484.793 304.201 490.52 309.936C496.248 315.671 492.609 319.323 491.565 326.62C490.521 333.916 488.956 323.488 484.793 319.839C480.63 316.191 488.441 334.957 485.837 339.651C483.233 344.344 470.219 327.136 470.739 317.232C471.259 307.329 474.382 303.156 477.506 301.594C480.63 300.033 490.005 306.813 492.085 302.64C494.164 298.467 502.495 267.195 505.619 260.935C508.742 254.675 509.262 252.073 517.073 232.782C524.885 213.491 541.027 171.782 541.547 175.955C542.067 180.128 542.583 190.561 541.023 216.623C539.463 242.685 524.885 281.262 524.885 281.262C524.885 281.262 539.992 293.755 583.203 293.755C626.415 293.755 625.895 270.816 625.895 270.816C625.895 270.816 626.419 273.423 636.31 310.959C646.201 348.495 651.409 433.466 651.409 431.905C651.409 430.343 634.226 428.777 609.757 430.864C585.287 432.95 581.644 441.813 562.377 441.292C543.111 440.772 548.839 434.512 548.839 434.512C548.839 434.512 542.071 468.925 545.715 494.466C549.359 520.008 561.999 547.272 553.35 574.77C540.953 591.208 564.965 592.214 553.35 606.926C541.735 621.639 496.161 559.962 534.385 581.546C572.609 603.13 643.759 765.288 470.739 722.43C297.718 679.571 454.997 841.973 115.305 865.783" stroke="#A9383D" stroke-width="2.19145" stroke-linecap="round" stroke-linejoin="round"/>
  </g>
</svg>
