<svg width="794" height="1123" viewBox="0 0 794 1123" fill="none" xmlns="http://www.w3.org/2000/svg">
<rect width="794" height="1123" fill="#34509F"/>
<path d="M276.631 195.192H282.051L279.991 189.732C279.821 189.302 279.611 188.732 279.371 187.952C279.2 188.562 278.996 189.163 278.761 189.752L276.631 195.192ZM282.411 196.192H276.251L274.131 201.542H272.941L279.041 186.322H279.711L285.711 201.542H284.521L282.411 196.192Z" fill="white"/>
<path d="M291.801 201.502H290.731V187.342H285.811V186.342H296.721V187.342H291.801V201.502Z" fill="white"/>
<path d="M300.031 186.342H298.971V201.502H300.031V186.342Z" fill="white"/>
<path d="M308.271 201.502H307.201V187.342H302.281V186.342H313.201V187.342H308.271V201.502Z" fill="white"/>
<path d="M326.591 186.392V196.202C326.635 196.949 326.524 197.698 326.264 198.4C326.004 199.102 325.601 199.743 325.081 200.282C324.51 200.793 323.843 201.187 323.118 201.439C322.394 201.691 321.627 201.798 320.861 201.752C320.109 201.825 319.35 201.73 318.639 201.475C317.928 201.22 317.282 200.81 316.747 200.276C316.213 199.742 315.803 199.096 315.548 198.384C315.293 197.673 315.199 196.914 315.271 196.162V186.392H316.341V196.202C316.279 196.826 316.356 197.456 316.567 198.046C316.778 198.637 317.118 199.173 317.563 199.615C318.007 200.058 318.544 200.396 319.136 200.604C319.727 200.813 320.358 200.887 320.981 200.822C321.594 200.861 322.207 200.775 322.785 200.568C323.363 200.362 323.892 200.04 324.341 199.622C324.755 199.178 325.074 198.655 325.279 198.085C325.483 197.514 325.569 196.907 325.531 196.302V186.392H326.591Z" fill="white"/>
<path d="M341.071 193.812C341.191 192.928 341.105 192.027 340.821 191.182C340.537 190.336 340.061 189.567 339.432 188.934C338.802 188.302 338.035 187.823 337.191 187.534C336.346 187.246 335.446 187.156 334.561 187.272H331.771V200.562H334.281C338.815 200.562 341.078 198.312 341.071 193.812ZM342.221 193.812C342.221 196.362 341.561 198.282 340.221 199.582C338.881 200.882 336.931 201.582 334.351 201.582H330.721V186.392H334.811C335.816 186.268 336.835 186.376 337.792 186.706C338.749 187.036 339.617 187.58 340.332 188.296C341.047 189.013 341.588 189.883 341.916 190.841C342.243 191.798 342.348 192.818 342.221 193.822" fill="white"/>
<path d="M353.991 201.502H345.711V186.342H353.991V187.322H346.771V193.052H353.591V194.022H346.771V200.522H353.991V201.502Z" fill="white"/>
<path d="M365.791 197.592C365.813 198.167 365.698 198.74 365.454 199.261C365.211 199.783 364.847 200.239 364.391 200.592C363.323 201.377 362.016 201.769 360.691 201.702C359.246 201.766 357.801 201.56 356.431 201.092V200.042C357.766 200.545 359.186 200.779 360.611 200.732C361.664 200.789 362.704 200.485 363.561 199.872C363.911 199.615 364.194 199.277 364.386 198.887C364.577 198.497 364.672 198.066 364.661 197.632C364.68 197.131 364.555 196.635 364.301 196.202C363.986 195.782 363.579 195.44 363.111 195.202C362.343 194.797 361.54 194.462 360.711 194.202C359.525 193.874 358.427 193.283 357.501 192.472C357.198 192.139 356.963 191.749 356.811 191.325C356.658 190.902 356.59 190.452 356.611 190.002C356.6 189.467 356.716 188.938 356.949 188.456C357.182 187.975 357.525 187.555 357.951 187.232C358.929 186.482 360.14 186.099 361.371 186.152C362.746 186.144 364.108 186.42 365.371 186.962L364.991 187.872C363.851 187.377 362.624 187.112 361.381 187.092C360.43 187.038 359.488 187.31 358.711 187.862C358.387 188.109 358.126 188.431 357.952 188.8C357.778 189.169 357.696 189.574 357.711 189.982C357.691 190.461 357.798 190.937 358.021 191.362C358.265 191.774 358.609 192.119 359.021 192.362C359.783 192.767 360.579 193.101 361.401 193.362C362.332 193.656 363.228 194.051 364.071 194.542C364.604 194.867 365.05 195.317 365.371 195.852C365.656 196.397 365.797 197.007 365.781 197.622" fill="white"/>
<path d="M378.461 201.502H377.391V187.342H372.471V186.342H383.381V187.342H378.461V201.502Z" fill="white"/>
<path d="M386.691 193.982H389.581C390.65 194.053 391.709 193.753 392.581 193.132C392.94 192.82 393.221 192.429 393.403 191.99C393.585 191.551 393.663 191.076 393.631 190.602C393.674 190.133 393.606 189.66 393.432 189.222C393.259 188.785 392.984 188.394 392.631 188.082C391.614 187.474 390.433 187.197 389.251 187.292H386.741L386.691 193.982ZM386.691 194.892V201.502H385.631V186.392H389.241C390.703 186.27 392.165 186.62 393.411 187.392C393.867 187.772 394.226 188.255 394.459 188.801C394.692 189.346 394.792 189.94 394.751 190.532C394.783 191.454 394.501 192.36 393.951 193.102C393.328 193.859 392.469 194.387 391.511 194.602L395.621 201.512H394.361L390.451 194.902L386.691 194.892Z" fill="white"/>
<path d="M399.771 195.192H405.191L403.131 189.732C402.961 189.302 402.751 188.732 402.511 187.952C402.34 188.562 402.136 189.163 401.901 189.752L399.771 195.192ZM405.551 196.192H399.391L397.271 201.542H396.101L402.201 186.322H402.871L408.871 201.542H407.681L405.551 196.192Z" fill="white"/>
<path d="M422.011 201.502H420.941L411.941 188.042H411.861C411.941 189.642 411.991 190.852 411.991 191.672V201.502H410.991V186.392H412.051L421.051 199.832H421.121C421.051 198.582 421.021 197.402 421.021 196.282V186.392H422.021L422.011 201.502Z" fill="white"/>
<path d="M434.671 197.592C434.693 198.167 434.578 198.74 434.334 199.261C434.091 199.783 433.727 200.239 433.271 200.592C432.203 201.377 430.896 201.769 429.571 201.702C428.126 201.768 426.68 201.561 425.311 201.092V200.042C426.642 200.544 428.06 200.779 429.481 200.732C430.55 200.798 431.61 200.494 432.481 199.872C432.831 199.615 433.114 199.277 433.306 198.887C433.497 198.497 433.592 198.066 433.581 197.632C433.601 197.129 433.473 196.632 433.211 196.202C432.903 195.78 432.498 195.437 432.031 195.202C431.263 194.797 430.46 194.462 429.631 194.202C428.445 193.874 427.347 193.283 426.421 192.472C426.103 192.101 425.861 191.67 425.71 191.204C425.56 190.738 425.503 190.247 425.544 189.76C425.585 189.272 425.723 188.797 425.949 188.364C426.175 187.93 426.485 187.545 426.861 187.232C427.844 186.482 429.057 186.1 430.291 186.152C431.666 186.144 433.028 186.42 434.291 186.962L433.911 187.872C432.771 187.377 431.544 187.112 430.301 187.092C429.35 187.038 428.408 187.31 427.631 187.862C427.307 188.109 427.046 188.431 426.872 188.8C426.698 189.169 426.616 189.574 426.631 189.982C426.611 190.461 426.718 190.937 426.941 191.362C427.185 191.774 427.529 192.119 427.941 192.362C428.703 192.767 429.499 193.101 430.321 193.362C431.251 193.657 432.147 194.053 432.991 194.542C433.524 194.867 433.97 195.317 434.291 195.852C434.576 196.397 434.717 197.007 434.701 197.622" fill="white"/>
<path d="M438.931 201.502H437.871V186.342H446.171V187.322H438.931V193.742H445.771V194.732H438.931V201.502Z" fill="white"/>
<path d="M448.871 193.902C448.762 195.686 449.275 197.453 450.321 198.902C450.863 199.462 451.512 199.907 452.229 200.211C452.946 200.515 453.717 200.671 454.496 200.671C455.275 200.671 456.046 200.515 456.764 200.211C457.481 199.907 458.13 199.462 458.671 198.902C459.728 197.439 460.241 195.653 460.121 193.852C460.239 192.067 459.726 190.297 458.671 188.852C458.16 188.259 457.519 187.792 456.797 187.488C456.075 187.185 455.293 187.053 454.511 187.102C453.728 187.058 452.945 187.193 452.222 187.498C451.499 187.803 450.856 188.27 450.341 188.862C449.281 190.305 448.76 192.074 448.871 193.862V193.902ZM461.271 193.862C461.388 195.92 460.744 197.948 459.461 199.562C458.816 200.227 458.043 200.755 457.189 201.116C456.336 201.476 455.418 201.662 454.491 201.662C453.565 201.662 452.647 201.476 451.794 201.116C450.94 200.755 450.167 200.227 449.521 199.562C448.343 197.891 447.711 195.896 447.711 193.852C447.711 191.807 448.343 189.813 449.521 188.142C450.172 187.486 450.946 186.965 451.799 186.61C452.652 186.254 453.567 186.071 454.491 186.071C455.415 186.071 456.33 186.254 457.183 186.61C458.036 186.965 458.811 187.486 459.461 188.142C460.73 189.766 461.366 191.795 461.251 193.852" fill="white"/>
<path d="M465.811 193.982H468.701C469.77 194.053 470.829 193.753 471.701 193.132C472.06 192.82 472.341 192.429 472.523 191.99C472.705 191.551 472.783 191.076 472.751 190.602C472.794 190.133 472.726 189.66 472.552 189.222C472.379 188.785 472.104 188.394 471.751 188.082C470.734 187.474 469.553 187.197 468.371 187.292H465.861L465.811 193.982ZM465.811 194.892V201.502H464.751V186.392H468.361C469.823 186.27 471.285 186.62 472.531 187.392C472.989 187.77 473.35 188.253 473.583 188.799C473.816 189.345 473.915 189.94 473.871 190.532C473.903 191.454 473.621 192.36 473.071 193.102C472.448 193.859 471.589 194.387 470.631 194.602L474.751 201.512H473.481L469.571 194.902L465.811 194.892Z" fill="white"/>
<path d="M484.031 201.502L478.381 187.502H478.301C478.361 188.362 478.381 189.242 478.381 190.132V201.502H477.381V186.392H479.021L484.391 199.722H484.451L489.811 186.392H491.411V201.552H490.341V190.012C490.341 189.212 490.381 188.382 490.461 187.522H490.381L484.711 201.522L484.031 201.502Z" fill="white"/>
<path d="M497.211 195.192H502.631L500.571 189.732C500.401 189.302 500.191 188.732 499.951 187.952C499.78 188.562 499.576 189.163 499.341 189.752L497.211 195.192ZM502.991 196.192H496.831L494.711 201.542H493.541L499.641 186.322H500.311L506.311 201.542H505.121L502.991 196.192Z" fill="white"/>
<path d="M515.091 201.502L509.441 187.502H509.361C509.421 188.362 509.441 189.242 509.441 190.132V201.502H508.441V186.392H510.081L515.451 199.722H515.511L520.871 186.392H522.471V201.552H521.401V190.012C521.401 189.212 521.441 188.382 521.521 187.522H521.441L515.771 201.522L515.091 201.502Z" fill="white"/>
<path d="M181.87 152.553C183.409 151.428 184.652 149.945 185.49 148.232C186.409 146.421 186.905 144.424 186.94 142.393V135.072C186.917 133.029 186.428 131.018 185.51 129.192C184.672 127.48 183.429 125.997 181.89 124.873C180.421 123.802 178.648 123.23 176.83 123.243C170.937 123.243 167.99 127.336 167.99 135.523V141.882C167.99 150.102 170.937 154.213 176.83 154.213C178.647 154.228 180.42 153.661 181.89 152.593L181.87 152.553ZM168.25 153.673C165.935 152.222 164.082 150.14 162.91 147.673C161.651 144.839 161 141.773 161 138.673C161 135.572 161.651 132.506 162.91 129.673C164.082 127.218 165.936 125.152 168.25 123.722C170.652 122.296 173.407 121.572 176.2 121.633C178.49 121.581 180.738 122.256 182.62 123.563C184.495 124.929 185.983 126.759 186.94 128.873V106.173L182.49 105.542V104.262H193.3V153.262L197.75 153.903V155.173H186.94V148.553C185.989 150.67 184.499 152.5 182.62 153.863C180.741 155.176 178.492 155.856 176.2 155.803C173.402 155.86 170.645 155.121 168.25 153.673Z" fill="white"/>
<path d="M204.54 113.572C204.13 113.19 203.804 112.725 203.586 112.208C203.367 111.691 203.259 111.134 203.27 110.572C203.255 110.014 203.358 109.458 203.572 108.941C203.786 108.424 204.105 107.958 204.51 107.572C204.916 107.175 205.398 106.863 205.927 106.655C206.456 106.448 207.022 106.348 207.59 106.363C208.135 106.354 208.676 106.457 209.18 106.665C209.684 106.873 210.14 107.182 210.52 107.572C210.914 107.964 211.223 108.433 211.43 108.949C211.636 109.465 211.735 110.017 211.72 110.572C211.729 111.127 211.628 111.678 211.422 112.193C211.215 112.708 210.909 113.177 210.52 113.572C210.145 113.972 209.691 114.289 209.186 114.502C208.681 114.716 208.138 114.821 207.59 114.812C207.024 114.822 206.462 114.717 205.938 114.504C205.414 114.291 204.939 113.974 204.54 113.572ZM200.85 155.132V153.863L205.3 153.222V124.162L200.85 123.523V122.253H211.66V153.252L216.11 153.893V155.162L200.85 155.132Z" fill="white"/>
<path d="M236.68 151.953C237.94 151.221 239.002 150.191 239.77 148.953C240.65 147.543 241.172 145.94 241.29 144.283V137.662H237.03C233.55 137.662 230.96 138.443 229.24 139.993C228.363 140.825 227.678 141.838 227.234 142.963C226.79 144.088 226.598 145.296 226.67 146.502C226.67 148.842 227.22 150.509 228.32 151.502C229.691 152.576 231.413 153.1 233.15 152.972C234.393 152.951 235.61 152.606 236.68 151.972V151.953ZM222.94 153.632C222.046 152.852 221.346 151.876 220.893 150.779C220.44 149.682 220.247 148.496 220.33 147.313C220.33 143.313 221.997 140.482 225.33 138.822C228.959 137.084 232.947 136.224 236.97 136.313H241.23V131.393C241.303 129.655 241.056 127.92 240.5 126.273C240.105 125.165 239.294 124.254 238.24 123.733C236.935 123.184 235.524 122.932 234.11 122.993C232.536 122.873 230.968 123.289 229.66 124.173C229.186 124.545 228.806 125.025 228.552 125.573C228.299 126.12 228.178 126.72 228.2 127.323C228.164 127.87 228.323 128.412 228.649 128.853C228.975 129.295 229.446 129.606 229.98 129.733C229.98 130.257 229.873 130.776 229.665 131.258C229.457 131.739 229.152 132.173 228.77 132.533C228.401 132.919 227.958 133.226 227.466 133.434C226.974 133.643 226.444 133.747 225.91 133.743C224.861 133.784 223.836 133.427 223.04 132.743C222.66 132.346 222.367 131.874 222.181 131.357C221.995 130.84 221.92 130.29 221.96 129.743C221.96 127.296 223.19 125.326 225.65 123.833C228.462 122.263 231.651 121.495 234.87 121.613C243.35 121.613 247.59 125.299 247.59 132.673V150.863C247.537 151.622 247.753 152.376 248.2 152.993C248.413 153.241 248.682 153.436 248.984 153.563C249.286 153.69 249.613 153.744 249.94 153.722C250.263 153.739 250.586 153.682 250.884 153.555C251.182 153.429 251.447 153.236 251.66 152.993C252.112 152.427 252.34 151.715 252.3 150.993H253.63C253.665 151.645 253.555 152.298 253.308 152.903C253.061 153.508 252.682 154.051 252.2 154.493C251.074 155.404 249.646 155.857 248.2 155.763C246.408 155.817 244.656 155.22 243.27 154.083C241.937 152.963 241.247 151.213 241.2 148.833C240.208 150.972 238.576 152.751 236.53 153.923C234.407 155.16 231.987 155.796 229.53 155.763C227.125 155.862 224.762 155.107 222.86 153.632" fill="white"/>
<path d="M254.2 155.133V153.863L258.97 153.223V106.163L254.2 105.533V104.253H265.33V153.223L269.78 153.863V155.133H254.2Z" fill="white"/>
<path d="M297.41 150.933C299.12 148.219 299.954 145.046 299.8 141.843V135.482C299.8 131.716 299.003 128.696 297.41 126.423C296.559 125.359 295.48 124.501 294.253 123.911C293.026 123.321 291.682 123.015 290.32 123.015C288.958 123.015 287.614 123.321 286.387 123.911C285.16 124.501 284.081 125.359 283.23 126.423C281.637 128.696 280.843 131.716 280.85 135.482V141.843C280.693 145.045 281.524 148.218 283.23 150.933C284.072 152.009 285.148 152.88 286.376 153.479C287.605 154.078 288.953 154.389 290.32 154.389C291.687 154.389 293.035 154.078 294.264 153.479C295.492 152.88 296.568 152.009 297.41 150.933ZM281.99 153.632C279.492 152.222 277.435 150.145 276.05 147.632C274.605 144.881 273.85 141.82 273.85 138.713C273.85 135.605 274.605 132.544 276.05 129.792C277.44 127.284 279.495 125.207 281.99 123.792C284.544 122.395 287.408 121.662 290.32 121.662C293.231 121.662 296.096 122.395 298.65 123.792C301.146 125.21 303.204 127.285 304.6 129.792C306.039 132.546 306.79 135.606 306.79 138.713C306.79 141.819 306.039 144.879 304.6 147.632C303.208 150.143 301.148 152.219 298.65 153.632C296.096 155.03 293.231 155.763 290.32 155.763C287.408 155.763 284.544 155.03 281.99 153.632Z" fill="white"/>
<path d="M331.85 130.773C331.988 128.648 331.418 126.539 330.23 124.773C329.642 124.063 328.894 123.503 328.047 123.14C327.2 122.777 326.279 122.62 325.36 122.683C321.16 122.683 319.06 125.372 319.06 130.752V133.873C318.945 135.958 319.491 138.026 320.62 139.783C321.168 140.509 321.888 141.087 322.716 141.464C323.544 141.841 324.452 142.006 325.36 141.942C326.286 142.005 327.213 141.84 328.062 141.464C328.91 141.088 329.654 140.511 330.23 139.783C331.398 138.041 331.967 135.966 331.85 133.873V130.773ZM342.02 123.463C340.793 124.656 338.843 125.419 336.17 125.752C337.371 127.74 337.946 130.043 337.82 132.363C337.887 133.851 337.603 135.333 336.991 136.692C336.38 138.05 335.458 139.246 334.3 140.183C331.749 142.158 328.584 143.174 325.36 143.053C323.993 143.064 322.629 142.934 321.29 142.662C318.577 142.829 317.22 143.889 317.22 145.843C317.191 146.335 317.305 146.825 317.548 147.255C317.791 147.684 318.153 148.034 318.59 148.263C319.958 148.861 321.45 149.121 322.94 149.023H330.07C333.497 149.023 336.05 149.723 337.73 151.123C339.41 152.523 340.247 154.919 340.24 158.313C340.258 160.622 339.631 162.89 338.43 164.863C337.162 166.906 335.342 168.549 333.18 169.603C330.614 170.845 327.79 171.459 324.94 171.393C320.153 171.393 316.623 170.673 314.35 169.233C313.323 168.671 312.465 167.844 311.867 166.838C311.269 165.832 310.952 164.683 310.95 163.513C310.95 162.797 311.097 162.089 311.38 161.432C311.664 160.775 312.079 160.183 312.6 159.692C313.202 159.126 313.914 158.687 314.691 158.404C315.468 158.12 316.294 157.997 317.12 158.043C317.907 158.081 318.692 158.165 319.47 158.293C318.823 158.953 318.313 159.734 317.97 160.592C317.627 161.451 317.457 162.368 317.47 163.293C317.459 164.174 317.622 165.049 317.949 165.868C318.277 166.686 318.763 167.432 319.38 168.063C320.65 169.423 322.72 170.063 325.61 170.063C327.926 170.101 330.221 169.612 332.32 168.632C334.129 167.805 335.693 166.523 336.86 164.912C337.866 163.545 338.421 161.899 338.45 160.203C338.514 159.468 338.391 158.73 338.092 158.057C337.793 157.383 337.328 156.797 336.74 156.353C335.59 155.573 333.56 155.183 330.63 155.183H322.94C319.94 155.183 317.74 154.603 316.23 153.433C315.469 152.811 314.868 152.017 314.476 151.116C314.085 150.214 313.915 149.233 313.98 148.252C313.963 146.813 314.42 145.407 315.28 144.252C316.088 143.125 317.272 142.323 318.62 141.993C314.933 140.419 313.09 137.239 313.09 132.453C313.018 130.958 313.296 129.467 313.902 128.099C314.508 126.731 315.425 125.524 316.58 124.573C319.075 122.609 322.187 121.595 325.36 121.713C329.813 121.713 333.037 122.642 335.03 124.502C336.015 124.381 336.943 123.974 337.7 123.333C337.974 123.088 338.195 122.79 338.348 122.456C338.501 122.122 338.584 121.76 338.59 121.393C338.611 121.106 338.57 120.818 338.47 120.549C338.37 120.28 338.213 120.036 338.01 119.833C337.835 119.659 337.627 119.522 337.399 119.43C337.171 119.337 336.926 119.29 336.68 119.293C336.679 118.834 336.771 118.38 336.952 117.959C337.132 117.538 337.397 117.158 337.73 116.843C338.055 116.506 338.445 116.239 338.876 116.058C339.308 115.877 339.772 115.787 340.24 115.793C341.208 115.767 342.146 116.127 342.85 116.793C343.189 117.12 343.453 117.516 343.626 117.954C343.798 118.392 343.875 118.862 343.85 119.333C343.858 120.132 343.698 120.924 343.381 121.657C343.064 122.391 342.597 123.05 342.01 123.593" fill="white"/>
<path d="M369.21 150.933C370.916 148.218 371.747 145.045 371.59 141.843V135.482C371.59 131.716 370.797 128.696 369.21 126.423C368.358 125.359 367.278 124.501 366.05 123.911C364.822 123.321 363.477 123.015 362.115 123.015C360.753 123.015 359.408 123.321 358.179 123.911C356.951 124.501 355.872 125.359 355.02 126.423C353.433 128.696 352.64 131.716 352.64 135.482V141.843C352.483 145.045 353.314 148.218 355.02 150.933C355.862 152.011 356.938 152.883 358.167 153.483C359.397 154.083 360.747 154.395 362.115 154.395C363.483 154.395 364.833 154.083 366.062 153.483C367.292 152.883 368.368 152.011 369.21 150.933ZM353.78 153.632C351.282 152.222 349.225 150.145 347.84 147.632C346.401 144.879 345.65 141.819 345.65 138.713C345.65 135.606 346.401 132.546 347.84 129.792C349.23 127.284 351.285 125.207 353.78 123.792C356.336 122.395 359.202 121.662 362.115 121.662C365.028 121.662 367.894 122.395 370.45 123.792C372.945 125.207 375 127.284 376.39 129.792C377.835 132.544 378.59 135.605 378.59 138.713C378.59 141.82 377.835 144.881 376.39 147.632C375.005 150.145 372.948 152.222 370.45 153.632C367.894 155.03 365.028 155.763 362.115 155.763C359.202 155.763 356.336 155.03 353.78 153.632Z" fill="white"/>
<path d="M427.61 141.903V135.542C427.61 127.322 424.667 123.209 418.78 123.202C416.952 123.187 415.168 123.758 413.69 124.833C412.129 125.949 410.879 127.447 410.06 129.183C409.165 131.029 408.687 133.05 408.66 135.102V141.903C408.647 143.997 409.094 146.07 409.97 147.972C410.761 149.77 412.009 151.328 413.59 152.493C415.093 153.598 416.914 154.187 418.78 154.172C424.673 154.172 427.617 150.083 427.61 141.903ZM397.85 171.852L402.3 171.222V124.162L397.85 123.523V122.252H408.66V128.933C409.598 126.794 411.08 124.939 412.96 123.553C414.848 122.234 417.108 121.554 419.41 121.612C422.208 121.56 424.963 122.298 427.36 123.743C429.672 125.197 431.523 127.278 432.7 129.743C433.959 132.576 434.61 135.642 434.61 138.743C434.61 141.843 433.959 144.909 432.7 147.743C431.528 150.197 429.674 152.263 427.36 153.692C424.956 155.116 422.203 155.84 419.41 155.783C417.107 155.846 414.845 155.166 412.96 153.843C411.089 152.476 409.607 150.646 408.66 148.533V171.243L414.66 171.873V173.142H397.85V171.852Z" fill="white"/>
<path d="M463.64 150.933C465.346 148.218 466.177 145.045 466.02 141.843V135.482C466.02 131.716 465.227 128.696 463.64 126.423C462.789 125.359 461.71 124.501 460.483 123.911C459.256 123.321 457.912 123.015 456.55 123.015C455.188 123.015 453.844 123.321 452.617 123.911C451.389 124.501 450.311 125.359 449.46 126.423C447.873 128.696 447.077 131.716 447.07 135.482V141.843C446.916 145.046 447.75 148.219 449.46 150.933C450.302 152.009 451.378 152.88 452.606 153.479C453.835 154.078 455.183 154.389 456.55 154.389C457.917 154.389 459.265 154.078 460.494 153.479C461.722 152.88 462.798 152.009 463.64 150.933ZM448.22 153.632C445.717 152.225 443.656 150.147 442.27 147.632C440.831 144.879 440.08 141.819 440.08 138.713C440.08 135.606 440.831 132.546 442.27 129.792C443.661 127.281 445.72 125.204 448.22 123.792C450.774 122.395 453.638 121.662 456.55 121.662C459.461 121.662 462.326 122.395 464.88 123.792C467.375 125.207 469.43 127.284 470.82 129.792C472.265 132.544 473.02 135.605 473.02 138.713C473.02 141.82 472.265 144.881 470.82 147.632C469.435 150.145 467.378 152.222 464.88 153.632C462.326 155.03 459.461 155.763 456.55 155.763C453.638 155.763 450.774 155.03 448.22 153.632Z" fill="white"/>
<path d="M482.3 153.542C481.252 152.979 480.374 152.144 479.759 151.126C479.143 150.107 478.812 148.942 478.8 147.752C478.737 146.695 479.097 145.655 479.8 144.863C480.141 144.511 480.552 144.235 481.007 144.054C481.462 143.873 481.951 143.791 482.44 143.813C483.208 143.788 483.965 144.009 484.6 144.442C485.206 144.886 485.651 145.514 485.87 146.232C485.003 147.091 484.501 148.252 484.47 149.472C484.482 150.143 484.649 150.801 484.958 151.396C485.267 151.991 485.709 152.507 486.25 152.903C487.617 153.94 489.306 154.461 491.02 154.373C493.341 154.473 495.634 153.836 497.57 152.553C498.371 152.024 499.025 151.301 499.471 150.451C499.917 149.601 500.14 148.652 500.12 147.692C500.157 147.194 500.079 146.694 499.892 146.231C499.704 145.768 499.413 145.355 499.04 145.023C497.744 144.157 496.329 143.483 494.84 143.023L485.24 139.523C481.46 138.189 479.573 135.669 479.58 131.963C479.538 130.577 479.794 129.198 480.331 127.92C480.867 126.642 481.672 125.493 482.69 124.553C484.77 122.619 487.633 121.656 491.28 121.663C493.999 121.581 496.683 122.297 499 123.722C500.012 124.326 500.844 125.19 501.411 126.224C501.977 127.258 502.256 128.424 502.22 129.602C502.263 130.495 501.967 131.37 501.39 132.053C501.121 132.356 500.787 132.596 500.413 132.756C500.04 132.915 499.636 132.989 499.23 132.972C498.432 133.005 497.65 132.745 497.03 132.243C496.744 131.997 496.518 131.688 496.369 131.342C496.22 130.995 496.152 130.619 496.17 130.243C496.665 129.892 497.061 129.42 497.32 128.873C497.545 128.317 497.654 127.722 497.64 127.123C497.643 126.545 497.502 125.975 497.229 125.465C496.957 124.955 496.562 124.521 496.08 124.203C494.637 123.333 492.96 122.931 491.28 123.053C489.638 123.012 488.005 123.304 486.48 123.912C485.294 124.381 484.258 125.162 483.48 126.173C482.847 126.993 482.496 127.996 482.48 129.033C482.464 129.481 482.552 129.927 482.735 130.336C482.919 130.745 483.194 131.107 483.54 131.393C484.802 132.255 486.183 132.929 487.64 133.393L496.55 136.572C498.384 137.17 500.013 138.272 501.25 139.752C502.363 141.281 502.924 143.143 502.84 145.033C502.887 146.444 502.653 147.85 502.152 149.17C501.65 150.491 500.892 151.698 499.92 152.722C497.92 154.722 495 155.773 491.01 155.773C487.954 155.88 484.931 155.11 482.3 153.553" fill="white"/>
<path d="M511.49 113.572C511.08 113.19 510.754 112.725 510.536 112.208C510.317 111.691 510.209 111.134 510.22 110.572C510.205 110.014 510.308 109.458 510.522 108.941C510.736 108.424 511.055 107.958 511.46 107.572C511.869 107.181 512.352 106.875 512.881 106.672C513.41 106.47 513.974 106.375 514.54 106.392C515.085 106.384 515.626 106.487 516.13 106.695C516.634 106.903 517.09 107.212 517.47 107.603C517.865 107.994 518.176 108.462 518.384 108.978C518.592 109.494 518.693 110.046 518.68 110.603C518.687 111.158 518.584 111.709 518.376 112.224C518.168 112.739 517.86 113.208 517.47 113.603C517.095 114.002 516.641 114.319 516.136 114.532C515.631 114.746 515.088 114.851 514.54 114.842C513.974 114.851 513.413 114.746 512.889 114.533C512.365 114.32 511.889 114.004 511.49 113.603V113.572ZM507.8 155.162V153.892L512.25 153.252V124.162L507.8 123.523V122.252H518.61V153.252L523.06 153.892V155.162H507.8Z" fill="white"/>
<path d="M532.57 153.673C530.89 152.272 530.06 150.043 530.06 146.993V124.093L525.54 123.463V122.193H530.06V116.913L536.42 115.322V122.193H544.68V123.463L536.42 124.093V146.863C536.42 151.363 538.03 153.602 541.25 153.602C541.91 153.609 542.567 153.5 543.19 153.283C543.695 153.119 544.184 152.908 544.65 152.653C544.888 152.525 545.112 152.375 545.32 152.202L546.14 153.202C544.26 154.891 541.806 155.8 539.28 155.743C536.866 155.866 534.487 155.125 532.57 153.653" fill="white"/>
<path d="M551.94 113.572C551.53 113.19 551.204 112.725 550.986 112.208C550.767 111.691 550.659 111.134 550.67 110.572C550.655 110.014 550.758 109.458 550.972 108.941C551.185 108.424 551.505 107.958 551.91 107.572C552.724 106.794 553.814 106.37 554.94 106.393C555.485 106.384 556.026 106.487 556.53 106.695C557.034 106.903 557.49 107.212 557.87 107.603C558.265 107.994 558.576 108.462 558.784 108.978C558.992 109.494 559.093 110.046 559.08 110.603C559.087 111.158 558.984 111.709 558.776 112.224C558.568 112.739 558.26 113.208 557.87 113.603C557.495 114.002 557.041 114.319 556.536 114.532C556.031 114.746 555.488 114.851 554.94 114.843C554.374 114.851 553.813 114.746 553.289 114.533C552.765 114.32 552.289 114.004 551.89 113.603L551.94 113.572ZM548.2 155.162V153.893L552.65 153.252V124.162L548.2 123.523V122.253H559.01V153.252L563.47 153.893V155.162H548.2Z" fill="white"/>
<path d="M581.69 156.403L568.08 124.093L563.95 123.463V122.193H579.78V123.463L575.21 124.293L584.81 148.203L593.39 125.113L587.8 123.523V122.253H599.18V123.523L595.17 125.053L583.47 156.403H581.69Z" fill="white"/>
<path d="M623.57 150.933C625.276 148.218 626.107 145.045 625.95 141.843V135.482C625.95 131.716 625.157 128.696 623.57 126.423C622.719 125.359 621.64 124.501 620.413 123.911C619.186 123.321 617.842 123.015 616.48 123.015C615.118 123.015 613.774 123.321 612.547 123.911C611.32 124.501 610.241 125.359 609.39 126.423C607.803 128.696 607.007 131.716 607 135.482V141.843C606.846 145.046 607.68 148.219 609.39 150.933C610.232 152.009 611.308 152.88 612.536 153.479C613.765 154.078 615.113 154.389 616.48 154.389C617.847 154.389 619.195 154.078 620.424 153.479C621.652 152.88 622.728 152.009 623.57 150.933ZM608.15 153.632C605.629 152.233 603.55 150.154 602.15 147.632C600.711 144.879 599.96 141.819 599.96 138.713C599.96 135.606 600.711 132.546 602.15 129.792C603.554 127.274 605.632 125.197 608.15 123.792C610.704 122.395 613.568 121.662 616.48 121.662C619.391 121.662 622.256 122.395 624.81 123.792C627.305 125.207 629.36 127.284 630.75 129.792C632.195 132.544 632.95 135.605 632.95 138.713C632.95 141.82 632.195 144.881 630.75 147.632C629.365 150.145 627.308 152.222 624.81 153.632C622.256 155.03 619.391 155.763 616.48 155.763C613.568 155.763 610.704 155.03 608.15 153.632Z" fill="white"/>
<path d="M237.17 115.943C238.52 115.107 239.696 114.017 240.63 112.732C241.589 111.558 242.134 110.099 242.18 108.582C242.198 108.247 242.087 107.918 241.87 107.663C241.74 107.533 241.583 107.434 241.41 107.373C241.237 107.313 241.052 107.292 240.87 107.312C240.37 107.314 239.874 107.216 239.412 107.025C238.95 106.834 238.53 106.553 238.176 106.199C237.823 105.845 237.544 105.424 237.354 104.961C237.164 104.499 237.067 104.003 237.07 103.502C237.056 103.01 237.148 102.521 237.339 102.067C237.531 101.613 237.817 101.206 238.18 100.872C238.91 100.199 239.877 99.8392 240.87 99.8725C241.543 99.8458 242.213 99.9787 242.824 100.26C243.436 100.542 243.973 100.964 244.39 101.493C245.305 102.703 245.769 104.196 245.7 105.713C245.72 108.006 245.044 110.252 243.76 112.152C242.244 114.262 240.198 115.935 237.83 117.002L237.17 115.943Z" fill="white"/>
</svg>
