<?xml version="1.0" encoding="UTF-8"?>
<svg id="Layer_1" data-name="Layer 1" xmlns="http://www.w3.org/2000/svg" viewBox="0 0 75 34">
  <g id="root">
    <path d="M18.14,9.71h5.73V5.67h-5.73c-3.04,0-5.95,1.19-8.1,3.32-2.15,2.13-3.36,5.01-3.36,8.01s1.21,5.89,3.36,8.01c2.15,2.13,5.06,3.32,8.1,3.32h10.5c.13,0,.25-.02,.37-.07,.12-.05,.22-.12,.31-.21,.09-.09,.16-.19,.21-.31,.05-.11,.07-.24,.07-.36V6.61c0-.56,.19-1.11,.54-1.56,.35-.45,.84-.77,1.39-.91,.55-.15,1.14-.11,1.66,.11,.53,.22,.97,.6,1.25,1.09h0l13.01,22.52h0c.11,.18,.27,.32,.46,.4,.19,.08,.41,.09,.61,.04,.2-.05,.38-.17,.51-.34,.13-.17,.2-.37,.2-.58V6.61c0-.56,.19-1.11,.54-1.56,.35-.45,.84-.77,1.39-.91,.55-.15,1.14-.11,1.66,.11,.53,.22,.97,.6,1.25,1.09h0l13.01,22.52h0c.11,.18,.27,.32,.46,.4,.19,.08,.41,.09,.61,.04,.2-.05,.38-.17,.51-.34,.13-.17,.2-.37,.2-.58V0h-4.09V15.71l-7.15-12.38c-.73-1.26-1.87-2.25-3.23-2.82-1.36-.56-2.87-.66-4.29-.29-1.42,.37-2.68,1.2-3.58,2.36-.9,1.15-1.39,2.57-1.39,4.03V15.71l-7.15-12.38c-.73-1.26-1.87-2.25-3.23-2.82-1.36-.56-2.87-.66-4.29-.29-1.42,.37-2.68,1.2-3.58,2.36-.9,1.15-1.39,2.57-1.39,4.03V23.34c0,.25-.1,.49-.28,.67-.18,.18-.42,.28-.68,.28h-6.41c-1.95,0-3.83-.77-5.21-2.13-1.38-1.37-2.16-3.22-2.16-5.15s.78-3.79,2.16-5.15c1.38-1.37,3.26-2.13,5.21-2.13Z" style="fill: #666666;"/>
    <path d="M70.53,0h4.09V27.39c0,1.46-.49,2.87-1.39,4.03-.9,1.15-2.16,1.98-3.58,2.36-1.42,.37-2.93,.27-4.29-.29-1.36-.56-2.49-1.55-3.23-2.82l-7.15-12.38v9.1c0,1.46-.49,2.87-1.39,4.03-.9,1.15-2.16,1.98-3.58,2.36-1.42,.37-2.93,.27-4.29-.29-1.36-.56-2.49-1.55-3.23-2.82l-7.15-12.38v9.1c0,1.75-.7,3.44-1.96,4.68-1.25,1.24-2.95,1.94-4.73,1.94h-10.5c-4.56,0-8.93-1.79-12.15-4.98C2.76,25.83,.95,21.51,.95,17S2.76,8.17,5.99,4.98C9.21,1.79,13.58,0,18.14,0h5.73V4.05h-5.73c-3.47,0-6.8,1.36-9.26,3.79-2.46,2.43-3.84,5.72-3.84,9.16s1.38,6.73,3.84,9.16c2.46,2.43,5.79,3.79,9.26,3.79h10.5c.34,0,.68-.07,.99-.2,.31-.13,.6-.32,.84-.56s.43-.52,.56-.83c.13-.31,.2-.65,.2-.98V6.62c0-.21,.07-.41,.2-.58,.13-.17,.31-.28,.51-.34,.2-.05,.42-.04,.61,.04,.19,.08,.36,.22,.46,.4h0l13.01,22.52h0c.29,.49,.73,.87,1.25,1.09,.53,.22,1.11,.26,1.66,.11,.55-.15,1.04-.47,1.39-.91,.35-.45,.54-1,.54-1.56V6.62c0-.21,.07-.41,.2-.58,.13-.17,.31-.28,.51-.34,.2-.05,.42-.04,.61,.04,.19,.08,.36,.22,.46,.4h0l13.01,22.52h0c.29,.49,.73,.87,1.25,1.09,.53,.22,1.11,.26,1.66,.11,.55-.15,1.04-.47,1.39-.91,.35-.45,.54-1,.54-1.56V0Z" style="fill: #666666;"/>
  </g>
</svg>