<?xml version="1.0" encoding="UTF-8"?>
<svg id="Layer_1" data-name="Layer 1" xmlns="http://www.w3.org/2000/svg" viewBox="0 0 126 30">
  <g id="root">
    <path d="M23.01,2.51c-.01,.19-.06,.38-.14,.55l-1.22,3.5c-.17,.41-.33,.63-.61,.63-.2-.02-.39-.09-.55-.19-2.22-1.02-3.93-1.38-5.87-1.38-4.35,0-7.15,3.31-7.15,9.38,0,6.56,3.19,9.37,7.26,9.37,1.94,0,3.87-.39,5.65-1.16,.19-.08,.4-.14,.61-.17,.39,0,.58,.17,.75,.66l1.05,3.06c.08,.22,.13,.45,.14,.69,0,.41-.17,.69-.78,.91-2.69,1.08-5.58,1.62-8.48,1.6C4.84,29.97,.38,24.13,.38,15.19S5.83,0,14.23,0c2.74-.04,5.46,.52,7.95,1.65,.61,.28,.83,.55,.83,.83v.03Zm11.42,11.72c-1.44,.04-2.81,.63-3.82,1.65v12.41c0,.74-.33,1.16-1.16,1.16h-3.93c-.75,0-1.16-.39-1.16-1.16V10.42c0-.99,.5-1.21,1.19-1.21h3.38c.8,0,1.19,.22,1.22,.83l.08,1.27c1.5-1.79,2.77-2.67,5.21-2.67,.4,.02,.8,.07,1.19,.17,.53,.14,.53,.55,.44,.99l-.61,3.92c-.11,.47-.3,.66-.67,.66-.44,0-.64-.11-1.33-.11l-.03-.03Zm22.03,4.99v.55c0,.99-.44,1.21-1.5,1.21h-11.72c.5,2.59,2.85,4.08,5.38,4.08,1.81-.03,3.6-.4,5.27-1.1,.16-.07,.33-.11,.5-.11,.17,0,.33,.05,.46,.16,.13,.11,.21,.25,.24,.42,.17,.69,.78,2.59,.78,3.23,0,.55-.36,.72-.78,.94-2.22,.97-5.15,1.38-7.57,1.38-6.65,0-10.86-4.08-10.86-10.7s4.38-10.67,10.81-10.67c2.69,0,4.93,.99,6.48,2.65,2.08,2.21,2.49,5.07,2.49,7.97h.03Zm-13.14-2.21h6.98c0-1.76-1.05-3.58-3.21-3.58s-3.49,1.65-3.77,3.58Z" style="fill: #666666;"/>
    <path d="M73.56,23.35c0,4.8-4.24,6.62-8.4,6.62-2.42-.06-4.8-.58-7.01-1.54-.17-.04-.31-.14-.42-.27-.11-.13-.16-.3-.16-.47l.08-.5,.83-2.62c.17-.52,.36-.74,.64-.74,.23,.02,.45,.07,.67,.17,1.74,.77,3.61,1.2,5.51,1.3,1.33,0,2.24-.55,2.24-1.46,0-.77-.42-1.19-1.94-1.79l-3.74-1.38c-2.24-.83-4.24-2.81-4.24-5.79,0-4.44,4.21-6.23,7.95-6.23,2.27-.05,4.52,.39,6.6,1.3,.16,.05,.29,.14,.39,.27,.1,.13,.16,.28,.16,.45l-.08,.44-.89,2.92c-.04,.15-.13,.28-.26,.37-.13,.09-.28,.13-.44,.12l-.47-.08c-1.58-.58-3.3-.99-4.63-.99s-2,.74-2,1.32c0,.5,.17,1.02,1.58,1.57l4.21,1.65c1.13,.38,2.1,1.11,2.78,2.08,.68,.97,1.02,2.14,.99,3.32" style="fill: #666666;"/>
    <path d="M91.63,27.99c0,.47-.33,.58-.67,.74-2.22,.99-3.91,1.24-6.37,1.24-6.35,0-10.23-3.78-10.23-10.31s4.02-11.03,10.64-11.06c2.01-.02,4,.38,5.85,1.19,.58,.25,.58,.63,.44,1.19l-.64,3.01c-.11,.41-.3,.58-.55,.58-.21-.02-.42-.08-.61-.17-1.15-.5-2.4-.77-3.66-.8-3.27,0-4.99,2.15-4.99,5.74,0,3.78,1.8,5.82,4.71,5.82,1.44,.02,2.86-.29,4.16-.91,.15-.05,.31-.09,.47-.11,.3,0,.5,.25,.58,.55,.19,.72,.89,2.65,.89,3.31" style="fill: #666666;"/>
    <path d="M111.25,19.22v.55c0,.99-.44,1.21-1.5,1.21h-11.69c.5,2.59,2.85,4.08,5.38,4.08,1.81-.03,3.6-.4,5.26-1.1,.16-.08,.35-.12,.53-.11,.16,0,.32,.06,.44,.16,.12,.11,.2,.26,.22,.42,.17,.69,.78,2.59,.78,3.23,0,.55-.36,.72-.78,.94-2.22,.97-5.15,1.38-7.57,1.38-6.65,0-10.86-4.08-10.86-10.7s4.38-10.67,10.81-10.67c2.69,0,4.93,.99,6.49,2.65,2.08,2.21,2.49,5.07,2.49,7.97Zm-6.12-2.21c0-1.76-1.05-3.58-3.22-3.58s-3.49,1.65-3.77,3.58h6.98Zm18.04-2.78c-1.44,.03-2.81,.63-3.82,1.65v12.41c0,.74-.36,1.16-1.19,1.16h-3.88c-.75,0-1.16-.39-1.16-1.16V10.42c0-.99,.5-1.21,1.19-1.21h3.38c.8,0,1.19,.22,1.22,.83l.08,1.27c1.5-1.79,2.77-2.67,5.21-2.67,.4,.02,.8,.07,1.19,.17,.53,.14,.53,.55,.44,.99l-.61,3.92c-.08,.47-.31,.66-.69,.66s-.61-.11-1.33-.11l-.03-.03ZM22.88,3.06c.08-.18,.13-.38,.14-.58,0-.28-.22-.55-.8-.83C19.7,.53,16.98-.03,14.23,0,5.83,0,.38,6.23,.38,15.19s4.43,14.78,13.36,14.78c2.9,.02,5.77-.52,8.45-1.6,.61-.22,.78-.5,.78-.91-.01-.24-.06-.47-.14-.69l-1.08-3.06c-.17-.5-.36-.66-.75-.66-.21,.03-.42,.08-.61,.17-1.79,.77-3.71,1.16-5.65,1.16-4.07,0-7.26-2.81-7.26-9.4,0-6.07,2.8-9.37,7.15-9.37,1.97,0,3.66,.39,5.87,1.43,.17,.09,.36,.14,.55,.17,.28,0,.44-.22,.61-.63l1.22-3.5Zm7.76,12.79c1.02-1.02,2.41-1.59,3.85-1.6,.69,0,.91,.11,1.33,.11s.58-.19,.66-.66l.64-3.92c.08-.44,.08-.85-.47-.99-.38-.09-.77-.15-1.16-.17-2.44,0-3.71,.88-5.21,2.67l-.08-1.27c-.06-.61-.42-.83-1.22-.83h-3.38c-.72,0-1.22,.22-1.22,1.21V28.29c0,.77,.42,1.16,1.16,1.16h3.93c.83,0,1.16-.41,1.16-1.19V15.85Zm12.75,1.19c.28-1.99,1.66-3.64,3.74-3.64,2.19,0,3.21,1.85,3.21,3.64h-6.96Zm13.08,2.73v-.52c0-2.92-.39-5.79-2.49-8-.83-.87-1.83-1.55-2.95-2.01-1.11-.46-2.31-.67-3.51-.64-6.43,0-10.81,4.22-10.81,10.67s4.18,10.7,10.83,10.7c2.44,0,5.35-.41,7.57-1.41,.42-.19,.8-.36,.8-.91,0-.63-.64-2.54-.8-3.25-.03-.16-.11-.3-.23-.4-.12-.1-.28-.16-.44-.15-.17,0-.34,.04-.5,.11-1.67,.69-3.46,1.06-5.26,1.08-2.55,0-4.88-1.46-5.38-4.05h11.69c1.03,0,1.5-.22,1.5-1.21h-.03Zm8.67,10.23c4.13,0,8.4-1.85,8.4-6.62,.03-1.18-.32-2.34-.99-3.31-.68-.97-1.65-1.69-2.77-2.07l-4.21-1.65c-1.41-.52-1.58-1.08-1.58-1.57,0-.58,.61-1.32,2-1.32,1.6,.07,3.17,.41,4.66,.99l.44,.08c.16,.01,.32-.03,.45-.12,.13-.09,.23-.22,.27-.38l.86-2.9,.08-.47c0-.33-.19-.52-.58-.72-2.06-.91-4.29-1.36-6.54-1.32-3.71,0-7.98,1.79-7.98,6.26,.01,1.29,.43,2.54,1.2,3.58,.77,1.04,1.84,1.81,3.07,2.21l3.74,1.38c1.52,.58,1.94,.97,1.94,1.79,0,.88-.91,1.43-2.22,1.43-1.91-.08-3.79-.51-5.54-1.27-.21-.11-.43-.16-.67-.17-.28,0-.44,.19-.64,.74l-.83,2.59-.08,.52c0,.17,.06,.34,.17,.48,.11,.14,.26,.23,.43,.27,2.2,.96,4.56,1.47,6.96,1.52" style="fill: #666666;"/>
    <path d="M91.05,28.73c.33-.17,.67-.28,.67-.74,0-.66-.67-2.56-.89-3.31-.06-.28-.22-.55-.55-.55-.16,.02-.32,.06-.47,.14-1.58,.61-2.38,.85-4.16,.85-2.91,0-4.71-2.04-4.71-5.82,0-3.56,1.72-5.71,4.99-5.71,1.27,.02,2.52,.28,3.69,.77,.17,.09,.36,.14,.55,.17,.28,0,.47-.17,.55-.58l.67-2.98c.11-.58,.11-.97-.44-1.24-1.84-.76-3.82-1.14-5.82-1.1-6.62,0-10.7,4.27-10.7,11s3.88,10.34,10.25,10.34c2.47,0,4.16-.25,6.37-1.24Z" style="fill: #666666;"/>
    <path d="M98.28,17.04c.28-1.99,1.66-3.64,3.74-3.64,2.19,0,3.21,1.85,3.21,3.64h-6.96Zm13.08,2.73v-.52c0-2.92-.39-5.79-2.49-8-.83-.87-1.83-1.55-2.95-2.01-1.11-.46-2.31-.67-3.51-.64-6.43,0-10.81,4.22-10.81,10.67s4.18,10.7,10.84,10.7c2.44,0,5.35-.41,7.57-1.41,.42-.19,.8-.36,.8-.91,0-.63-.64-2.54-.8-3.25-.03-.16-.11-.3-.23-.4-.12-.1-.28-.16-.43-.15-.17,0-.34,.04-.5,.11-1.67,.69-3.46,1.06-5.26,1.08-2.55,0-4.88-1.46-5.38-4.05h11.69c1.03,0,1.5-.22,1.5-1.21h-.03Zm8.12-3.92c1.02-1.02,2.41-1.59,3.85-1.6,.69,0,.91,.11,1.33,.11s.58-.19,.67-.66l.64-3.92c.08-.44,.08-.85-.47-.99-.38-.09-.77-.15-1.16-.17-2.47,0-3.71,.88-5.21,2.67l-.08-1.27c-.06-.61-.42-.83-1.22-.83h-3.38c-.72,0-1.22,.22-1.22,1.21V28.29c0,.77,.42,1.16,1.16,1.16h3.94c.83,0,1.16-.41,1.16-1.19V15.85Z" style="fill: #666666;"/>
  </g>
</svg>