<?xml version="1.0" encoding="UTF-8"?>
<svg id="Layer_1" data-name="Layer 1" xmlns="http://www.w3.org/2000/svg" xmlns:xlink="http://www.w3.org/1999/xlink" viewBox="0 0 81 60">
  <defs>
    <style>
      .cls-1 {
        fill: url(#linear-gradient);
      }

      .cls-1, .cls-2, .cls-3, .cls-4, .cls-5, .cls-6, .cls-7, .cls-8, .cls-9, .cls-10 {
        fill-rule: evenodd;
      }

      .cls-2 {
        fill: url(#linear-gradient-2);
      }

      .cls-3 {
        fill: url(#linear-gradient-4);
      }

      .cls-4 {
        fill: url(#linear-gradient-3);
      }

      .cls-5 {
        fill: url(#linear-gradient-5);
      }

      .cls-6 {
        fill: url(#linear-gradient-9);
      }

      .cls-7 {
        fill: url(#linear-gradient-6);
      }

      .cls-8 {
        fill: url(#linear-gradient-7);
      }

      .cls-9 {
        fill: url(#linear-gradient-8);
      }

      .cls-10 {
        fill: url(#linear-gradient-10);
      }
    </style>
    <linearGradient id="linear-gradient" x1="15.54" y1="74" x2="55.96" y2="10.92" gradientTransform="translate(0 61) scale(1 -1)" gradientUnits="userSpaceOnUse">
      <stop offset="0" stop-color="#c4a2d5"/>
      <stop offset="1" stop-color="#cdd3e3"/>
    </linearGradient>
    <linearGradient id="linear-gradient-2" x1="8.78" y1="69.67" x2="49.19" y2="6.59" gradientTransform="translate(0 61) scale(1 -1)" gradientUnits="userSpaceOnUse">
      <stop offset="0" stop-color="#c4a2d5"/>
      <stop offset="1" stop-color="#cdd3e3"/>
    </linearGradient>
    <linearGradient id="linear-gradient-3" x1="6.23" y1="68.03" x2="46.64" y2="4.95" gradientTransform="translate(0 61) scale(1 -1)" gradientUnits="userSpaceOnUse">
      <stop offset="0" stop-color="#c4a2d5"/>
      <stop offset="1" stop-color="#cdd3e3"/>
    </linearGradient>
    <linearGradient id="linear-gradient-4" x1="8.75" y1="69.65" x2="49.17" y2="6.57" gradientTransform="translate(0 61) scale(1 -1)" gradientUnits="userSpaceOnUse">
      <stop offset="0" stop-color="#c4a2d5"/>
      <stop offset="1" stop-color="#cdd3e3"/>
    </linearGradient>
    <linearGradient id="linear-gradient-5" x1="12.16" y1="71.83" x2="52.58" y2="8.75" gradientTransform="translate(0 61) scale(1 -1)" gradientUnits="userSpaceOnUse">
      <stop offset="0" stop-color="#c4a2d5"/>
      <stop offset="1" stop-color="#cdd3e3"/>
    </linearGradient>
    <linearGradient id="linear-gradient-6" x1="22.53" y1="78.48" x2="62.94" y2="15.39" gradientTransform="translate(0 61) scale(1 -1)" gradientUnits="userSpaceOnUse">
      <stop offset="0" stop-color="#c4a2d5"/>
      <stop offset="1" stop-color="#cdd3e3"/>
    </linearGradient>
    <linearGradient id="linear-gradient-7" x1="28.87" y1="82.54" x2="69.28" y2="19.46" gradientTransform="translate(0 61) scale(1 -1)" gradientUnits="userSpaceOnUse">
      <stop offset="0" stop-color="#c4a2d5"/>
      <stop offset="1" stop-color="#cdd3e3"/>
    </linearGradient>
    <linearGradient id="linear-gradient-8" x1="34.35" y1="86.04" x2="74.77" y2="22.96" gradientTransform="translate(0 61) scale(1 -1)" gradientUnits="userSpaceOnUse">
      <stop offset="0" stop-color="#c4a2d5"/>
      <stop offset="1" stop-color="#cdd3e3"/>
    </linearGradient>
    <linearGradient id="linear-gradient-9" x1="37.51" y1="88.08" x2="77.93" y2="25" gradientTransform="translate(0 61) scale(1 -1)" gradientUnits="userSpaceOnUse">
      <stop offset="0" stop-color="#c4a2d5"/>
      <stop offset="1" stop-color="#cdd3e3"/>
    </linearGradient>
    <linearGradient id="linear-gradient-10" x1="39.18" y1="89.14" x2="79.59" y2="26.06" gradientTransform="translate(0 61) scale(1 -1)" gradientUnits="userSpaceOnUse">
      <stop offset="0" stop-color="#c4a2d5"/>
      <stop offset="1" stop-color="#cdd3e3"/>
    </linearGradient>
  </defs>
  <g id="root">
    <path d="M2.82,15.19C1.34,10.4,.51,5.28,0,0,19.28,3.28,38.6,6.48,59.06,6.88l-7.83,7.27-5.78,2.21,2.05-4.29-8.09,1.04-.9,4.55-7.83,1.82-.13-5.63c-9.38,1.67-18.59,1.63-27.73,1.34Z" style="fill: url(#linear-gradient); fill-rule: evenodd;"/>
    <path d="M50.12,15.74c-17.06,6.89-30.2,7.04-44.4,7.81,1.35,4.21,2.86,7.33,4.45,9.83l9.26-2.57,2,3.4-7.9,4.68,5.36,6.7,28.23-25.25,3-4.59Zm-9.9,6.98l-12.62,8.17-1.09-2.57c4.91-1.18,9.26-3.49,13.71-5.6Z" style="fill: url(#linear-gradient-2); fill-rule: evenodd;"/>
    <path d="M20.35,46.87c8.85-6.88,17.48-14.47,25.6-23.78l-.64,2.94-5.17,10.56,4.99-9.09,.18,2.57c-.59,1.95-5.96,18.43-10.53,26.72l-5.9-2.85,7.35-13.96-10.17,11.94-5.72-5.05Z" style="fill: url(#linear-gradient-3); fill-rule: evenodd;"/>
    <path d="M44.59,34.11l.91-3.31c.69,1.91,1.46,3.65,2.63,4.59l.64,2.94-1.27-.73c.29,7.28,.52,14.58-.73,22.22l-6.22-.96c1.98-7.69,3.78-15.44,5.04-23.37-.33-.27-.67-.62-1-1.38Z" style="fill: url(#linear-gradient-4); fill-rule: evenodd;"/>
    <path d="M48.47,34.48l-.06,.58,1.8,1.43,.13-.52-1.86-1.49Zm.26,1.49c1.3,7.3,1.73,15.17,.64,24.03l5.26-.39-.39-5.91,1.8-.26,2.12,5.52,4.94-1.69-12.26-20.06-2.12-1.23Zm2.89,5.33l3.02,7.99-1.22,.06-1.8-8.05Z" style="fill: url(#linear-gradient-5); fill-rule: evenodd;"/>
    <path d="M59.45,42.14l2.18-1.17-2.86-2.18s-1.41-1.06-3.66-.87c-2.25,.18-2.66,.15-1.58,1.72l2.7,3.8c1.46,1.85,3.77,2.32,6.42,2.27l3.72,4.16c.01,1.66-.7,.66-1.16,.58l-3.4-4.03-3.21,1.36,3.53,6.49c2.7,3.2,3.78,1.97,5.01,1.36,2.32-1.41,3.94-2.48,4.88-4.03,.52-1.23-.2-2.39-1.41-3.51-2.09-1.72-4.29-3.98-6.23-4.94l-1.28-.26-3.27-.06c-.55-.03-1.54-.6-1.93-.97l-1.6-1.95c0-.39,.26-.43,.77-.13l2.38,2.34Z" style="fill: url(#linear-gradient-6); fill-rule: evenodd;"/>
    <path d="M59.83,39.16l-1.99-1.49c1.7-.67,3.39-1.37,4.75-2.73l1.99,.26-1.03,1.23,15.28,6.04-2.57,4.55-15.09-8.9-1.35,1.04Z" style="fill: url(#linear-gradient-7); fill-rule: evenodd;"/>
    <path d="M63.23,34.42l1.35-1.82c5.55-.33,10.99,0,16.37,.71l-.64,4.61c-5.8-1.61-11.44-2.58-17.08-3.51Z" style="fill: url(#linear-gradient-8); fill-rule: evenodd;"/>
    <path d="M69.53,27.6l-.26-2.73-1.73,.65c-.69,.4-.9,1.14-1.09,1.88l-.71,3.05c-.1,.55,.15,.65,.39,.78l11.94,.19c1.58-.04,2.86-.45,2.82-2.47-.27-2.56-1.12-4.62-2.76-5.97-.84-.8-1.77-.57-2.7-.26l-3.72,1.1,.83,3.12,3.6-.65c.63-.15,1.45,.75-.06,1.17l-8.02,1.36c-.64-.24,.06-.71,.06-.71l1.41-.52Z" style="fill: url(#linear-gradient-9); fill-rule: evenodd;"/>
    <path d="M70.16,14.5c-.44,0-.85,.16-1.21,.53l-4.08,4.22c-.72,.59-.45,.85-.45,1.2l1.48,3.18c.38,.71,.82,.92,1.28,.94l1.48-.58,6.52-3.25c1.61-.88,.57-1.9-.06-2.82-.98-1.25-1.99-2.58-3.88-3.21-.37-.13-.73-.21-1.07-.21Zm1.21,3.24c.32,0,.7,.13,.44,.83l-3.88,2.63-.93,.62s-.78,.25-.42-.58l4.43-3.44s.17-.05,.36-.05Z" style="fill: url(#linear-gradient-10); fill-rule: evenodd;"/>
  </g>
</svg>