<?xml version="1.0" encoding="UTF-8"?>
<svg id="Layer_1" data-name="Layer 1" xmlns="http://www.w3.org/2000/svg" viewBox="0 0 111 38">
  <g id="root">
    <path d="M96.46,9.07h.82c1.42,0,3.19,.09,3.19,1.96s-1.64,2.18-3.16,2.18h-.85v-4.14Zm-8.46,17.36h8.47v-7.65h.16l3.79,7.65h9.99l-5.18-7.74c-.47-.7-1.01-1.07-1.45-1.42v-.19c3.22-1.07,4.61-2.59,4.61-6.19,0-6.01-4.55-8.28-9.92-8.28h-10.46V26.43Z" style="fill: #e63434; fill-rule: evenodd;"/>
    <path d="M45.91,2.59v14.1c0,6.78-4.14,9.95-10.53,10.11-.17,0-.34,0-.49,0-6.41-.14-10.57-3.31-10.57-10.11V2.59h8.66V15.86c0,1.73,.05,3.27,1.91,3.48,.14,.02,.35,.01,.5,0,1.81-.23,1.87-1.76,1.87-3.48V2.59h8.66Z" style="fill: #e63434; fill-rule: evenodd;"/>
    <path d="M48.62,26.42h8.34v-7.17h3c4.84,0,7.87-3.03,7.87-7.9,0-5.91-4.11-8.75-9.67-8.75h-9.54V26.42Zm8.34-17.32h.82c1.42,0,3.19,.09,3.19,1.96s-1.64,2.18-3.16,2.18h-.85v-4.14Z" style="fill: #e63434; fill-rule: evenodd;"/>
    <path d="M40.16,33.25h-.27v-1.64h.26c.46,0,1.02,.04,1.02,.78s-.53,.87-1.01,.87Zm2.04,1.65c-.12-.23-.27-.35-.38-.46v-.06c.85-.35,1.22-.85,1.22-2.03,0-1.96-1.2-2.71-2.62-2.71h-2.76v7.79h2.23v-2.5h.04l1,2.5h2.64l-1.37-2.53Z" style="fill: #e63434; fill-rule: evenodd;"/>
    <path d="M3.19,18.13s5.16,2.25,7.48,2c.93-.1,1.93-.58,1.93-1.76s-1.24-1.28-2.1-1.45l-1.9-.34c-3.69-.66-6.8-2.83-6.8-6.9C1.8,3.5,7.42,.05,13.08,.05c2.97,0,5.69,.72,8.25,2.28l-2.55,5.73c-2.23-1.06-3.53-1.52-5.55-1.71-1.09-.1-2.13,.72-2.13,1.79,0,.97,1.33,1.37,2.05,1.54l2.14,.48c4,.9,6.9,3.04,6.9,7.45,0,6.21-5.66,9.28-11.28,9.28-3.28,0-7.07-.9-10.01-2.38l2.28-6.38Z" style="fill: #e63434; fill-rule: evenodd;"/>
    <path d="M78.28,20.19v-3.35h6.67v-4.63h-6.67v-3.27h7.3V2.65h-12.69c-1.74,.01-3.17,1.33-3.34,3.03V23.46c.18,1.69,1.6,3.01,3.33,3.03h12.95v-6.3h-7.56Z" style="fill: #e63434; fill-rule: evenodd;"/>
    <path d="M67.61,34.93s1.24,.67,1.8,.6c.22-.03,.46-.17,.46-.52s-.3-.38-.51-.43l-.46-.1c-.89-.2-1.64-.85-1.64-2.06,0-1.84,1.35-2.87,2.72-2.87,.71,0,1.37,.22,1.99,.68l-.61,1.71c-.54-.32-.85-.45-1.34-.51-.26-.03-.51,.21-.51,.53,0,.29,.32,.41,.5,.46l.51,.14c.96,.27,1.66,.91,1.66,2.22,0,1.85-1.36,2.77-2.72,2.77-.79,0-1.7-.27-2.41-.71l.55-1.91Z" style="fill: #e63434; fill-rule: evenodd;"/>
    <path d="M58.01,34.93s1.24,.67,1.8,.6c.22-.03,.47-.17,.47-.52s-.3-.38-.51-.43l-.46-.1c-.89-.2-1.64-.85-1.64-2.06,0-1.84,1.35-2.87,2.72-2.87,.71,0,1.37,.22,1.99,.68l-.61,1.71c-.54-.32-.85-.45-1.34-.51-.26-.03-.51,.21-.51,.53,0,.29,.32,.41,.5,.46l.51,.14c.96,.27,1.66,.91,1.66,2.22,0,1.85-1.36,2.77-2.72,2.77-.79,0-1.7-.27-2.41-.71l.55-1.91Z" style="fill: #e63434; fill-rule: evenodd;"/>
    <path d="M1.43,37.42H3.71v-7.77H1.43v7.77Z" style="fill: #e63434; fill-rule: evenodd;"/>
    <path d="M18.89,29.66h4.79v2.52l-1.25-.07v5.31h-2.28v-5.31l-1.25,.07v-2.52Z" style="fill: #e63434; fill-rule: evenodd;"/>
    <path d="M79,34.86l.57-3.27h.11c.06,.46,.11,.92,.21,1.38l.37,1.89h-1.26Zm1.87-5.18h-2.51l-2.17,7.75h2.41l.18-.97h1.72l.21,.97h2.41l-2.23-7.75Z" style="fill: #e63434; fill-rule: evenodd;"/>
    <path d="M86.78,29.66h2.08l1.95,4.3h.06c-.09-.65-.18-1.32-.18-1.98v-2.33h2.07v7.77h-2.07l-1.91-4.08h-.06c.07,.54,.13,1.04,.13,1.56v2.52h-2.08v-7.77Z" style="fill: #e63434; fill-rule: evenodd;"/>
    <path d="M8.5,29.66h2.08l1.95,4.3h.06c-.09-.65-.18-1.32-.18-1.98v-2.33h2.08v7.77h-2.08l-1.91-4.08h-.06c.07,.54,.13,1.04,.13,1.56v2.52h-2.08v-7.77Z" style="fill: #e63434; fill-rule: evenodd;"/>
    <path d="M97.48,29.66h4.79v2.52l-1.25-.07v5.31h-2.28v-5.31l-1.26,.07v-2.52Z" style="fill: #e63434; fill-rule: evenodd;"/>
    <path d="M108.52,35.42v-1.09h1.79v-1.51h-1.79v-1.07h1.96v-2.06h-3.4c-.47,0-.85,.44-.9,.99v5.81c.05,.55,.43,.98,.89,.99h3.47v-2.06h-2.02Z" style="fill: #e63434; fill-rule: evenodd;"/>
    <path d="M50.53,35.42v-1.09h1.79v-1.51h-1.79v-1.07h1.96v-2.06h-3.4c-.47,0-.85,.44-.9,.99v5.81c.05,.55,.43,.98,.89,.99h3.47v-2.06h-2.02Z" style="fill: #e63434; fill-rule: evenodd;"/>
    <path d="M30.47,35.42v-1.09h1.79v-1.51h-1.79v-1.07h1.96v-2.06h-3.4c-.47,0-.85,.44-.9,.99v5.81c.05,.55,.43,.98,.89,.99h3.47v-2.06h-2.02Z" style="fill: #e63434; fill-rule: evenodd;"/>
  </g>
</svg>