<?xml version="1.0" encoding="utf-8"?>
<!-- Generator: Adobe Illustrator 27.8.1, SVG Export Plug-In . SVG Version: 6.00 Build 0)  -->
<svg version="1.2" baseProfile="tiny-ps" id="bimi" xmlns="http://www.w3.org/2000/svg" xmlns:xlink="http://www.w3.org/1999/xlink" viewBox="0 0 256 256" xml:space="preserve">
<title>BIMI Diálogo Positivo</title>
<rect y="0" fill="#E5E5E5" width="256" height="256"/>
<rect y="0" fill="#34509F" width="256" height="256"/>
<path fill="#FFFFFF" d="M99.2,157.1c2.7-2,4.8-4.5,6.3-7.5c1.6-3.2,2.4-6.7,2.5-10.2v-12.6c0-3.5-0.9-7-2.5-10.2
	c-1.4-3-3.6-5.6-6.3-7.5c-2.5-1.9-5.6-2.8-8.8-2.8c-10.2,0-15.3,7.1-15.3,21.3v11.1c0,14.3,5.1,21.4,15.3,21.4
	C93.6,160,96.6,159,99.2,157.1L99.2,157.1z M75.5,158.9c-4-2.5-7.2-6.1-9.2-10.4c-2.2-4.9-3.3-10.3-3.3-15.6
	c0-5.4,1.1-10.7,3.3-15.6c2-4.3,5.2-7.8,9.2-10.3c4.2-2.5,8.9-3.7,13.8-3.6c4-0.1,7.9,1.1,11.1,3.4c3.3,2.4,5.8,5.5,7.5,9.2V76.5
	l-7.7-1.1v-2.2h18.7v85.1l7.7,1.1v2.2h-18.7V150c-1.6,3.7-4.2,6.9-7.5,9.2c-3.3,2.3-7.1,3.5-11.1,3.4
	C84.5,162.7,79.7,161.5,75.5,158.9z"/>
<path fill="#FFFFFF" d="M180.4,137.3v-11.1c0-14.3-5.1-21.4-15.3-21.4c-3.2,0-6.2,1-8.8,2.8c-2.7,2-4.9,4.6-6.3,7.6
	c-1.5,3.2-2.4,6.7-2.4,10.3v11.8c0,3.6,0.7,7.2,2.3,10.5c1.4,3.1,3.5,5.8,6.3,7.9c2.6,1.9,5.8,3,9,2.9
	C175.3,158.7,180.4,151.6,180.4,137.3L180.4,137.3z M128.9,189.3l7.7-1.1v-81.7l-7.7-1.1v-2.2h18.6v11.6c1.6-3.7,4.2-6.9,7.4-9.3
	c3.3-2.3,7.2-3.5,11.2-3.4c4.8-0.1,9.6,1.2,13.8,3.7c4,2.5,7.2,6.1,9.2,10.4c2.2,4.9,3.3,10.3,3.3,15.6c0,5.4-1.1,10.7-3.3,15.6
	c-2,4.3-5.2,7.8-9.2,10.3c-4.2,2.5-8.9,3.7-13.8,3.6c-4,0.1-7.9-1.1-11.2-3.4c-3.2-2.4-5.8-5.6-7.4-9.2v39.5l10.3,1.1v2.2h-29V189.3
	z"/>
<path fill="#FFFFFF" d="M129,91c2.3-1.5,4.4-3.3,6-5.6c1.7-2,2.6-4.6,2.7-7.2c0-0.6-0.2-1.2-0.5-1.6c-0.2-0.2-0.5-0.4-0.8-0.5
	c-0.3-0.1-0.6-0.1-0.9-0.1c-0.9,0-1.7-0.2-2.5-0.5c-0.8-0.3-1.5-0.8-2.1-1.4c-0.6-0.6-1.1-1.3-1.4-2.1c-0.3-0.8-0.5-1.7-0.5-2.5
	c0-0.9,0.1-1.7,0.5-2.5s0.8-1.5,1.5-2.1c1.3-1.2,2.9-1.8,4.7-1.8c1.2,0,2.3,0.2,3.4,0.7c1.1,0.5,2,1.2,2.7,2.1
	c1.6,2.1,2.4,4.7,2.3,7.3c0,4-1.1,7.9-3.4,11.2c-2.6,3.7-6.2,6.6-10.3,8.4L129,91z"/>
</svg>
